{"glyphs":{"0":{"ha":439,"x_min":0,"x_max":0,"o":"m 267 914 b 251 910 261 914 257 913 b 233 888 239 904 233 897 b 254 856 233 875 242 863 b 0 243 93 694 0 471 b 140 6 0 151 31 6 b 160 7 146 6 153 6 b 346 190 247 19 310 118 b 440 574 403 303 440 440 b 382 831 440 664 424 751 b 378 847 379 836 378 842 b 379 871 378 856 379 864 b 372 890 379 878 378 883 b 349 901 365 900 357 901 b 326 900 342 901 333 900 l 321 900 b 269 914 303 901 288 913 z m 311 821 b 342 779 326 821 336 790 b 378 625 363 731 374 678 b 379 574 379 608 379 590 b 271 178 379 436 342 294 b 142 64 244 135 199 64 l 139 64 b 61 250 64 67 61 197 b 204 707 61 411 111 574 b 282 800 226 739 253 774 b 311 821 289 807 300 821 z "},"1":{"ha":229,"x_min":0,"x_max":0,"o":"m 204 978 b 169 961 192 978 178 971 b 49 789 124 910 86 846 b 15 729 38 772 15 750 b 17 722 15 726 17 725 b 43 701 21 708 31 701 b 63 707 50 701 57 703 b 126 797 88 724 114 769 l 126 790 b 115 728 126 769 119 747 b 89 592 106 682 99 638 b 26 206 64 464 44 335 b 4 67 19 160 13 113 b 0 39 3 58 0 49 b 11 14 0 29 1 21 b 28 8 17 10 22 8 b 60 39 43 8 56 24 b 86 206 74 93 78 150 b 179 750 113 388 143 569 b 214 894 189 799 200 847 b 229 947 219 911 229 929 b 228 958 229 951 229 954 b 204 978 224 972 215 978 z "},"2":{"ha":636,"x_min":0,"x_max":0,"o":"m 417 918 l 415 918 b 342 896 390 918 364 908 b 186 728 276 858 219 796 b 161 643 175 704 161 672 b 163 625 161 636 161 631 b 197 596 167 608 182 596 b 219 608 206 596 213 600 b 225 632 225 615 225 624 l 225 653 b 226 668 225 658 225 664 b 290 774 239 707 263 743 b 339 821 306 790 322 807 b 375 846 350 831 363 839 b 410 856 388 853 399 856 b 460 801 435 856 453 836 b 463 768 461 790 463 779 b 440 647 463 728 451 685 b 182 203 394 486 300 322 b 163 194 176 197 169 194 b 110 206 146 194 126 206 l 108 204 b 0 99 51 203 0 157 b 56 46 0 63 26 46 b 75 49 63 46 68 47 b 149 88 101 56 126 71 b 183 111 158 94 169 111 b 281 58 211 111 254 71 b 447 21 331 33 389 21 b 553 36 483 21 519 26 b 636 90 581 44 626 60 b 638 99 638 93 638 96 b 608 128 638 114 624 128 l 601 128 b 519 89 572 121 550 96 b 449 81 496 83 472 81 b 306 113 400 81 350 92 b 226 157 278 125 254 144 b 321 278 254 200 292 236 b 510 679 406 399 481 533 b 521 776 515 707 521 742 b 463 906 521 828 508 879 b 417 918 447 914 432 918 z m 124 144 l 124 142 l 60 106 b 124 144 69 138 93 144 z "},"3":{"ha":304,"x_min":0,"x_max":0,"o":"m 179 889 b 154 888 171 889 161 889 b 46 844 118 882 74 868 b 32 815 38 838 32 825 b 54 789 32 803 39 793 b 61 788 56 789 60 788 b 97 806 75 788 86 799 b 154 826 115 815 135 821 b 190 824 165 829 183 835 b 196 806 193 818 196 813 b 185 761 196 790 189 772 b 136 636 169 719 136 682 b 138 625 136 632 138 629 b 200 556 142 589 176 578 b 244 450 229 528 244 492 b 207 308 244 401 226 351 b 64 90 171 229 125 153 b 8 53 47 74 24 68 b 0 32 3 47 0 39 b 31 -3 0 15 13 -3 b 146 93 75 -3 121 63 b 304 446 219 183 304 319 b 299 499 304 464 303 482 b 244 596 290 536 272 568 b 197 644 232 608 197 624 b 229 713 197 665 221 696 b 254 814 240 736 254 778 b 203 888 254 850 242 881 b 179 889 196 889 188 889 z "},"4":{"ha":406,"x_min":0,"x_max":0,"o":"m 381 957 b 350 938 368 957 356 950 b 318 819 335 901 328 858 b 263 576 299 739 279 657 b 243 481 256 544 250 513 b 232 436 240 467 240 447 b 196 422 225 426 207 425 b 107 406 172 417 138 406 b 75 411 94 406 85 407 b 58 444 63 417 58 431 b 79 522 58 471 74 506 b 221 828 115 628 171 728 b 267 915 233 853 267 885 b 238 946 267 931 253 946 b 235 944 236 946 236 944 b 189 897 211 942 199 915 b 110 743 161 847 136 794 b 4 474 68 658 22 567 b 0 438 1 461 0 450 b 47 357 0 404 11 372 b 100 347 64 350 82 347 b 219 365 140 347 182 360 b 172 100 213 276 186 188 b 164 42 169 86 164 63 b 178 6 164 26 168 13 b 197 -3 186 0 192 -3 b 228 72 224 -3 225 54 b 283 383 242 175 279 281 b 376 408 308 386 358 389 b 386 432 383 415 386 424 b 354 467 386 449 374 467 l 353 467 b 299 447 335 465 317 451 b 339 653 304 515 324 586 b 369 776 349 694 360 735 b 407 929 381 824 407 881 b 381 957 407 949 396 957 z "},"5":{"ha":651,"x_min":0,"x_max":0,"o":"m 629 879 b 610 881 624 881 617 881 b 547 875 589 881 564 876 b 329 863 475 869 401 863 l 311 863 b 263 881 292 863 281 881 l 260 881 b 218 860 243 879 235 863 l 207 860 b 144 864 189 860 164 864 b 118 860 135 864 125 864 b 103 833 108 854 103 843 b 118 807 103 822 108 813 b 156 800 128 801 142 800 b 206 803 174 800 192 803 b 131 567 171 739 131 640 b 156 476 131 535 131 501 b 240 451 179 453 210 451 l 253 451 b 296 449 268 451 282 451 b 347 397 322 443 347 426 b 118 100 347 275 215 151 b 54 72 99 89 76 76 b 15 71 40 69 28 78 b 0 43 6 65 0 54 b 6 25 0 36 1 31 b 42 7 14 13 26 7 b 136 42 74 7 115 31 b 386 307 244 97 340 193 b 404 393 397 335 404 364 b 329 501 404 440 385 483 b 188 554 286 515 188 492 b 244 742 189 617 222 685 b 275 803 251 758 258 793 b 301 807 282 807 292 807 b 336 806 314 807 326 806 b 463 811 378 806 421 808 b 601 818 508 814 556 813 b 649 836 618 819 639 819 b 653 849 651 840 653 844 b 629 879 653 863 643 875 z "},"6":{"ha":478,"x_min":0,"x_max":0,"o":"m 478 883 b 447 908 474 900 463 908 b 364 875 419 908 379 885 b 144 639 275 818 200 728 b 0 228 71 522 0 372 b 14 122 0 192 4 157 b 42 65 19 101 32 85 b 46 43 44 58 46 51 l 46 24 b 54 -7 46 13 47 1 b 75 -21 63 -17 68 -21 b 104 28 93 -21 104 8 b 135 24 114 25 125 24 b 253 76 178 24 219 50 b 399 376 331 139 399 267 b 393 425 399 393 396 410 b 324 488 383 471 356 488 b 193 418 278 488 221 451 b 129 322 168 389 147 357 b 68 164 106 278 72 215 b 58 222 61 181 58 201 b 76 336 58 261 68 304 b 301 742 115 490 197 624 b 433 843 338 782 383 822 b 478 883 456 851 478 853 z m 240 382 b 317 431 253 396 289 431 b 332 421 322 431 328 426 b 340 385 339 411 340 399 b 329 318 340 361 333 336 b 210 118 310 243 271 168 b 133 83 189 100 161 83 b 107 89 125 83 115 85 b 154 238 119 140 133 189 b 204 333 168 271 185 303 b 240 382 215 350 226 367 z "},"7":{"ha":413,"x_min":0,"x_max":0,"o":"m 344 901 b 339 903 343 901 340 903 b 97 885 258 903 176 892 l 89 885 b 49 886 78 885 63 886 b 1 863 26 886 7 882 b 0 854 0 860 0 857 b 56 824 0 831 32 824 b 69 825 61 824 65 825 b 344 842 160 836 254 842 b 228 588 297 763 263 674 b 99 213 179 465 132 340 b 64 56 86 161 69 108 b 63 42 64 51 63 46 b 85 3 63 25 67 7 b 92 1 88 3 89 1 b 122 25 106 1 118 11 b 156 194 138 79 140 139 b 318 649 199 349 253 503 b 379 778 338 692 357 736 b 413 858 392 801 413 831 b 344 901 413 899 375 901 z "},"8":{"ha":318,"x_min":0,"x_max":0,"o":"m 224 931 b 51 689 94 931 51 793 b 67 571 51 647 57 606 b 96 481 75 540 85 510 b 108 442 100 469 110 454 b 89 414 107 432 94 422 b 53 353 75 394 64 374 b 0 157 22 292 4 224 l 0 138 b 100 -15 0 71 24 -15 b 115 -14 106 -15 110 -15 b 236 183 210 0 236 94 b 228 275 236 217 233 249 b 206 360 222 300 206 333 l 206 368 b 261 511 214 415 244 465 b 317 761 290 593 308 675 b 321 797 319 772 321 785 b 224 931 321 863 286 931 z m 190 863 b 218 871 200 868 211 871 b 258 783 250 871 258 826 b 253 717 258 757 254 731 b 232 614 249 682 242 647 b 175 450 217 558 190 506 b 139 535 154 464 147 511 b 108 694 122 585 108 640 b 140 813 108 736 117 776 b 167 846 147 824 157 836 b 190 863 174 853 182 858 z m 136 378 b 138 369 136 375 138 372 b 132 326 138 356 132 340 b 133 314 132 322 132 318 b 168 275 139 294 163 294 b 181 182 176 247 181 214 b 160 88 181 147 175 114 b 103 43 149 68 128 43 l 97 43 b 60 124 63 49 63 97 b 58 151 58 132 58 142 b 136 378 58 226 89 328 z "},"9":{"ha":411,"x_min":0,"x_max":0,"o":"m 285 882 b 218 867 261 882 239 876 b 24 643 129 826 61 731 b 0 550 11 614 0 582 b 7 507 0 536 1 521 b 83 460 21 472 51 460 b 128 467 97 460 114 461 b 324 638 213 496 265 575 b 113 147 275 467 204 300 b 38 33 90 110 57 72 b 46 -4 32 21 35 4 b 63 -10 51 -8 57 -10 b 103 18 79 -10 93 6 b 189 160 135 63 161 113 b 385 640 272 307 351 474 b 390 675 388 651 389 664 b 413 704 404 675 413 693 b 408 719 413 710 411 715 b 394 738 404 726 400 732 b 397 753 394 742 396 749 b 404 789 399 764 404 776 b 401 803 404 794 404 797 b 374 838 394 815 382 825 b 285 882 353 869 319 882 z m 81 629 b 292 825 117 706 192 825 b 269 794 278 821 269 808 b 275 775 269 788 272 781 b 314 726 285 758 299 742 b 172 563 275 667 226 610 b 85 518 149 542 117 518 b 60 549 67 518 60 531 b 81 629 60 576 75 617 z "}," ":{"ha":417,"x_min":0,"x_max":0,"o":""},"!":{"ha":290,"x_min":0,"x_max":0,"o":"m 192 960 b 181 958 188 960 185 960 b 161 918 164 951 164 933 b 150 797 156 878 151 838 b 103 317 142 638 118 476 b 88 193 99 276 88 233 b 118 156 88 172 99 156 b 126 157 121 156 124 156 b 149 201 146 163 146 185 b 164 335 154 246 158 290 b 211 815 183 493 203 656 b 222 918 213 849 222 883 b 221 933 222 922 221 929 b 193 960 219 949 207 960 z m 108 101 b 96 99 104 101 100 100 b 69 38 79 92 69 64 b 96 -4 69 15 78 -4 b 108 -3 100 -4 104 -4 b 135 60 125 4 135 33 b 110 101 135 82 128 101 z "},"\"":{"ha":364,"x_min":0,"x_max":0,"o":"m 292 858 b 249 904 286 878 274 904 b 199 846 219 904 199 874 b 224 804 199 829 206 813 b 199 756 218 786 207 772 b 196 742 196 750 196 746 b 225 713 196 725 210 713 b 244 719 232 713 238 715 b 294 840 269 739 294 800 b 292 858 294 847 293 853 z m 168 840 b 122 904 168 868 151 904 b 72 846 93 904 72 874 b 97 804 72 829 79 813 b 72 756 92 786 81 772 b 69 742 69 750 69 746 b 99 713 69 725 83 713 b 118 719 106 713 111 715 b 168 840 143 739 168 800 z "},"#":{"ha":703,"x_min":0,"x_max":0,"o":"m 539 588 b 515 575 531 588 521 583 b 485 489 497 553 493 515 b 468 456 481 478 479 463 b 447 451 463 453 456 451 l 424 451 b 335 449 394 451 364 449 b 358 522 339 467 358 499 b 342 549 358 533 354 543 b 326 551 336 551 331 551 b 263 444 286 551 292 457 b 243 442 257 442 250 442 b 215 443 233 442 224 443 l 214 443 b 132 440 186 443 160 440 l 129 440 b 100 442 119 440 110 442 b 85 439 94 442 90 442 b 69 415 75 433 69 425 b 93 385 69 401 79 389 b 144 379 108 381 126 379 b 247 386 179 379 215 385 b 217 297 236 357 226 326 b 200 260 213 286 208 268 b 165 251 192 253 179 251 b 117 253 150 251 132 253 b 90 249 107 253 97 253 b 74 222 79 243 74 232 b 90 196 74 213 79 201 b 119 190 99 192 108 190 b 181 194 140 190 164 194 b 147 83 169 161 147 119 b 176 50 147 63 160 50 b 197 60 183 50 192 53 b 249 196 226 93 213 168 b 271 201 254 200 263 201 l 292 201 l 293 201 b 396 207 328 203 361 207 b 354 61 383 163 354 108 b 385 32 354 44 369 32 b 406 42 392 32 400 35 b 444 161 428 69 435 126 b 461 206 449 174 451 197 b 499 211 471 214 488 210 l 514 211 b 551 210 525 211 539 210 b 613 219 575 210 597 211 b 628 244 622 225 628 235 b 607 272 628 257 621 268 b 569 276 596 275 583 276 b 478 271 539 276 506 271 b 504 356 488 299 496 328 b 518 393 508 367 508 385 b 567 404 529 403 547 404 l 576 404 b 619 410 592 404 608 404 b 633 436 629 415 633 426 b 617 463 633 447 628 458 b 597 467 611 465 604 467 b 538 458 578 467 556 458 b 568 556 544 488 568 525 b 539 588 568 575 554 588 z m 453 394 l 426 301 l 413 268 l 365 265 l 265 258 l 297 349 l 313 386 l 350 389 z "},"$":{"ha":588,"x_min":0,"x_max":0,"o":"m 421 938 b 397 926 411 938 403 935 b 390 888 389 915 392 900 b 376 797 386 857 381 828 b 369 754 375 785 376 765 b 321 731 361 739 335 738 b 244 639 285 711 253 681 b 242 617 243 631 242 625 b 299 476 242 567 271 517 b 336 425 310 460 328 443 b 339 407 339 419 339 414 b 333 361 339 392 333 374 b 322 217 331 313 326 265 b 321 203 322 213 321 208 b 322 189 321 199 322 193 b 317 153 322 176 321 163 b 275 140 311 142 292 140 l 261 140 b 143 169 222 140 176 149 b 97 200 128 179 115 200 b 83 194 93 200 89 197 b 69 172 74 189 69 181 b 113 117 69 150 97 126 b 258 81 151 94 207 81 b 313 86 278 81 296 82 b 315 51 314 75 315 64 b 313 -25 315 26 313 0 b 317 -74 313 -42 313 -58 b 347 -97 321 -89 335 -97 b 374 -81 357 -97 368 -93 b 374 -40 379 -68 374 -53 b 368 44 374 -18 368 14 b 375 92 368 63 369 79 b 436 125 382 108 421 117 b 517 238 478 150 510 189 b 518 254 518 243 518 249 b 451 389 518 306 485 351 b 401 451 436 406 406 428 b 400 463 401 454 400 458 b 406 507 400 476 404 493 b 417 631 410 549 411 589 b 426 689 418 644 415 679 b 432 690 428 690 431 690 b 488 660 446 690 469 660 b 507 682 496 660 501 667 b 508 694 508 686 508 690 b 431 754 508 731 460 750 b 451 889 436 794 451 846 b 450 908 451 896 451 901 b 421 938 447 924 435 936 z m 364 682 l 349 515 b 303 601 318 532 303 568 b 364 682 303 639 322 675 z m 397 361 b 457 250 428 328 457 289 b 415 182 457 226 446 203 b 379 165 404 175 392 168 l 388 297 z "},"%":{"ha":633,"x_min":0,"x_max":0,"o":"m 378 978 b 290 961 347 978 315 969 b 156 878 240 944 188 921 b 132 831 144 863 142 846 b 71 685 100 785 78 742 b 69 672 71 681 69 676 b 144 575 69 624 104 575 b 197 606 163 575 179 583 b 228 692 219 633 228 663 b 199 811 228 732 213 771 b 225 842 217 815 225 828 b 221 863 225 849 224 856 b 347 915 264 879 300 904 b 376 919 356 917 367 919 b 404 910 386 919 397 917 b 411 886 410 904 411 896 b 401 842 411 871 406 853 b 335 672 382 785 358 728 b 150 204 269 519 197 364 b 111 26 135 150 111 85 b 113 1 111 18 111 10 b 178 -53 117 -32 147 -53 b 208 -46 189 -53 199 -50 b 333 68 257 -22 300 26 b 368 119 346 85 361 100 l 372 119 b 468 15 376 64 418 15 b 522 36 486 15 504 22 b 564 132 551 58 564 94 b 511 250 564 178 546 225 b 444 271 492 264 468 271 b 404 265 431 271 417 268 b 356 235 386 261 363 254 b 343 183 349 215 357 203 b 172 4 300 121 244 35 b 169 32 171 13 169 22 b 210 194 169 85 196 149 b 397 669 258 357 331 514 b 471 883 422 728 471 813 b 465 921 471 896 469 908 b 378 978 451 965 417 978 z m 157 760 b 169 703 164 740 169 722 b 142 633 169 678 161 654 l 139 633 b 128 675 132 644 128 660 b 157 760 128 706 140 740 z m 444 214 b 508 129 479 210 508 167 b 489 85 508 113 503 97 b 467 74 481 78 474 74 b 429 144 442 74 429 118 b 431 153 429 147 431 150 b 444 214 433 174 440 193 z "},"&":{"ha":686,"x_min":0,"x_max":0,"o":"m 386 906 b 268 808 338 906 285 850 b 244 681 251 768 244 725 b 246 643 244 668 244 656 b 258 567 247 622 258 590 b 257 551 258 561 258 556 b 193 446 247 515 213 478 b 69 129 139 356 69 240 b 74 83 69 114 71 99 b 208 -26 86 14 143 -26 b 240 -24 218 -26 229 -25 b 439 138 321 -8 410 60 l 446 138 b 507 32 460 100 488 67 b 565 -71 525 0 542 -43 b 589 -82 572 -79 581 -82 b 617 -53 604 -82 617 -71 b 588 14 617 -29 599 -6 b 511 140 563 57 536 99 b 479 203 501 157 479 183 b 507 283 479 229 500 258 b 542 446 524 338 535 390 b 544 488 543 456 544 471 b 529 533 544 507 540 526 b 515 536 525 536 521 536 b 486 515 503 536 490 528 b 482 464 482 500 482 482 b 481 431 482 453 482 440 b 439 268 472 374 457 322 b 346 471 399 329 369 403 b 326 535 340 488 326 514 b 328 546 326 539 326 543 b 368 615 335 569 356 593 b 446 772 397 665 429 717 b 454 826 450 789 454 808 b 436 881 454 846 450 865 b 386 906 422 896 403 906 z m 379 844 b 397 824 392 844 397 835 b 388 785 397 810 390 793 b 310 631 369 731 339 679 b 300 682 303 646 300 663 b 332 803 300 725 314 772 b 379 844 339 815 360 844 z m 282 474 b 358 292 308 414 328 350 b 406 199 371 267 406 228 b 371 138 406 179 381 151 b 210 31 340 94 272 31 b 167 42 194 31 181 33 b 129 124 138 60 129 92 b 133 165 129 138 131 153 b 231 394 149 246 189 324 b 282 474 246 419 260 454 z "},"'":{"ha":238,"x_min":0,"x_max":0,"o":"m 165 858 b 122 904 160 878 147 904 b 72 846 93 904 72 874 b 97 804 72 829 79 813 b 72 756 92 786 81 772 b 69 742 69 750 69 746 b 99 713 69 725 83 713 b 118 719 106 713 111 715 b 168 840 143 739 168 800 b 165 858 168 847 167 853 z "},"(":{"ha":463,"x_min":0,"x_max":0,"o":"m 336 960 b 326 958 332 960 329 960 b 161 785 253 942 194 846 b 69 415 103 679 69 546 b 133 135 69 315 89 218 b 296 -57 174 58 229 -3 b 365 -97 313 -71 340 -97 b 378 -96 369 -97 374 -97 b 394 -69 389 -90 394 -79 b 383 -46 394 -61 390 -53 b 176 186 301 26 221 82 b 129 422 144 260 129 340 b 247 808 129 560 172 699 b 322 890 268 839 293 869 b 371 915 336 900 361 900 b 376 932 375 922 376 926 b 336 960 376 950 356 960 z "},")":{"ha":463,"x_min":0,"x_max":0,"o":"m 128 960 b 88 932 108 960 88 950 b 93 915 88 926 89 922 b 140 890 103 900 126 900 b 217 808 169 869 196 839 b 333 422 292 699 333 560 b 288 186 333 340 319 260 b 81 -46 243 82 163 26 b 69 -69 74 -53 69 -61 b 86 -96 69 -79 75 -90 b 99 -97 90 -97 94 -97 b 168 -57 124 -97 151 -71 b 331 135 235 -3 290 58 b 394 415 375 218 394 315 b 301 785 394 546 360 679 b 138 958 268 846 211 942 b 128 960 135 960 132 960 z "},"*":{"ha":439,"x_min":0,"x_max":0,"o":"m 222 942 l 221 942 b 192 924 210 942 197 935 b 183 878 186 911 183 894 b 186 821 183 858 186 838 b 104 876 163 838 133 871 b 99 878 103 876 100 878 b 69 849 82 878 69 864 b 72 836 69 844 69 840 b 171 754 89 803 143 778 b 78 649 135 736 96 685 b 74 632 75 643 74 638 b 101 603 74 617 83 603 b 108 604 103 603 106 604 b 183 688 138 610 164 667 b 219 708 192 696 206 711 b 289 622 253 703 260 638 b 304 619 293 619 300 619 b 333 647 319 619 333 631 b 332 654 333 650 332 651 b 265 757 322 690 286 726 b 368 851 294 772 356 821 b 369 863 369 856 369 858 b 340 890 369 878 357 890 b 332 889 338 890 335 890 b 289 857 315 885 301 868 b 247 818 275 844 261 832 b 251 889 247 835 251 864 b 242 932 251 907 249 924 b 222 942 236 939 229 942 z "},"+":{"ha":539,"x_min":0,"x_max":0,"o":"m 303 679 b 293 682 300 681 296 682 b 265 657 279 682 268 668 b 251 506 256 608 258 556 b 138 511 217 506 175 511 b 94 508 122 511 108 511 b 69 479 79 506 69 493 b 81 457 69 471 74 463 b 115 449 90 450 103 449 l 135 449 b 200 450 156 449 178 450 b 249 446 217 450 233 450 b 236 335 242 415 236 371 b 238 307 236 325 236 315 b 265 279 239 292 251 279 b 276 282 268 279 272 281 b 297 325 294 289 296 308 b 307 449 300 367 307 407 l 357 449 b 446 457 388 449 418 450 b 471 486 461 461 471 472 b 463 506 471 493 468 500 b 440 514 456 513 449 514 b 418 513 433 514 425 513 b 313 510 383 510 349 510 b 321 633 313 551 321 592 b 322 640 321 636 322 638 b 303 679 322 656 319 672 z "},",":{"ha":238,"x_min":0,"x_max":0,"o":"m 165 64 b 122 110 160 83 147 110 b 72 51 93 110 72 79 b 97 10 72 35 79 18 b 72 -39 92 -8 81 -22 b 69 -53 69 -44 69 -49 b 99 -82 69 -69 83 -82 b 118 -75 106 -82 111 -79 b 168 46 143 -56 168 6 b 165 64 168 53 167 58 z "},"-":{"ha":465,"x_min":0,"x_max":0,"o":"m 361 476 b 138 467 288 476 210 475 b 72 446 117 464 82 471 b 69 431 69 440 69 435 b 119 407 69 408 97 407 l 126 407 b 311 415 189 407 249 415 l 343 415 b 385 424 358 415 374 417 b 396 447 393 429 396 439 b 382 472 396 457 392 467 b 361 476 376 475 368 476 z "},".":{"ha":213,"x_min":0,"x_max":0,"o":"m 103 89 b 93 88 99 89 97 89 b 69 50 76 82 69 67 b 108 1 69 26 85 1 b 119 4 113 1 115 3 b 144 40 136 10 144 25 b 104 89 144 64 128 89 z "},"/":{"ha":521,"x_min":0,"x_max":0,"o":"m 429 951 b 385 917 401 951 394 936 b 329 785 367 872 347 829 b 93 213 251 594 168 404 b 33 57 72 161 53 108 b 28 29 31 49 28 39 b 49 3 28 17 32 7 b 58 1 53 1 56 1 b 96 43 82 1 90 26 b 157 199 114 96 136 147 l 392 771 b 449 906 410 815 432 860 b 453 924 450 911 453 918 b 429 951 453 936 447 949 z "},":":{"ha":213,"x_min":0,"x_max":0,"o":"m 103 426 b 93 425 99 426 97 426 b 69 388 76 419 69 404 b 108 339 69 364 85 339 b 119 342 113 339 115 340 b 144 378 136 347 144 363 b 104 426 144 401 128 426 z m 103 89 b 93 88 99 89 97 89 b 69 50 76 82 69 67 b 108 1 69 26 85 1 b 119 4 113 1 115 3 b 144 40 136 10 144 25 b 104 89 144 64 128 89 z "},";":{"ha":238,"x_min":0,"x_max":0,"o":"m 103 426 b 93 425 99 426 97 426 b 69 388 76 419 69 404 b 108 339 69 364 85 339 b 119 342 113 339 115 340 b 144 378 136 347 144 363 b 104 426 144 401 128 426 z m 165 64 b 122 110 160 83 147 110 b 72 51 93 110 72 79 b 97 10 72 35 79 18 b 72 -39 92 -8 81 -22 b 69 -53 69 -44 69 -49 b 99 -82 69 -69 83 -82 b 118 -75 106 -82 111 -79 b 168 46 143 -56 168 6 b 165 64 168 53 167 58 z "},"<":{"ha":472,"x_min":0,"x_max":0,"o":"m 361 742 b 358 740 360 742 360 740 b 286 694 333 738 306 708 b 111 564 228 653 167 611 b 69 500 93 549 69 526 b 71 490 69 497 71 493 b 129 435 76 461 104 446 b 301 364 185 408 243 386 b 369 343 321 357 347 343 b 376 344 372 343 374 344 b 403 374 392 347 403 360 b 394 393 403 381 400 388 b 319 421 379 408 340 413 b 247 450 294 431 271 440 b 132 500 208 465 169 483 b 250 593 164 538 210 565 b 317 642 272 608 294 626 b 386 696 338 656 375 674 b 389 711 389 700 389 706 b 361 742 389 726 378 742 z "},"=":{"ha":479,"x_min":0,"x_max":0,"o":"m 388 557 b 275 565 354 563 314 565 b 156 558 233 565 193 558 b 125 560 146 558 135 560 b 86 551 111 560 97 558 b 71 524 76 546 71 535 b 83 501 71 515 75 507 b 107 496 89 497 97 496 b 158 500 125 496 146 500 b 276 504 197 500 238 504 b 300 503 285 504 292 503 b 361 497 318 501 340 497 b 390 503 372 497 382 500 b 410 531 403 508 410 519 b 388 557 410 543 403 554 z m 328 454 b 251 447 300 454 271 450 b 199 444 235 444 217 444 b 128 446 175 444 151 446 l 110 446 b 78 436 97 446 86 444 b 69 417 72 429 69 422 b 110 386 69 399 90 386 b 279 389 165 386 224 389 b 331 388 296 389 313 388 b 382 393 349 388 367 389 b 401 419 396 397 401 407 b 385 446 401 431 396 442 b 329 453 371 451 350 453 z "},">":{"ha":475,"x_min":0,"x_max":0,"o":"m 117 690 b 90 663 100 690 90 676 b 94 646 90 657 90 651 b 160 607 107 628 140 617 b 222 575 181 596 201 586 b 322 526 256 558 289 540 b 207 467 288 501 246 483 b 142 435 185 457 164 444 b 76 400 122 425 90 418 b 69 382 72 394 69 388 b 100 353 69 367 83 353 l 101 353 b 181 388 128 354 157 376 b 347 469 236 415 292 442 b 406 524 369 481 406 493 b 347 581 406 554 369 569 l 186 661 b 118 690 167 671 142 690 z "},"?":{"ha":433,"x_min":0,"x_max":0,"o":"m 365 835 b 293 928 365 889 350 928 l 288 928 b 88 736 196 917 111 821 b 85 718 86 731 85 725 b 110 672 85 697 92 672 b 129 681 115 672 121 675 b 149 729 143 690 143 714 b 203 811 161 760 179 788 b 272 863 222 832 246 851 b 306 857 285 868 299 872 b 310 831 308 849 310 840 b 268 700 310 788 282 732 b 93 321 214 572 138 453 b 69 203 79 281 69 244 l 69 192 b 103 146 71 171 78 146 b 129 167 117 146 126 154 b 131 179 131 171 131 175 b 128 215 131 192 128 203 b 158 325 128 254 144 292 b 358 775 219 476 318 615 b 365 835 363 792 365 814 z m 117 101 b 106 99 113 101 110 100 b 81 40 89 93 81 65 b 110 -8 81 15 89 -8 b 124 -6 114 -8 118 -7 b 146 50 138 0 146 25 b 117 101 146 76 136 101 z "},"@":{"ha":888,"x_min":0,"x_max":0,"o":"m 486 756 b 229 658 390 756 299 714 b 0 210 100 554 0 379 b 71 -14 0 132 21 54 b 354 -139 136 -106 243 -139 b 635 -74 453 -139 556 -112 b 786 22 688 -47 743 -19 b 818 75 800 35 818 54 b 817 86 818 79 818 82 b 789 104 813 97 801 104 b 774 101 783 104 778 104 b 746 68 761 94 756 78 b 686 22 728 50 707 36 b 358 -81 597 -36 475 -81 b 211 -51 307 -81 256 -72 b 58 211 111 -6 58 104 b 63 261 58 228 60 244 b 296 632 86 408 172 547 b 478 694 350 669 413 694 b 535 688 497 694 515 692 b 671 510 617 668 667 593 l 671 494 b 569 219 671 397 631 294 b 468 138 542 186 510 151 b 467 161 467 146 467 153 b 490 283 467 203 479 244 b 506 343 496 301 506 322 b 503 361 506 350 506 356 b 467 389 496 379 476 375 b 429 442 454 407 447 428 b 365 464 408 457 386 464 b 240 392 318 464 271 431 b 196 274 219 364 196 315 b 215 221 196 253 201 235 b 269 199 231 206 250 199 b 363 231 301 199 336 215 b 414 263 371 235 403 263 b 417 261 415 263 415 261 b 421 251 419 260 421 256 b 411 207 421 238 413 214 b 408 168 410 194 408 182 b 472 81 408 124 421 81 l 481 81 b 636 207 544 86 604 158 b 731 501 688 283 731 397 b 629 713 731 585 703 663 b 486 756 585 742 536 756 z m 265 317 b 365 404 282 357 318 404 b 414 357 386 404 414 381 b 411 343 414 353 414 347 b 381 314 406 331 390 322 b 276 258 356 294 313 258 b 269 260 274 258 272 260 b 257 278 260 261 257 268 b 265 317 257 292 263 310 z "},"A":{"ha":794,"x_min":0,"x_max":0,"o":"m 578 901 b 540 883 564 901 550 893 b 468 781 511 854 489 815 b 282 457 403 675 343 565 b 200 313 257 414 236 347 b 154 303 189 303 168 304 b 51 293 119 300 86 297 b 0 263 31 290 0 294 b 36 233 0 243 18 233 l 44 233 b 165 244 85 233 126 239 b 33 -12 113 164 76 74 b 17 -67 28 -24 17 -47 b 38 -90 17 -79 22 -90 b 47 -89 40 -90 43 -90 b 104 -3 78 -83 92 -26 b 188 161 131 51 158 107 b 235 244 201 188 215 221 b 319 261 250 263 297 258 b 553 285 396 268 475 285 b 550 110 553 228 550 168 b 557 -21 550 65 551 22 b 590 -111 560 -44 556 -111 b 599 -110 593 -111 596 -111 b 621 -68 617 -106 621 -87 b 615 -15 621 -49 617 -28 b 610 150 610 39 610 94 l 610 290 b 646 294 622 290 635 289 b 664 322 657 300 664 311 b 651 344 664 331 660 339 b 613 351 640 353 625 351 b 622 758 613 488 622 622 b 624 814 622 772 624 793 b 594 896 624 847 619 882 b 581 901 589 899 586 901 z m 565 817 l 558 553 l 557 454 l 556 378 l 551 347 l 481 338 l 271 315 b 439 617 314 419 383 518 b 565 817 476 682 514 763 z "},"B":{"ha":819,"x_min":0,"x_max":0,"o":"m 307 965 l 304 965 b 288 958 299 965 293 963 b 250 883 264 942 268 904 b 193 846 235 867 211 858 b 100 756 158 821 126 790 b 72 703 89 740 72 724 b 100 671 72 686 85 671 b 114 675 104 671 108 672 b 167 740 135 686 150 722 b 229 799 186 761 208 779 b 108 -39 172 522 108 244 b 25 7 85 -33 51 7 b 6 -3 18 7 11 6 b 0 -19 1 -8 0 -14 b 15 -54 0 -32 7 -46 b 118 -104 42 -83 81 -97 b 208 -112 147 -110 178 -112 b 472 -39 301 -112 396 -87 b 658 261 563 18 658 146 b 586 407 658 314 638 367 b 519 443 565 422 543 435 b 396 460 479 457 438 460 b 589 786 482 546 571 663 b 592 819 590 797 592 808 b 589 847 592 829 590 838 b 454 943 578 919 518 943 b 329 917 410 943 363 932 b 332 931 331 921 332 925 b 307 965 332 949 322 965 z m 461 886 b 525 856 489 886 513 878 b 533 817 532 844 533 831 b 503 711 533 781 515 740 b 344 490 467 628 408 553 b 211 408 306 451 265 418 b 254 638 225 485 239 561 b 286 781 264 685 275 733 b 304 839 290 799 292 825 b 351 863 314 851 338 857 b 456 886 376 871 418 885 z m 419 401 b 564 347 475 401 529 386 b 597 254 588 321 597 288 b 575 164 597 222 589 192 b 339 -33 526 65 443 0 b 211 -54 300 -46 253 -54 b 190 -56 206 -54 199 -56 b 169 -49 182 -56 174 -54 b 167 -18 164 -42 167 -26 b 172 67 168 10 169 39 b 188 242 179 125 181 183 b 203 357 192 279 201 318 b 233 347 214 350 224 347 b 318 386 263 347 285 375 b 414 401 346 396 381 401 z "},"C":{"ha":713,"x_min":0,"x_max":0,"o":"m 553 885 l 544 885 b 276 738 440 874 349 810 b 10 251 147 608 42 433 b 0 140 4 217 0 178 b 169 -114 0 24 38 -93 b 204 -115 181 -115 193 -115 b 264 -111 224 -115 244 -114 b 657 110 404 -89 551 22 b 736 182 685 132 713 156 b 751 213 744 190 751 201 b 750 221 751 215 751 218 b 724 240 746 233 735 240 b 704 235 718 240 710 239 b 601 143 668 210 636 172 b 267 -49 508 67 386 -19 b 208 -57 247 -53 228 -57 b 99 -12 167 -57 126 -46 b 57 133 67 25 57 81 b 64 218 57 163 60 193 b 339 714 96 404 200 588 b 547 825 392 763 471 825 b 599 771 579 825 599 801 b 556 632 599 722 579 672 b 526 593 547 618 535 607 b 522 576 524 588 522 582 b 549 547 522 563 532 549 l 550 547 b 619 626 586 547 607 600 b 657 772 638 663 657 721 b 585 881 657 822 639 867 b 553 885 575 883 564 885 z "},"D":{"ha":807,"x_min":0,"x_max":0,"o":"m 301 919 b 288 915 297 919 292 918 b 260 871 269 906 275 883 b 129 778 218 838 163 825 b 121 751 124 769 121 760 b 146 722 121 736 129 722 b 157 724 149 722 153 722 b 196 760 174 728 183 749 b 251 799 213 774 233 786 l 215 572 l 165 193 l 144 -33 b 110 -35 133 -33 122 -35 b 72 -28 97 -35 83 -33 b 33 1 57 -21 51 -1 b 28 3 32 1 29 3 b 0 -28 13 3 0 -10 b 49 -82 0 -54 26 -74 b 113 -94 69 -90 90 -94 b 218 -75 149 -94 185 -86 b 622 269 393 -17 531 111 b 672 369 640 301 657 335 b 729 633 704 443 729 542 b 556 906 729 754 685 865 b 476 917 531 914 503 917 l 453 917 b 329 894 411 914 369 910 b 301 919 325 907 314 919 z m 463 858 l 471 858 b 643 765 540 857 607 833 b 671 633 664 725 671 679 b 665 553 671 606 669 579 b 381 78 640 375 526 183 b 206 -15 332 43 267 -6 b 244 354 206 107 231 232 b 281 608 254 439 267 524 l 306 763 b 319 828 308 781 307 813 b 401 853 333 846 379 849 b 463 858 421 856 442 858 z "},"E":{"ha":739,"x_min":0,"x_max":0,"o":"m 457 881 b 394 869 436 881 414 876 b 154 660 296 836 201 753 b 136 589 142 636 136 611 b 232 479 136 538 168 494 b 322 472 261 472 292 472 b 129 306 254 424 185 368 b 33 175 93 264 61 222 b 0 58 14 140 0 99 b 63 -61 0 11 18 -32 b 181 -96 97 -83 140 -93 b 204 -97 189 -96 196 -97 b 651 97 364 -97 528 7 b 746 168 683 121 715 143 b 778 211 758 179 778 190 b 747 239 778 228 763 239 b 736 238 743 239 740 239 b 636 161 701 225 667 183 b 246 -33 522 78 389 -14 b 193 -37 229 -36 211 -37 b 76 7 149 -37 103 -26 b 58 61 63 24 58 43 b 90 154 58 93 74 125 b 343 413 150 258 249 342 b 447 499 372 433 438 463 b 450 511 449 503 450 507 b 408 542 450 533 429 542 b 397 540 404 542 400 540 b 301 532 365 536 333 532 b 246 538 283 532 264 533 b 194 572 226 542 203 551 b 192 586 193 576 192 581 b 228 665 192 614 214 646 b 389 801 268 724 325 771 b 456 822 408 810 433 822 b 471 821 461 822 467 822 b 492 794 490 815 492 806 l 492 776 b 499 753 492 768 493 760 b 518 744 504 746 511 744 b 547 763 529 744 542 751 b 556 796 553 774 556 785 b 500 874 556 829 532 863 b 460 881 486 878 474 881 z "},"F":{"ha":708,"x_min":0,"x_max":0,"o":"m 318 949 l 315 949 b 267 903 286 946 289 911 b 86 878 213 882 143 901 b 64 847 72 872 64 860 b 86 821 64 836 71 825 b 97 819 89 819 93 819 b 167 835 119 819 147 832 b 251 840 194 838 224 840 b 160 529 228 736 189 633 b 107 336 143 467 133 394 b 67 319 100 322 85 319 b 43 321 58 319 51 321 b 0 290 21 321 0 318 b 43 260 0 267 21 260 b 89 264 60 260 78 264 b 19 -60 65 182 32 25 l 19 -68 b 46 -119 19 -89 28 -119 b 67 -108 51 -119 58 -117 b 83 -39 81 -93 79 -58 b 133 197 94 15 119 143 b 154 264 138 215 140 251 b 197 274 163 271 179 274 b 236 272 211 274 225 272 l 243 272 b 433 285 306 276 369 283 l 435 285 b 475 283 444 285 461 283 b 526 293 496 283 515 286 b 542 315 536 300 542 307 b 504 347 542 332 524 347 b 322 336 443 347 383 339 b 168 326 272 333 218 336 b 271 699 194 451 235 575 b 303 801 281 733 292 767 b 319 842 307 814 310 833 b 358 847 329 850 347 847 b 443 850 386 849 415 849 b 668 861 526 854 593 851 b 685 888 679 863 685 875 b 668 913 685 900 679 911 b 604 915 647 914 626 915 b 349 908 528 915 446 908 b 319 949 349 929 343 949 z "},"G":{"ha":854,"x_min":0,"x_max":0,"o":"m 499 886 b 217 707 388 885 281 785 b 3 224 106 571 21 400 b 0 182 1 210 0 196 b 88 8 0 113 19 38 b 151 -4 108 0 129 -4 b 278 28 194 -4 239 11 b 653 308 417 88 547 203 b 626 190 643 269 636 229 b 608 140 622 175 619 153 b 507 82 586 114 536 100 b 203 -294 403 19 203 -149 b 204 -312 203 -300 203 -307 b 289 -382 210 -364 247 -382 b 389 -350 325 -382 364 -368 b 611 -33 472 -292 571 -125 b 663 96 628 4 636 65 b 867 188 701 129 785 151 b 889 221 881 193 889 208 b 886 233 889 225 888 231 b 867 239 883 239 875 239 b 832 232 856 239 842 236 b 683 179 806 221 704 188 b 717 349 703 229 717 294 b 682 403 717 374 710 403 b 674 401 679 403 676 401 b 628 369 656 399 640 382 b 556 301 604 346 581 324 b 265 89 465 224 372 143 b 150 54 235 74 190 54 b 79 90 122 54 96 64 b 57 185 63 117 57 151 b 72 293 57 224 64 261 b 314 722 111 453 197 607 b 501 826 356 764 433 826 b 575 789 529 826 554 815 b 628 639 607 749 628 690 b 622 575 628 619 622 596 b 624 560 622 569 622 565 b 651 539 628 546 639 539 b 672 549 660 539 667 542 b 688 608 685 563 688 586 b 686 647 688 622 688 636 b 553 879 681 732 644 851 b 499 886 533 883 518 886 z m 583 54 b 379 -283 551 -40 457 -218 b 296 -326 361 -299 325 -326 b 271 -317 286 -326 278 -324 b 260 -290 263 -310 260 -301 b 296 -207 260 -261 283 -225 b 504 11 338 -146 443 -28 b 583 54 529 26 556 46 z "},"H":{"ha":1032,"x_min":0,"x_max":0,"o":"m 897 932 b 874 919 888 932 879 928 b 850 814 857 892 856 844 b 761 314 821 650 774 481 b 622 326 715 322 668 326 b 343 314 529 326 435 314 b 439 789 364 474 419 628 b 440 811 440 796 440 803 b 375 915 440 860 422 915 b 346 908 367 915 357 913 b 219 807 294 889 256 846 b 53 601 160 742 104 674 b 1 508 33 575 8 542 b 0 500 1 506 0 503 b 26 467 0 485 10 469 b 54 478 38 465 47 469 b 110 578 75 507 88 547 b 276 781 160 649 215 719 b 376 856 306 810 338 842 b 379 803 379 838 379 821 b 318 475 379 693 342 579 b 282 318 307 429 306 360 b 243 307 275 306 256 308 b 135 293 207 303 171 300 b 106 263 119 290 106 279 b 135 233 106 246 119 233 l 143 233 b 268 251 182 233 231 244 b 235 -14 258 179 244 60 b 228 -60 233 -26 228 -44 b 243 -93 228 -74 232 -86 b 258 -100 249 -97 254 -100 b 290 -54 278 -100 288 -72 b 328 254 300 32 324 168 b 568 264 408 261 489 264 b 751 257 629 264 690 261 b 732 -21 738 182 733 56 l 732 -40 b 754 -87 732 -62 735 -87 b 771 -83 758 -87 764 -87 b 789 -36 788 -75 789 -54 l 789 -25 b 800 182 789 28 793 129 b 890 711 825 360 857 536 b 918 856 900 760 908 807 b 926 901 921 868 926 886 b 925 917 926 907 926 913 b 897 932 921 928 908 932 z m 321 675 b 318 676 321 675 318 676 b 321 675 318 676 321 675 z "},"I":{"ha":574,"x_min":0,"x_max":0,"o":"m 388 947 b 288 888 350 947 311 911 b 53 575 197 796 117 686 b 3 472 33 542 15 508 b 0 456 1 467 0 461 b 17 429 0 444 4 435 b 51 436 28 425 43 426 b 106 544 75 464 88 513 b 282 792 156 632 218 714 b 389 889 311 828 344 869 b 392 832 392 869 392 851 b 363 608 392 757 376 682 b 267 133 333 450 299 292 b 240 -42 256 75 247 17 b 239 -65 239 -49 239 -57 b 264 -99 239 -82 243 -97 l 267 -99 b 299 -49 293 -99 296 -69 b 326 133 307 13 314 74 b 442 726 365 331 413 526 b 456 842 446 756 456 800 b 421 936 456 881 447 917 b 388 947 410 944 399 947 z "},"J":{"ha":686,"x_min":0,"x_max":0,"o":"m 519 919 b 433 900 488 919 460 911 b 110 604 301 843 189 721 b 31 447 83 565 31 499 b 32 439 31 444 32 442 b 63 411 35 422 49 411 b 85 424 71 411 79 415 b 99 463 92 435 93 450 b 140 542 111 490 125 517 b 375 797 201 639 283 729 b 513 861 407 821 464 861 b 547 851 525 861 536 858 b 588 781 572 836 582 807 b 593 724 592 763 593 743 b 575 586 593 678 585 631 b 508 357 561 501 535 439 b 408 138 475 276 443 200 b 311 81 408 138 339 97 b 0 -299 207 18 0 -153 b 1 -315 0 -304 0 -310 b 85 -385 7 -367 43 -385 b 185 -354 121 -385 160 -372 b 414 -33 268 -296 374 -125 b 467 96 431 4 467 96 b 701 189 506 129 619 153 b 724 224 715 194 724 211 b 721 235 724 228 722 232 b 704 240 718 239 711 240 b 667 233 692 240 678 238 b 489 172 640 224 515 182 b 614 496 538 282 579 383 b 650 686 633 558 643 622 b 651 726 651 699 651 713 b 519 919 651 817 619 919 z m 386 54 b 176 -286 354 -40 254 -221 b 93 -329 158 -301 122 -329 b 68 -321 83 -329 75 -328 b 57 -293 60 -314 57 -304 b 92 -210 57 -264 79 -228 b 308 10 133 -149 247 -29 b 386 54 333 25 358 46 z "},"K":{"ha":772,"x_min":0,"x_max":0,"o":"m 826 908 b 797 936 826 928 813 936 b 774 929 789 936 781 933 b 674 814 735 901 703 851 b 400 447 579 694 489 571 b 281 272 361 393 304 335 l 278 272 b 385 768 310 438 358 601 b 390 828 388 783 390 806 b 344 907 390 868 381 907 b 319 903 338 907 329 906 b 219 817 279 889 246 849 b 50 593 158 746 101 671 b 0 493 39 576 0 525 b 21 467 0 481 6 471 l 28 467 b 100 560 61 467 85 536 b 228 732 140 619 183 676 b 332 840 258 771 290 813 b 286 583 332 754 306 667 b 197 167 254 444 221 307 b 178 -8 188 108 178 50 l 178 -29 b 189 -71 178 -44 179 -61 b 208 -79 194 -76 201 -79 b 238 -57 221 -79 235 -71 b 240 -28 240 -47 240 -37 b 239 22 240 -11 239 6 l 239 31 b 254 146 240 69 250 108 b 586 -67 358 67 463 -17 b 685 -93 615 -78 651 -93 l 694 -93 b 722 -64 710 -92 722 -78 b 717 -49 722 -58 721 -54 b 614 -12 701 -26 639 -22 b 371 128 529 19 444 75 b 301 193 354 140 301 168 b 328 239 301 208 321 228 b 414 363 356 281 385 322 b 706 756 508 494 604 628 b 789 858 733 790 760 825 b 826 908 801 872 826 885 z "},"L":{"ha":603,"x_min":0,"x_max":0,"o":"m 471 910 b 425 874 450 910 435 890 b 357 717 394 826 376 769 b 203 306 306 579 257 442 b 124 128 182 251 161 172 b 54 93 110 111 74 108 b 0 -6 32 75 0 31 b 18 -44 0 -21 6 -33 b 46 -56 28 -53 36 -56 b 136 25 83 -56 119 -1 b 168 57 146 40 151 57 b 181 54 172 57 176 56 b 389 -82 258 25 322 -33 b 703 -233 485 -153 583 -214 b 804 -244 729 -237 767 -244 b 907 -206 846 -244 888 -236 b 911 -189 910 -200 911 -194 b 883 -160 911 -174 900 -160 b 879 -161 882 -160 881 -161 b 815 -183 857 -164 839 -181 b 783 -185 806 -185 794 -185 b 586 -136 717 -185 643 -162 b 335 35 494 -92 417 -24 b 183 115 289 68 239 103 b 267 306 218 175 242 242 b 422 719 321 443 369 582 b 465 825 436 754 447 792 b 499 871 474 842 492 854 b 500 881 500 874 500 878 b 479 908 500 893 492 906 b 471 910 476 910 474 910 z "},"M":{"ha":1250,"x_min":0,"x_max":0,"o":"m 347 932 b 257 892 314 932 282 910 b 53 671 176 832 108 754 b 0 564 39 649 0 600 b 10 539 0 554 3 546 b 32 529 15 533 24 529 b 57 544 42 529 51 535 b 75 593 65 560 67 578 b 250 810 119 672 182 750 b 324 864 272 829 297 850 b 354 864 333 869 347 876 b 361 835 358 856 361 846 b 357 799 361 822 358 810 b 333 660 351 751 344 706 b 163 121 288 478 221 300 b 117 -49 144 65 126 8 b 115 -65 115 -54 115 -60 b 142 -100 115 -83 121 -100 b 147 -99 143 -100 144 -99 b 188 -33 175 -94 181 -54 b 267 169 211 36 238 103 b 517 619 335 325 422 478 b 700 843 569 699 683 843 l 701 843 b 704 807 703 832 704 819 b 672 614 704 743 683 674 b 597 206 647 478 625 342 b 574 50 588 156 574 103 b 599 1 574 31 576 7 b 607 1 601 0 604 1 b 647 39 628 1 640 21 b 714 203 671 93 693 149 b 908 644 772 353 836 500 b 1049 856 943 715 986 806 b 993 436 1049 714 1018 575 b 953 146 975 340 965 243 b 946 -21 946 90 946 35 b 974 -75 946 -42 946 -72 l 976 -75 b 1006 -44 994 -75 1004 -62 b 1013 142 1010 17 1010 79 b 1096 693 1022 326 1069 510 b 1106 835 1103 740 1106 786 l 1106 844 b 1090 904 1106 865 1104 888 b 1056 921 1081 915 1068 921 b 1015 907 1042 921 1028 915 b 926 799 978 881 950 838 b 751 450 858 689 804 568 b 668 244 722 385 685 314 l 665 244 b 747 701 685 397 722 549 b 764 819 753 735 764 779 b 746 889 764 846 758 869 b 711 908 736 903 724 908 b 594 829 669 908 615 851 b 404 553 519 747 461 647 b 326 414 378 510 342 463 l 326 419 b 361 539 326 458 350 504 b 417 789 385 621 408 704 b 419 833 418 801 419 818 b 375 928 419 872 411 914 b 347 932 367 931 357 932 z "},"N":{"ha":983,"x_min":0,"x_max":0,"o":"m 374 958 b 274 901 336 958 299 925 b 58 635 193 822 121 728 b 0 521 43 613 0 558 b 7 500 0 513 3 506 b 28 486 14 490 21 486 b 78 550 51 486 68 533 b 274 814 132 644 201 732 b 343 881 294 838 318 861 b 375 889 350 886 368 903 b 378 865 378 883 378 874 b 374 822 378 850 375 833 b 347 675 367 772 358 724 b 219 131 306 493 258 313 b 188 -49 207 71 196 11 b 185 -69 186 -56 185 -61 b 207 -107 185 -86 189 -103 b 215 -108 210 -108 213 -108 b 251 -75 233 -108 244 -92 b 303 72 271 -26 285 24 b 593 671 381 279 478 482 b 708 822 626 725 663 779 b 756 856 717 831 740 856 b 763 853 758 856 761 854 b 775 804 775 844 775 818 l 775 776 b 769 668 775 740 774 704 b 682 115 747 482 703 301 b 664 -51 676 60 671 4 l 664 -64 b 690 -103 664 -82 668 -101 l 693 -103 b 724 -54 719 -103 722 -76 b 743 128 726 7 735 68 b 807 501 761 253 788 376 b 832 714 818 571 832 643 b 836 799 832 738 836 768 b 796 907 836 842 829 885 b 760 918 785 915 772 918 b 611 804 701 918 640 842 b 378 399 515 685 442 538 b 310 244 356 349 322 297 b 347 418 310 304 335 365 b 426 771 376 535 407 651 b 438 867 431 794 438 832 b 394 956 438 906 429 943 b 374 958 388 958 381 958 z "},"O":{"ha":840,"x_min":0,"x_max":0,"o":"m 399 906 b 363 903 388 906 375 904 b 0 360 121 868 0 578 b 11 267 0 329 3 296 b 26 228 15 253 25 242 b 193 -97 36 104 35 -68 b 239 -103 208 -100 224 -103 b 260 -101 246 -103 253 -103 b 493 28 351 -90 429 -36 b 690 526 622 157 690 344 b 689 575 690 543 690 558 b 401 906 678 738 572 906 b 399 907 400 906 400 907 z m 401 847 l 408 847 b 435 844 418 847 425 846 b 535 797 472 839 508 825 b 635 524 607 724 635 625 b 485 107 635 372 571 213 b 238 -47 433 44 332 -47 b 169 -28 214 -47 192 -40 b 90 122 117 3 100 65 b 83 201 86 149 83 175 b 150 514 83 308 114 417 b 231 647 169 567 197 603 b 229 683 239 658 239 674 b 208 692 222 690 215 692 b 160 657 189 692 171 671 b 75 475 121 606 90 538 b 74 492 74 479 74 486 b 113 611 74 529 100 583 b 401 847 161 729 268 846 z m 10 521 b 13 524 10 521 13 524 b 10 521 13 524 10 521 z "},"P":{"ha":646,"x_min":0,"x_max":0,"o":"m 594 925 b 492 950 563 942 528 950 b 268 890 415 950 335 918 b 260 908 265 896 264 903 b 239 921 251 918 246 921 b 186 846 214 921 199 858 b 18 708 135 796 65 765 b 0 656 10 697 0 674 b 18 632 0 642 4 632 b 35 636 22 632 28 633 b 99 704 57 644 79 688 b 171 764 122 725 146 744 b 83 268 138 600 111 433 b 69 183 79 243 81 207 b 36 164 64 171 46 174 b 29 146 31 158 29 151 b 63 114 29 131 46 117 b 49 -46 60 61 49 7 b 51 -81 49 -57 50 -69 b 81 -107 53 -97 67 -107 b 106 -92 90 -107 100 -101 b 108 -69 110 -85 108 -78 l 108 -49 b 118 76 108 -7 113 35 b 131 129 119 92 118 118 b 181 151 143 140 165 144 b 281 206 215 168 249 185 b 606 539 414 292 529 397 b 674 775 638 597 674 692 b 594 925 674 838 654 893 z m 482 892 l 490 892 b 596 844 535 892 574 879 b 615 765 610 822 615 794 b 574 606 615 710 594 647 b 274 272 506 467 401 358 b 132 199 232 244 182 207 b 190 551 154 315 171 433 b 224 731 200 611 211 671 b 243 807 228 753 229 789 b 314 846 256 825 294 836 b 482 892 354 865 421 889 z "},"Q":{"ha":910,"x_min":0,"x_max":0,"o":"m 519 900 b 257 775 419 900 325 840 b 64 440 165 686 90 565 b 57 386 60 424 57 404 b 58 374 57 382 58 378 b 64 338 60 363 67 349 b 22 268 58 315 32 290 b 0 160 7 235 0 197 b 7 99 0 139 3 118 b 269 -108 33 -29 149 -108 b 365 -92 301 -108 333 -104 b 450 -44 394 -81 429 -68 b 821 -190 550 -136 693 -190 b 936 -164 860 -190 903 -183 b 960 -131 949 -157 960 -144 b 957 -118 960 -126 960 -122 b 936 -106 951 -108 944 -106 b 831 -131 913 -106 878 -131 b 499 -7 707 -125 582 -93 b 726 551 640 135 726 347 b 721 633 726 579 724 607 b 682 785 715 685 706 738 b 640 844 671 807 657 826 b 519 900 604 882 563 899 z m 510 839 b 625 767 554 839 596 818 b 653 690 638 743 647 717 b 667 557 663 647 667 603 b 588 219 667 440 638 321 b 500 81 563 169 536 124 b 457 36 492 69 457 36 b 432 68 457 36 438 60 b 371 158 410 97 390 128 b 181 371 324 233 275 347 b 158 374 174 372 165 374 b 118 369 144 374 132 371 b 201 613 118 458 154 539 b 324 757 235 665 276 715 b 510 839 374 801 440 839 z m 90 271 b 163 315 107 297 126 315 b 226 274 189 313 210 292 b 322 128 264 231 292 176 b 414 -1 349 86 386 40 b 293 -49 375 -19 336 -43 b 267 -51 285 -50 275 -51 b 67 99 176 -51 92 10 b 58 158 61 118 58 138 b 90 271 58 199 69 239 z "},"R":{"ha":751,"x_min":0,"x_max":0,"o":"m 425 911 b 224 863 347 911 288 889 b 225 871 224 865 225 868 b 197 910 225 889 214 910 b 179 903 192 910 186 907 b 144 825 156 885 164 846 b 13 713 104 782 47 764 b 0 678 6 703 0 690 b 3 664 0 674 1 668 b 29 647 7 653 18 647 b 51 658 38 647 46 651 b 128 739 75 689 96 715 b 39 307 100 594 63 451 b 17 104 28 242 26 171 b 3 -56 10 51 3 -1 b 28 -100 3 -74 6 -96 b 35 -101 31 -100 32 -101 b 64 -37 64 -101 64 -60 b 90 210 64 44 75 129 b 188 185 117 190 153 185 b 251 192 210 185 232 188 b 363 68 275 147 326 104 b 665 -174 456 -25 551 -107 b 799 -222 704 -196 753 -222 l 800 -222 b 846 -193 819 -222 846 -218 b 822 -162 846 -178 836 -165 b 683 -115 769 -153 731 -143 b 311 213 544 -32 410 83 b 439 290 357 221 404 261 b 647 690 554 388 638 539 l 647 708 b 425 911 647 836 544 910 z m 439 854 b 557 803 485 854 528 842 b 588 701 579 774 588 738 b 581 639 588 681 585 660 b 403 338 558 522 490 417 b 278 261 371 308 321 269 b 226 297 256 261 240 285 b 115 364 197 325 157 360 b 160 610 122 446 143 529 b 188 736 168 653 176 694 b 203 786 192 751 193 775 b 288 825 219 806 264 817 b 439 854 331 840 385 854 z m 106 301 b 133 297 114 310 125 303 b 197 243 156 282 182 265 b 115 264 168 243 139 246 b 106 301 104 272 96 288 z "},"S":{"ha":767,"x_min":0,"x_max":0,"o":"m 510 815 b 374 878 479 860 428 878 b 351 876 367 878 358 878 b 190 825 294 869 240 856 b 100 749 156 804 125 781 b 64 688 85 731 74 710 b 50 622 54 665 50 643 b 131 475 50 565 82 515 b 436 276 224 396 339 350 b 547 122 482 242 547 186 b 546 107 547 117 547 113 b 460 -10 538 57 501 17 b 283 -58 407 -44 346 -58 b 142 -37 236 -58 186 -50 b 72 -6 117 -31 93 -21 b 31 24 58 6 49 24 b 18 21 26 24 22 22 b 0 -1 4 15 0 7 b 67 -72 0 -28 51 -64 b 281 -118 128 -103 208 -118 b 333 -115 299 -118 317 -117 b 478 -68 385 -110 432 -92 b 556 -7 507 -53 535 -32 b 604 115 589 32 604 74 b 544 258 604 165 582 215 b 231 476 461 356 336 408 b 108 619 183 507 108 553 b 160 724 108 660 133 696 b 365 821 208 774 289 821 b 426 808 386 821 407 817 b 469 760 447 800 463 781 b 500 710 476 740 476 710 b 511 713 503 710 507 711 b 533 746 528 717 533 731 b 510 815 533 771 519 801 z "},"T":{"ha":461,"x_min":0,"x_max":0,"o":"m 579 925 b 386 915 489 918 453 915 b 357 915 376 917 365 915 b 271 908 325 915 300 911 b 226 910 254 908 240 910 b 56 901 156 910 118 901 l 42 901 b 3 883 26 901 10 900 b 0 869 1 878 0 874 b 49 844 0 847 29 844 b 278 851 156 850 171 851 b 213 603 244 775 231 683 b 119 104 175 438 142 272 b 108 -78 111 43 108 -17 l 108 -83 b 135 -132 108 -104 110 -132 b 142 -131 136 -132 139 -131 b 165 -90 164 -128 165 -108 l 165 -74 b 178 104 165 -14 169 44 b 281 636 201 283 239 461 b 338 854 297 708 326 782 b 607 867 465 858 488 854 b 631 894 622 868 631 881 b 618 918 631 903 626 913 b 579 925 607 925 592 924 z "},"U":{"ha":1038,"x_min":0,"x_max":0,"o":"m 925 908 b 888 867 906 908 894 883 b 810 675 864 803 839 736 b 518 138 724 490 638 304 b 344 -18 479 83 418 -10 l 339 -18 b 286 29 313 -18 294 7 b 271 140 272 64 271 101 l 271 194 b 357 706 275 365 325 539 b 375 825 363 735 375 782 b 353 894 375 854 369 879 b 322 907 343 903 333 907 b 215 826 281 907 236 851 b 44 572 153 747 93 661 b 0 471 29 546 0 503 b 31 440 0 451 15 440 b 51 450 39 440 46 443 b 71 494 61 461 65 481 b 113 569 82 521 97 544 b 182 679 135 607 158 643 b 314 842 221 736 261 796 b 282 624 314 769 296 694 b 217 240 257 497 226 369 b 211 135 214 206 211 169 b 233 1 211 89 217 44 b 258 -40 239 -14 249 -28 b 333 -78 281 -67 307 -78 b 479 -4 386 -78 442 -37 b 717 346 582 88 653 226 b 797 510 744 397 781 454 l 797 501 b 781 418 797 475 786 444 b 743 225 768 354 754 290 b 710 -44 728 136 710 46 b 736 -121 710 -64 710 -121 b 757 -111 742 -121 749 -118 b 769 -83 767 -104 769 -94 b 767 -51 769 -72 767 -62 b 781 86 767 -6 774 42 b 896 649 808 276 850 463 b 947 839 911 713 929 775 b 954 876 950 850 954 864 b 939 904 954 888 950 899 b 925 908 933 907 929 908 z "},"V":{"ha":861,"x_min":0,"x_max":0,"o":"m 318 949 b 239 903 289 949 258 922 b 38 633 163 826 89 729 b 0 539 29 617 0 571 b 21 511 0 525 6 515 b 28 510 24 510 25 510 b 94 610 64 510 81 583 b 228 800 131 678 181 740 b 314 885 253 831 278 867 b 214 147 314 636 217 396 b 213 72 214 124 213 97 b 225 -29 213 38 214 3 b 281 -86 233 -56 251 -82 l 292 -86 b 458 68 367 -86 424 14 b 736 654 572 251 656 454 b 807 836 760 714 786 775 b 821 883 811 850 821 868 b 811 904 821 892 818 899 b 793 913 806 910 800 913 b 763 890 781 913 768 903 b 692 703 736 829 717 764 b 428 135 615 510 535 313 b 338 7 401 90 374 44 b 296 -25 328 -3 311 -25 b 275 29 278 -25 276 17 b 271 118 272 58 271 88 b 276 201 271 146 272 174 b 358 733 300 379 329 556 b 376 856 364 765 376 813 b 351 935 376 886 369 915 b 318 949 342 944 329 949 z "},"W":{"ha":1421,"x_min":0,"x_max":0,"o":"m 438 921 b 428 919 435 921 432 919 b 307 849 382 914 340 878 b 72 594 219 774 143 685 b 4 494 49 564 22 529 b 0 475 1 489 0 482 b 17 449 0 464 4 454 b 54 461 31 443 46 450 b 122 558 78 492 99 526 b 304 764 178 632 239 700 b 440 863 343 803 388 844 b 443 815 442 847 443 831 b 422 642 443 757 431 700 b 358 219 401 500 372 361 b 347 81 354 178 347 128 b 374 -50 347 33 354 -12 b 419 -86 388 -75 403 -86 b 526 17 463 -86 508 -18 b 685 361 585 129 633 246 b 767 554 713 424 749 489 l 769 554 b 739 256 765 454 739 356 l 739 239 b 743 101 739 193 740 147 b 856 -100 747 38 774 -100 b 885 -94 864 -100 875 -99 b 918 -76 897 -90 908 -85 b 988 1 944 -56 967 -26 b 1288 613 1121 183 1204 404 b 1360 824 1315 682 1342 751 b 1371 874 1364 838 1371 857 b 1361 900 1371 883 1368 893 b 1343 907 1356 904 1349 907 b 1315 888 1331 907 1319 900 b 1254 690 1290 824 1279 754 b 993 119 1181 497 1103 296 b 907 -1 967 78 939 36 b 860 -37 896 -14 878 -36 l 858 -37 b 825 1 840 -37 831 -12 b 800 150 806 50 804 100 b 796 242 797 181 796 211 b 853 669 796 385 822 533 b 879 769 860 703 867 738 b 897 800 883 781 894 789 b 885 835 901 813 896 828 b 868 839 879 838 874 839 b 822 808 850 839 832 822 b 744 651 789 760 767 704 b 538 179 676 493 610 335 b 425 -22 508 117 481 21 b 411 111 415 22 411 67 b 428 297 411 172 419 235 b 494 713 447 436 475 574 b 504 817 499 738 504 778 b 438 921 504 871 490 921 z "},"X":{"ha":1085,"x_min":0,"x_max":0,"o":"m 1024 904 b 993 932 1024 921 1010 932 b 982 931 989 932 985 932 b 897 857 950 919 919 882 b 699 606 825 779 760 692 b 622 497 674 571 639 536 l 619 497 b 581 618 613 538 593 578 b 518 826 560 688 540 758 b 444 913 506 864 486 904 b 425 914 438 914 431 914 b 296 844 375 914 329 878 b 64 549 208 757 132 651 b 0 411 43 518 0 457 b 4 388 0 403 1 394 b 32 371 10 376 21 371 b 56 385 42 371 50 375 b 81 461 68 407 68 438 b 311 772 140 571 225 682 b 393 844 336 799 361 826 b 422 854 401 850 413 854 b 435 851 426 854 431 854 b 464 803 451 842 458 819 b 499 682 478 763 486 722 b 554 508 517 624 535 565 b 575 444 560 490 575 464 b 518 351 575 413 535 375 b 386 153 474 286 429 219 b 285 -17 350 97 315 42 b 264 -74 278 -31 264 -54 b 267 -86 264 -78 265 -82 b 293 -103 272 -97 283 -103 b 318 -89 303 -103 313 -99 b 363 -1 336 -62 347 -29 b 467 164 394 56 432 108 l 554 297 b 607 369 571 321 585 350 b 657 246 614 328 640 285 b 789 -19 696 154 738 65 b 847 -108 804 -46 822 -90 b 864 -112 853 -112 858 -112 b 897 -83 879 -112 897 -101 b 876 -47 897 -69 885 -58 b 826 35 858 -21 843 7 b 688 325 772 126 728 226 b 649 424 678 349 649 394 b 721 533 649 461 701 506 b 922 793 785 622 850 711 b 992 864 943 818 967 843 b 1024 904 1004 875 1024 883 z "},"Y":{"ha":969,"x_min":0,"x_max":0,"o":"m 363 917 b 247 842 321 917 271 863 b 43 582 168 767 99 675 b 0 485 29 557 0 517 b 1 474 0 481 0 478 b 29 453 6 460 17 453 b 50 461 38 453 44 454 b 71 506 61 472 64 492 b 114 582 83 532 99 557 b 194 690 139 619 167 656 b 351 851 239 746 289 815 b 313 661 351 786 331 722 b 225 346 283 557 249 451 b 204 218 217 311 204 263 b 226 142 204 189 210 163 b 271 118 240 125 254 118 b 403 204 319 118 375 176 b 432 235 413 214 422 225 b 889 782 597 404 721 614 b 789 385 872 650 826 513 b 700 138 765 296 743 215 b 603 81 700 138 631 97 b 275 -304 499 18 275 -158 l 275 -321 b 360 -390 281 -372 318 -390 b 460 -358 396 -390 435 -376 b 706 -33 543 -300 665 -125 b 758 96 722 4 758 96 b 983 188 797 129 901 151 b 1006 222 997 193 1006 210 b 1003 233 1006 226 1004 231 b 986 240 1000 238 993 240 b 949 233 974 240 960 238 b 785 174 924 224 814 185 l 817 268 b 882 497 842 343 863 419 b 918 642 894 546 907 593 b 950 797 929 692 950 746 b 907 856 950 825 939 854 l 904 856 b 763 726 847 856 793 765 b 419 310 650 586 538 446 b 269 179 383 268 326 189 b 267 217 268 192 267 204 b 294 376 267 271 281 324 b 379 679 319 478 350 579 b 414 835 390 719 414 782 b 400 893 414 857 410 878 b 363 917 390 908 376 917 z m 678 54 b 450 -290 646 -40 528 -225 b 368 -335 432 -306 397 -335 b 342 -325 358 -335 349 -332 b 332 -299 333 -318 332 -310 b 367 -214 332 -269 354 -232 b 600 10 408 -153 539 -29 b 678 54 625 25 650 46 z "},"Z":{"ha":982,"x_min":0,"x_max":0,"o":"m 701 901 b 654 907 688 906 671 907 b 629 906 646 907 638 907 b 164 758 472 890 306 825 b 32 679 118 738 69 713 b 0 629 18 667 0 650 b 29 603 0 613 14 603 b 39 604 32 603 36 603 b 118 665 65 614 92 650 b 540 828 244 743 397 790 b 668 847 582 839 624 847 b 711 831 682 847 707 847 b 700 790 714 817 706 801 b 633 692 683 754 657 722 b 296 272 553 589 385 367 b 210 156 267 242 210 203 l 210 147 b 239 124 211 132 225 124 b 251 126 243 124 247 125 b 322 197 276 139 300 178 b 619 340 404 265 511 329 b 649 342 629 342 639 342 b 753 285 692 342 735 329 b 763 231 760 268 763 250 b 746 147 763 201 756 172 b 638 81 740 144 665 97 b 314 -308 533 18 314 -162 b 315 -325 314 -314 315 -319 b 400 -394 321 -376 358 -394 b 500 -362 436 -394 475 -381 b 711 -131 583 -304 672 -186 b 804 104 757 -65 788 38 b 997 188 843 138 915 151 b 1018 221 1011 193 1018 208 b 1015 232 1018 225 1017 229 b 1000 239 1013 236 1007 239 b 961 232 988 239 972 236 b 819 181 935 221 846 190 l 815 179 b 819 203 817 188 818 194 b 822 238 821 214 822 225 b 818 281 822 251 821 267 b 656 399 799 371 731 399 b 454 353 586 399 508 375 b 682 657 501 414 635 596 b 739 736 701 682 722 708 b 765 792 749 754 760 772 b 771 826 769 804 771 815 b 701 901 771 869 740 892 z m 728 60 b 490 -296 692 -68 568 -231 b 407 -339 472 -311 436 -339 b 382 -329 397 -339 389 -336 b 371 -303 374 -322 371 -314 b 407 -219 371 -274 394 -237 b 728 60 494 -108 593 1 z "},"[":{"ha":419,"x_min":0,"x_max":0,"o":"m 265 960 b 235 963 254 961 246 963 b 129 956 200 963 164 956 b 106 957 121 956 113 956 b 71 939 92 958 76 954 b 69 929 69 936 69 933 b 82 876 69 913 82 893 l 82 740 l 82 674 b 74 313 79 554 74 433 b 82 75 74 233 76 154 l 82 60 b 74 -56 82 24 74 -18 b 81 -104 74 -72 76 -89 b 132 -128 88 -128 111 -128 l 136 -128 l 194 -128 b 293 -124 228 -128 260 -126 b 347 -104 313 -122 338 -124 b 350 -92 349 -100 350 -96 b 321 -62 350 -76 336 -64 b 294 -61 313 -62 303 -61 b 139 -71 243 -61 190 -71 l 139 589 l 139 792 b 136 851 139 810 136 831 b 140 885 136 864 138 875 b 164 897 143 896 153 897 l 178 897 b 217 896 188 897 201 896 b 290 931 250 896 289 901 b 265 960 292 946 279 957 z "},"\\":{"ha":563,"x_min":0,"x_max":0,"o":"m 101 951 b 69 924 78 951 69 939 b 72 906 69 918 71 911 b 131 771 89 860 113 815 l 365 199 b 426 43 386 147 408 96 b 463 1 432 26 439 1 b 472 3 465 1 468 1 b 494 29 489 7 494 17 b 488 57 494 39 490 49 b 428 213 468 108 449 161 b 193 785 353 404 271 594 b 136 917 175 829 154 872 b 101 951 129 932 121 950 z "},"]":{"ha":419,"x_min":0,"x_max":0,"o":"m 183 963 b 154 960 174 963 164 961 b 131 931 140 957 129 946 b 203 896 132 901 169 896 b 242 897 218 896 232 897 l 256 897 b 279 885 267 897 276 896 b 283 851 282 875 283 864 b 281 792 283 831 281 810 l 281 589 l 281 -71 b 125 -61 229 -71 176 -61 b 99 -62 117 -61 107 -62 b 69 -92 83 -64 69 -76 b 72 -104 69 -96 71 -100 b 126 -124 82 -124 107 -122 b 225 -128 160 -126 192 -128 l 283 -128 l 288 -128 b 339 -104 308 -128 332 -128 b 346 -56 343 -89 346 -72 b 338 60 346 -18 338 24 l 338 75 b 346 313 343 154 346 233 b 338 674 346 433 340 554 l 338 740 l 338 876 b 350 929 338 893 350 913 b 349 939 350 933 350 936 b 314 957 343 954 328 958 b 290 956 307 956 299 956 b 185 963 256 956 219 963 z "},"^":{"ha":418,"x_min":0,"x_max":0,"o":"m 219 510 b 206 508 215 510 210 510 b 85 386 144 499 114 433 b 69 343 78 375 69 357 b 94 317 69 331 76 319 l 99 317 b 132 346 117 317 124 332 b 181 422 146 372 163 399 b 215 449 188 431 201 449 b 219 447 217 449 218 447 b 244 415 232 443 239 426 b 283 331 258 388 269 358 b 321 294 292 313 300 294 b 326 296 322 294 325 296 b 350 319 343 299 350 307 b 333 368 350 336 339 356 b 219 510 310 418 286 508 z "},"_":{"ha":528,"x_min":0,"x_max":0,"o":"m 386 104 b 318 100 361 104 338 103 b 133 90 257 92 194 99 b 72 68 113 88 81 92 b 69 56 71 64 69 60 b 110 29 69 36 92 29 l 115 29 b 360 43 197 38 278 38 l 365 43 b 417 39 381 43 400 39 b 444 44 426 39 436 40 b 460 69 454 50 460 60 b 439 99 460 82 453 94 b 386 104 425 103 406 104 z "},"`":{"ha":250,"x_min":0,"x_max":0,"o":"m 97 879 b 86 878 93 879 89 879 b 69 850 75 874 69 861 b 71 840 69 846 69 843 b 156 732 79 814 119 732 b 164 733 158 732 161 732 b 182 761 175 738 182 750 b 181 771 182 764 182 768 b 118 872 172 799 140 853 b 99 879 113 876 106 879 z "},"a":{"ha":660,"x_min":0,"x_max":0,"o":"m 147 321 l 146 321 b 99 311 129 321 114 317 b -68 121 24 283 -49 199 b -72 93 -71 111 -72 101 b -8 28 -72 51 -44 28 b 50 44 10 28 31 33 b 119 93 75 58 97 75 b 235 190 158 124 193 161 b 225 121 228 168 225 144 b 361 1 225 39 253 1 l 363 1 b 688 188 483 1 583 106 b 699 213 696 196 699 204 b 672 242 699 228 688 242 b 651 232 665 242 658 238 b 425 74 571 165 525 115 b 346 57 406 65 374 57 b 299 72 328 57 311 61 b 285 119 289 83 285 100 b 311 276 285 172 311 246 l 311 279 b 286 299 306 294 296 299 b 231 272 268 299 243 281 b 154 321 217 303 186 319 z m 146 263 l 149 263 b 178 249 160 263 169 258 b 183 236 181 244 183 240 b 146 194 183 219 157 204 b -14 85 106 157 44 88 b 94 244 -12 146 46 214 b 146 263 108 253 128 263 z "},"b":{"ha":779,"x_min":0,"x_max":0,"o":"m 281 907 b 240 896 267 907 254 903 b 128 757 189 867 153 810 b -4 146 43 581 -4 344 b 3 22 -4 103 -1 61 b 29 1 7 8 18 1 b 63 19 42 1 56 8 b 81 56 69 31 74 44 b 200 -15 103 6 150 -15 b 310 14 239 -15 279 -3 b 379 63 332 26 356 57 b 489 57 415 60 454 57 b 513 58 497 57 504 58 b 719 104 585 61 656 71 b 819 188 758 124 796 151 b 828 211 824 194 828 203 b 804 239 828 224 821 236 l 800 239 b 756 207 781 239 768 219 b 678 150 733 183 707 165 b 508 117 622 122 565 117 b 410 118 476 117 443 118 b 433 222 419 153 433 185 b 317 344 433 296 381 344 b 274 338 303 344 289 342 b 58 140 186 310 94 224 b 54 175 54 153 54 164 b 182 378 54 256 135 315 b 340 706 256 476 317 583 b 350 793 346 733 350 763 b 342 860 350 815 349 839 b 281 907 333 890 310 907 z m 282 850 b 293 776 289 826 293 801 b 156 442 293 658 218 529 b 71 339 132 408 104 364 b 182 732 88 472 122 611 b 282 850 203 774 233 835 z m 322 286 b 349 279 332 286 340 285 b 375 224 368 267 375 246 b 365 169 375 206 371 185 b 344 132 361 158 357 138 b 336 131 342 131 340 131 b 282 144 319 131 294 142 b 176 164 247 153 213 164 b 143 161 165 164 154 164 b 276 275 174 210 224 253 b 321 286 290 281 306 286 z m 174 107 l 175 107 b 300 79 215 107 263 93 b 206 43 276 57 240 43 b 174 47 194 43 183 44 b 133 83 158 51 133 65 b 174 107 133 104 160 107 z "},"c":{"ha":540,"x_min":0,"x_max":0,"o":"m 150 311 b 133 311 144 311 139 313 b -54 149 47 299 -31 233 b -61 101 -58 133 -61 117 b -11 6 -61 64 -47 26 b 69 -12 13 -8 40 -12 b 156 0 99 -12 129 -7 b 443 115 269 28 342 58 b 564 182 483 138 526 157 b 583 213 575 189 583 200 b 579 228 583 217 582 222 b 554 239 574 236 564 239 b 536 236 549 239 542 239 b 439 183 503 222 471 200 b 74 46 315 117 218 56 b 43 50 64 44 53 49 b -4 99 8 57 -4 75 b 79 229 -4 146 47 210 b 150 253 99 240 125 253 b 185 242 163 253 175 250 b 215 203 199 231 201 213 b 232 197 221 200 226 197 b 257 213 242 197 251 203 b 261 226 260 217 261 222 b 249 261 261 239 254 251 b 151 311 229 294 190 311 z "},"d":{"ha":536,"x_min":0,"x_max":0,"o":"m 488 856 b 407 932 481 903 449 932 b 364 918 393 932 378 926 b 275 811 324 894 297 851 b 182 518 225 721 201 618 b 147 246 164 429 147 336 b 82 269 128 263 106 269 b 14 250 58 269 35 261 b -121 61 -54 213 -111 140 b -122 47 -121 56 -122 51 b -49 -28 -122 -1 -89 -28 b -1 -17 -33 -28 -17 -24 b 63 21 21 -7 43 6 b 153 107 96 46 124 76 b 169 56 156 89 161 71 b 263 -4 192 13 225 -4 b 492 114 343 -4 440 71 b 572 211 513 132 572 176 b 571 221 572 214 572 218 b 550 240 565 235 558 240 b 489 194 528 240 500 206 b 313 68 439 144 378 96 b 267 57 297 61 282 57 b 218 92 247 57 229 67 b 204 151 211 107 204 132 b 206 164 204 156 204 160 b 246 221 211 185 233 204 b 321 336 272 258 297 297 b 471 683 386 444 440 561 b 492 811 482 725 492 768 b 488 856 492 826 490 840 z m 410 874 b 432 835 429 874 431 847 b 433 810 433 826 433 818 b 418 714 433 778 425 744 b 210 272 379 551 297 413 b 206 300 207 281 206 290 b 219 390 206 329 217 367 b 311 753 233 508 258 646 b 376 853 329 789 347 825 b 410 874 385 860 397 874 z m 76 213 l 82 213 b 93 210 86 213 89 211 b 125 167 110 204 114 179 b 65 100 108 142 88 121 b 22 65 51 88 38 76 b -46 29 11 57 -24 29 b -57 33 -50 29 -54 31 b -64 51 -61 38 -64 44 b -50 100 -64 68 -54 90 b 76 213 -32 139 24 211 z "},"e":{"ha":522,"x_min":0,"x_max":0,"o":"m 153 328 b 129 325 144 328 136 326 b -50 118 42 310 -50 210 b 3 15 -50 81 -35 43 b 63 -14 21 1 42 -7 b 147 -26 92 -22 119 -26 b 451 103 260 -26 364 36 b 550 186 485 128 521 156 b 563 213 557 193 563 203 b 553 232 563 219 560 226 b 535 239 547 236 542 239 b 444 176 504 239 463 192 b 139 35 354 101 261 42 l 131 35 b 11 124 76 35 11 65 b 13 136 11 128 11 132 b 25 172 14 147 17 164 b 39 175 28 175 32 175 b 99 165 57 175 88 167 b 126 164 107 164 117 164 b 261 231 179 164 244 181 b 265 253 264 239 265 246 b 153 328 265 304 203 328 z m 153 269 b 201 251 169 269 200 268 b 172 229 203 238 182 232 b 124 224 157 225 140 224 b 69 228 106 224 88 226 b 153 269 83 254 122 268 z "},"f":{"ha":404,"x_min":0,"x_max":0,"o":"m 233 946 b 97 804 171 944 117 854 b 26 499 60 707 42 601 b 0 267 15 421 7 344 b -6 121 -3 214 -6 167 b -57 132 -18 125 -39 132 b -92 110 -74 132 -87 126 b -93 97 -93 106 -93 101 b -1 15 -93 53 -17 53 b 7 -75 8 -10 4 -49 b 60 -314 17 -156 26 -239 b 151 -407 76 -350 107 -406 l 154 -407 b 225 -308 203 -407 222 -349 l 225 -285 b 132 -33 225 -193 188 -106 b 76 31 115 -11 96 11 b 61 56 71 36 56 47 b 89 61 65 63 82 61 b 164 71 114 61 139 65 b 379 149 247 88 318 114 b 446 213 400 161 446 183 b 415 240 446 229 431 240 b 401 238 410 240 406 240 b 319 182 372 224 347 199 b 149 128 274 157 215 140 b 81 118 138 125 104 118 b 54 128 67 118 57 119 b 51 142 53 132 51 138 b 54 172 51 153 54 163 b 93 246 56 206 74 221 b 164 349 118 279 142 314 b 329 781 238 468 329 629 b 322 853 329 806 328 829 b 306 899 318 868 314 885 b 285 925 300 908 293 918 b 233 946 268 940 254 946 z m 233 883 b 263 847 253 883 258 861 b 269 794 268 831 269 813 b 264 729 269 772 267 750 b 133 411 249 618 190 507 b 61 306 113 376 92 331 b 143 760 89 457 93 613 b 194 858 156 796 169 829 b 233 883 203 868 218 883 z m 67 -44 b 168 -278 114 -112 168 -193 b 154 -347 168 -300 164 -324 b 72 -121 92 -299 81 -193 b 64 -62 71 -106 64 -82 b 67 -44 64 -56 64 -50 z "},"g":{"ha":579,"x_min":0,"x_max":0,"o":"m 338 358 b 306 336 325 358 313 350 b 289 290 299 322 296 306 b 263 242 281 274 269 258 l 260 242 b 139 318 243 293 190 318 b 85 307 119 318 101 314 b -47 143 18 281 -33 213 b -50 110 -50 132 -50 121 b 51 -6 -50 46 -10 -6 b 93 1 64 -6 78 -4 b 257 136 160 24 214 83 b 308 206 264 146 301 206 l 308 169 b 299 114 308 149 307 128 b 260 86 292 101 272 93 b 181 35 233 69 206 53 b -24 -178 99 -22 26 -90 b -60 -296 -43 -212 -60 -254 b -57 -326 -60 -306 -60 -317 b 10 -382 -47 -367 -21 -382 b 154 -317 60 -382 125 -343 b 317 -69 228 -250 282 -162 b 344 25 328 -39 338 -7 b 356 69 347 39 347 57 b 414 104 367 86 397 96 b 550 164 458 126 504 144 b 618 197 569 172 611 186 b 624 215 622 204 624 210 b 588 240 624 232 606 240 b 571 238 582 240 576 239 b 365 146 501 214 428 183 b 371 276 365 189 371 232 b 367 331 371 294 369 314 b 340 358 364 349 353 357 z m 129 260 b 219 196 165 260 219 235 b 217 182 219 192 218 186 b 182 140 210 167 193 153 b 54 53 149 104 106 58 l 47 53 b 8 107 18 53 8 81 b 11 133 8 117 10 125 b 129 260 24 189 69 251 z m 283 31 b 117 -271 275 -75 196 -204 b 24 -324 101 -285 54 -324 b 7 -318 17 -324 11 -322 b -3 -293 0 -312 -3 -303 b 31 -201 -3 -262 21 -218 b 283 31 85 -107 185 -17 z "},"h":{"ha":625,"x_min":0,"x_max":0,"o":"m 235 951 b 165 929 210 951 188 946 b 76 793 121 896 96 843 b 24 518 42 707 33 610 b -4 169 11 403 -4 285 l -4 57 b -6 33 -4 50 -6 42 b 3 0 -6 21 -4 8 b 24 -12 10 -8 17 -12 b 74 49 47 -12 65 32 b 193 210 106 117 139 157 b 265 254 210 226 239 254 l 268 254 b 304 197 293 251 300 217 b 346 22 314 142 306 68 b 404 -3 361 4 382 -3 b 453 7 421 -3 438 1 b 622 136 525 33 567 83 b 668 211 643 156 668 192 b 640 239 668 231 654 239 b 613 226 631 239 619 235 b 468 82 564 171 515 115 b 410 57 456 74 429 57 b 396 60 404 57 400 57 b 371 131 375 72 374 108 b 336 279 365 181 364 236 b 269 314 319 304 296 314 b 221 303 253 314 236 310 b 58 147 157 275 90 197 l 58 157 b 139 313 58 200 110 263 b 324 732 214 443 299 582 b 331 807 328 756 331 781 b 297 919 331 847 322 888 b 235 951 281 940 258 950 z m 226 894 b 265 853 249 893 260 871 b 272 801 269 836 272 819 b 264 735 272 779 268 757 b 54 275 232 574 142 413 b 226 894 65 424 83 890 z "},"i":{"ha":328,"x_min":0,"x_max":0,"o":"m 54 344 b 68 346 58 344 63 344 b 101 415 86 351 101 388 b 76 451 101 435 94 451 b 67 450 74 451 71 451 b 32 381 47 444 32 408 b 54 344 32 363 39 346 z m 33 286 l 26 286 b -8 200 -7 278 -6 226 b -11 158 -10 188 -11 174 b 89 6 -11 89 10 6 l 93 6 b 324 146 182 8 265 85 b 372 221 333 157 372 196 b 350 242 372 231 367 239 l 344 242 b 283 190 318 242 300 207 b 144 82 242 149 197 108 b 94 64 131 75 113 64 b 81 67 90 64 85 65 b 51 118 61 75 54 99 b 49 156 50 131 49 143 b 58 246 49 185 53 215 b 60 254 58 249 60 251 b 33 286 60 271 50 286 z "},"j":{"ha":257,"x_min":0,"x_max":0,"o":"m 8 472 b -3 469 4 472 1 471 b -22 421 -15 464 -22 443 b 15 354 -22 389 -10 354 b 26 357 19 354 22 356 b 46 406 39 363 46 383 b 8 472 46 438 33 472 z m 28 281 l 26 281 b 1 264 15 281 6 275 b -1 240 -1 257 -1 249 b 10 158 -1 214 7 182 b 4 118 11 144 15 129 b -82 63 -19 96 -54 81 b -328 -169 -176 1 -283 -58 b -346 -254 -339 -196 -346 -225 b -335 -311 -346 -274 -342 -293 b -236 -371 -317 -354 -278 -371 b -154 -351 -208 -371 -179 -364 b 53 -67 -49 -299 25 -179 b 69 36 61 -35 69 1 b 68 60 69 43 68 51 b 76 88 68 71 69 81 b 136 122 90 103 117 113 b 239 165 175 142 199 147 b 294 213 260 175 294 185 b 269 239 294 233 282 239 b 235 229 258 239 244 233 b 69 154 174 200 136 183 b 53 267 69 186 68 238 b 28 281 47 276 38 281 z m 11 49 b -133 -265 1 -69 -40 -187 b -236 -315 -156 -285 -200 -315 b -269 -304 -249 -315 -260 -312 b -289 -257 -283 -293 -289 -275 b -262 -169 -289 -226 -274 -192 b -69 1 -222 -92 -142 -43 b 11 49 -43 18 -18 39 z "},"k":{"ha":614,"x_min":0,"x_max":0,"o":"m 261 900 b 204 886 243 900 222 896 b 90 747 151 857 115 800 b -1 140 3 567 -1 338 b -3 92 -1 108 -3 107 b -1 67 -3 86 -1 78 b 29 -4 0 42 6 10 b 44 -10 35 -7 39 -10 b 117 46 74 -10 101 32 b 353 -17 197 18 275 -17 b 489 26 397 -17 443 -4 b 633 164 547 65 593 106 b 656 215 642 176 656 197 b 640 238 656 225 651 232 b 628 242 636 240 632 242 b 586 204 608 242 597 219 b 471 88 551 157 517 124 b 351 43 429 56 390 43 b 189 79 300 43 247 64 l 189 82 b 428 269 281 96 389 188 b 446 342 438 289 446 317 b 422 397 446 364 440 383 b 386 408 411 406 399 408 b 286 365 350 408 311 383 b 124 172 219 315 169 242 b 58 76 100 136 58 76 b 56 136 57 92 56 114 b 64 210 56 163 57 192 b 150 339 82 256 121 299 b 325 639 217 432 278 533 b 363 783 344 683 363 733 b 358 822 363 797 361 810 b 261 900 347 875 307 900 z m 257 843 b 306 788 292 843 306 818 b 285 696 306 754 292 717 b 68 324 238 561 147 440 l 68 353 b 157 747 68 489 104 647 b 257 843 175 779 213 842 z m 386 349 b 171 136 386 246 260 161 b 307 307 204 197 254 263 b 386 349 329 326 356 346 z "},"l":{"ha":425,"x_min":0,"x_max":0,"o":"m 275 968 b 253 967 268 968 261 968 b 97 811 176 953 129 875 b -1 349 28 671 6 504 b -3 281 -3 326 -3 303 b 11 124 -3 218 1 157 b 175 -24 40 47 90 -24 b 217 -18 188 -24 201 -22 b 428 140 308 4 375 65 b 468 218 438 153 468 193 b 447 240 468 229 463 238 l 442 240 b 367 158 408 240 383 182 b 178 38 328 104 249 38 b 85 97 143 38 110 54 b 57 186 72 119 57 157 b 58 200 57 192 57 196 b 136 333 83 246 113 293 b 338 760 213 469 289 611 b 356 863 346 788 356 826 b 276 968 356 918 338 968 z m 271 910 b 279 908 274 910 276 910 b 297 865 297 901 297 881 b 274 753 297 826 288 789 b 60 315 217 599 136 460 b 58 353 60 328 58 340 b 157 799 58 506 94 685 b 232 894 176 835 199 869 b 267 910 242 901 254 908 z "},"m":{"ha":817,"x_min":0,"x_max":0,"o":"m 261 307 b 219 297 247 307 232 303 b 82 172 175 275 117 207 b 35 115 65 156 44 138 l 31 115 b 47 190 33 140 42 165 b 61 244 51 206 61 226 b 60 254 61 249 61 251 b 31 275 56 268 43 275 b 7 263 22 275 13 271 b -15 185 -6 242 -10 208 b -44 46 -25 139 -39 93 b -46 24 -46 39 -46 32 b -15 -17 -46 3 -40 -17 l -14 -17 b 61 58 19 -15 42 35 b 260 249 110 117 189 218 b 228 51 260 193 228 107 b 254 -21 228 25 228 -6 b 281 -28 263 -26 272 -28 b 351 8 307 -28 333 -8 b 533 239 415 63 468 186 b 531 143 533 217 531 181 b 572 -3 531 83 538 19 b 618 -15 588 -12 603 -15 b 807 131 693 -15 769 82 b 857 210 822 151 857 181 b 856 218 857 213 857 215 b 828 239 853 232 840 239 b 807 229 819 239 813 235 b 681 82 771 178 732 125 b 618 46 664 68 642 46 l 614 46 b 588 106 589 49 588 85 b 590 199 588 126 590 163 b 567 297 590 242 586 283 b 542 304 558 303 550 304 b 474 267 517 304 490 283 b 285 33 414 208 356 78 b 317 215 285 83 317 165 l 317 236 b 306 285 317 253 315 269 b 261 307 296 301 279 307 z "},"n":{"ha":600,"x_min":0,"x_max":0,"o":"m 265 317 b 214 297 247 317 229 310 b 86 128 168 263 122 172 b 29 51 68 104 47 71 b 26 74 28 58 26 67 b 32 118 26 89 31 104 b 54 218 35 139 44 175 b 68 275 57 233 68 256 b 60 299 68 283 65 293 b 40 308 53 306 46 308 b 1 251 19 308 6 269 b -32 69 -15 182 -26 140 b -33 39 -32 60 -33 50 b -12 -12 -33 19 -29 0 b 11 -21 -4 -18 3 -21 b 76 18 36 -21 61 1 b 210 208 119 67 168 160 b 261 253 221 221 243 253 b 279 200 276 253 278 211 b 281 181 279 194 281 188 b 278 99 281 157 278 128 b 303 -11 278 56 283 13 b 368 -39 319 -31 343 -39 b 417 -31 385 -39 401 -36 b 586 118 493 -3 539 56 b 635 199 603 140 626 174 b 636 208 636 201 636 206 b 608 239 636 224 624 239 b 583 222 600 239 590 233 b 440 53 539 154 504 106 b 372 19 425 40 396 19 b 356 25 367 19 361 22 b 331 97 333 39 331 74 b 332 106 331 100 332 103 b 333 188 332 128 333 157 b 317 288 333 226 331 265 b 265 317 304 308 285 317 z "},"o":{"ha":561,"x_min":0,"x_max":0,"o":"m 138 358 l 118 358 b 50 300 106 357 85 329 b -51 104 15 269 -51 188 b -39 46 -51 85 -47 65 b 46 -6 -22 10 11 -6 b 114 13 69 -6 93 1 b 222 197 182 47 222 121 b 418 133 288 157 349 133 b 492 142 442 133 465 136 b 589 186 522 149 565 164 b 601 213 596 193 601 203 b 592 235 601 221 599 229 b 575 240 586 239 581 240 b 524 218 557 240 539 224 b 401 192 486 204 443 192 b 368 194 390 192 379 192 b 199 297 301 207 246 253 b 138 358 179 315 165 351 z m 125 272 b 163 193 160 272 163 217 b 54 51 163 138 117 51 b 38 54 49 51 43 53 b 8 101 15 60 8 81 b 11 121 8 108 10 114 b 83 247 19 171 44 214 b 125 272 93 256 110 271 z "},"p":{"ha":665,"x_min":0,"x_max":0,"o":"m 300 360 b 243 344 282 360 264 357 b 117 197 188 311 149 253 b 69 108 103 172 90 126 b 32 97 61 100 43 100 b 64 254 36 157 46 196 b 79 301 68 268 79 286 b 69 322 79 308 76 317 b 53 329 64 326 58 329 b 21 308 40 329 28 319 b -8 203 3 279 -1 236 b -71 -244 -37 46 -56 -85 b -83 -383 -75 -290 -79 -337 b -86 -411 -85 -392 -86 -401 b -76 -439 -86 -421 -85 -432 b -57 -446 -71 -443 -64 -446 b -29 -425 -44 -446 -33 -437 b 11 -253 -8 -372 -3 -308 b 53 -108 24 -204 38 -156 b 121 -119 75 -117 99 -119 b 292 -47 183 -119 244 -90 b 356 25 313 -28 331 11 b 449 42 379 39 421 36 b 603 107 503 54 556 78 b 700 192 638 129 678 157 b 708 217 704 199 708 208 b 688 242 708 228 701 238 b 682 243 685 242 685 243 b 600 178 651 243 622 194 b 383 89 533 126 463 108 b 408 206 400 124 408 165 b 393 288 408 235 403 263 b 300 360 375 331 340 358 z m 301 303 b 350 217 339 303 350 253 b 338 133 350 185 343 151 b 317 89 333 121 328 97 b 297 85 313 85 306 85 b 271 86 288 85 278 86 b 135 101 226 86 176 89 b 179 189 143 132 163 161 b 261 285 201 225 228 260 b 301 303 271 292 286 303 z m 119 43 b 153 38 132 43 144 39 b 276 25 194 32 235 31 b 118 -58 242 -31 181 -58 b 71 -53 103 -58 86 -57 b 110 40 75 -31 90 28 b 119 43 113 42 115 43 z m 32 10 l 29 10 l 42 35 z "},"q":{"ha":576,"x_min":0,"x_max":0,"o":"m 346 369 b 335 368 342 369 339 369 b 271 297 314 360 281 318 b 164 335 236 319 204 335 b 142 333 157 335 149 335 b -53 103 42 321 -53 206 b -51 79 -53 94 -53 88 b 10 19 -44 35 -19 19 b 135 76 53 19 106 53 b 229 164 168 104 199 133 b 186 40 219 122 199 82 b 126 -276 157 -64 136 -168 b 122 -335 125 -293 122 -314 b 163 -467 122 -383 131 -437 b 208 -486 178 -481 193 -486 b 315 -383 257 -486 300 -426 b 335 -268 329 -344 335 -306 b 275 1 335 -176 301 -90 b 563 121 383 15 482 49 b 615 199 583 140 610 169 b 617 208 615 201 617 206 b 589 240 617 224 607 239 l 586 240 b 551 201 564 240 561 217 b 501 149 539 181 519 164 b 257 58 435 92 347 65 b 329 246 278 122 300 186 b 375 340 342 272 375 308 b 346 369 375 357 361 369 z m 157 275 b 222 251 183 275 222 272 b 181 200 222 232 193 213 b 72 101 146 165 113 129 b 22 78 58 92 40 78 l 21 78 b 6 100 10 78 6 88 b 21 161 6 122 17 151 b 157 275 46 217 93 268 z m 226 -44 b 253 -111 240 -62 246 -89 b 276 -258 268 -158 276 -208 b 268 -335 276 -285 274 -310 b 211 -424 263 -357 243 -424 l 208 -424 b 183 -340 185 -421 183 -367 l 183 -332 b 206 -129 183 -264 192 -196 b 226 -44 211 -103 214 -69 z "},"r":{"ha":528,"x_min":0,"x_max":0,"o":"m 69 390 b 31 379 56 390 43 386 b -19 285 -3 358 -19 321 b 33 188 -19 246 -1 208 b 94 171 53 176 74 171 b 181 189 124 171 153 179 b 172 113 175 164 172 138 b 178 58 172 94 172 76 b 258 -11 192 10 222 -8 b 493 114 326 -11 438 58 b 567 214 513 136 567 179 b 565 222 567 217 567 219 b 546 239 561 235 554 239 b 492 204 528 239 503 215 b 324 74 439 150 389 110 b 267 53 310 65 286 53 b 246 60 258 53 251 54 b 228 113 233 71 228 90 b 251 218 228 150 242 196 b 267 263 257 231 267 247 b 253 285 267 271 263 279 b 239 289 247 288 243 289 b 188 258 219 289 203 268 b 96 232 160 242 128 232 b 69 233 88 232 78 232 l 69 240 b 124 333 100 256 124 297 b 122 346 124 338 124 342 b 69 390 117 375 94 390 z "},"s":{"ha":364,"x_min":0,"x_max":0,"o":"m 96 363 b 18 328 65 363 36 350 b -3 257 3 308 -3 282 b -1 228 -3 247 -3 238 b 31 140 4 197 17 168 b 47 101 36 131 50 113 b 4 56 44 86 15 67 b -50 -56 -22 28 -50 -14 b -42 -93 -50 -68 -47 -81 b 24 -133 -26 -122 -3 -133 b 113 -93 56 -133 90 -117 b 149 1 138 -67 149 -33 b 128 82 149 29 142 57 b 200 121 144 96 178 110 b 336 169 240 143 301 156 b 404 213 358 178 404 182 b 375 240 404 233 390 240 b 318 226 356 240 332 231 b 101 135 231 197 179 186 b 56 256 85 175 56 211 b 94 303 56 279 71 303 b 149 253 132 303 113 254 l 151 253 b 179 285 172 253 179 267 b 167 328 179 300 174 318 b 96 363 151 353 124 363 z m 82 43 b 90 1 86 29 90 15 b 64 -58 90 -21 83 -42 b 29 -75 56 -65 42 -75 b 18 -71 25 -75 22 -74 b 15 -32 6 -62 11 -43 b 82 43 28 -3 53 32 z "},"t":{"ha":385,"x_min":0,"x_max":0,"o":"m 268 924 l 263 924 b 243 921 256 924 250 922 b 99 760 171 906 125 822 b 46 603 76 710 60 657 l 33 603 b -161 586 -29 603 -100 597 b -186 557 -176 583 -186 571 b -175 535 -186 549 -182 540 b -149 526 -168 529 -158 526 b -124 529 -140 526 -131 528 b -15 540 -87 535 -51 536 b 33 546 1 543 17 544 b 7 372 21 489 13 429 b -1 260 3 335 -1 297 b 1 207 -1 242 0 224 b 151 -1 13 113 38 6 l 158 -1 b 207 6 174 -1 192 1 b 393 146 285 28 354 76 b 418 219 401 160 418 196 b 400 240 418 232 414 240 l 397 240 b 340 172 371 239 353 193 b 194 64 313 118 253 83 b 160 58 183 60 171 58 b 89 97 131 58 104 69 b 61 190 76 119 61 161 b 63 204 61 196 61 200 b 93 251 67 221 83 238 b 150 343 114 281 132 313 b 261 554 190 410 229 481 l 276 554 l 368 554 b 468 551 401 554 435 553 b 494 549 476 551 486 549 b 513 554 501 549 507 550 b 528 575 524 563 528 568 b 465 611 528 596 483 610 b 332 618 424 615 378 618 b 288 617 317 618 303 617 b 319 721 300 651 311 686 b 333 822 326 746 333 785 b 268 924 333 875 319 922 z m 258 864 l 263 864 b 278 826 275 860 278 838 l 278 818 b 258 718 278 785 267 750 b 222 613 249 683 236 647 b 208 610 218 613 213 610 b 108 604 176 606 142 606 b 160 750 122 654 139 703 b 225 846 175 785 196 821 b 258 864 233 853 246 864 z m 197 554 b 61 310 158 468 111 385 b 60 333 60 318 60 325 b 75 446 60 369 69 413 b 96 550 81 481 88 515 b 197 554 129 551 163 554 z "},"u":{"ha":633,"x_min":0,"x_max":0,"o":"m 339 329 b 283 264 311 329 296 283 b 85 60 233 189 169 99 b 58 53 74 54 65 53 b 28 100 36 53 28 74 b 53 210 28 138 43 189 b 72 249 58 222 69 235 l 72 257 b 44 288 72 274 61 288 l 40 288 b -14 204 10 283 -6 229 b -32 97 -24 175 -32 135 b 53 -8 -32 42 -12 -8 l 56 -8 b 97 0 71 -8 83 -6 b 169 42 124 10 147 25 b 261 131 203 68 233 99 b 275 68 264 108 265 88 b 379 0 299 19 338 0 b 593 104 456 0 546 60 b 676 215 615 125 676 186 b 649 239 676 232 660 239 b 621 228 639 239 628 235 b 399 60 568 172 489 60 b 367 65 388 60 378 63 b 319 140 332 76 319 106 b 349 251 319 181 336 224 b 369 303 356 265 369 286 b 354 326 369 313 365 321 b 339 329 349 329 343 329 z "},"v":{"ha":615,"x_min":0,"x_max":0,"o":"m 282 343 b 225 279 254 343 238 299 b 51 61 176 201 115 125 b 54 174 51 99 53 136 b 61 249 56 199 58 224 b 68 297 63 263 68 281 b 64 321 68 306 68 314 b 36 338 58 332 47 338 b 10 318 25 338 14 331 b -4 167 -3 271 -1 215 b -8 89 -6 142 -8 115 b -4 43 -8 74 -7 57 b 38 -3 3 10 18 -3 b 126 53 67 -3 104 28 b 189 128 149 78 168 103 b 269 240 215 161 254 200 b 399 121 285 192 335 144 b 469 108 419 111 444 108 b 656 214 557 108 656 157 b 628 240 656 229 640 240 b 614 236 624 240 618 239 b 578 199 599 228 590 210 b 489 172 554 179 522 172 b 432 178 469 172 450 175 b 324 269 383 186 344 225 b 293 340 314 290 317 331 b 282 343 289 342 286 343 z "},"w":{"ha":893,"x_min":0,"x_max":0,"o":"m 40 319 b 1 249 13 319 7 269 b -31 65 -12 192 -31 126 b -29 31 -31 54 -31 42 b 8 -11 -25 0 -10 -11 b 79 25 32 -11 61 7 b 136 86 99 44 118 65 b 219 185 164 119 190 154 b 267 38 225 139 231 71 b 321 19 282 24 301 19 b 376 32 340 19 360 25 b 533 200 443 61 506 133 b 692 108 582 124 635 108 b 726 110 703 108 715 108 b 918 179 790 117 864 132 b 935 211 926 188 935 199 b 932 224 935 215 935 219 b 906 239 926 233 915 239 b 886 232 899 239 892 236 b 711 168 840 194 776 168 b 654 175 692 168 674 169 b 571 261 613 186 588 224 b 533 311 563 279 558 311 l 528 311 b 485 233 500 307 496 256 b 385 108 460 186 425 143 b 325 78 369 96 346 78 b 292 119 303 78 296 103 b 254 244 282 156 285 218 b 228 254 246 251 238 254 b 176 229 210 254 190 242 b 28 58 122 176 81 111 b 63 249 29 122 47 188 b 69 289 65 260 69 275 b 56 315 69 300 67 310 b 40 319 50 318 44 319 z "},"x":{"ha":560,"x_min":0,"x_max":0,"o":"m 300 351 b 244 321 279 351 258 332 l 110 182 b 58 264 96 210 75 236 b 29 311 50 279 42 300 b 11 318 24 317 18 318 b -19 289 -4 318 -19 306 b 42 176 -19 251 22 206 b 67 135 49 165 67 149 b 42 97 67 121 49 107 b -24 -12 21 69 -24 25 b 6 -43 -24 -29 -10 -43 b 24 -36 11 -43 18 -42 b 57 13 39 -24 47 -3 b 106 86 72 36 94 60 b 208 8 142 61 168 29 b 285 -10 233 -4 260 -10 b 461 65 344 -10 404 22 b 579 174 504 97 547 133 b 601 215 588 185 601 200 b 597 228 601 219 600 224 b 574 239 592 236 582 239 b 554 232 567 239 560 236 b 431 117 524 201 481 158 b 285 51 386 81 336 51 b 213 75 260 51 236 58 b 154 133 197 86 154 111 b 181 171 154 147 172 163 b 272 264 210 204 239 235 b 332 328 285 275 332 304 b 311 350 332 336 326 344 b 300 351 307 351 304 351 z "},"y":{"ha":596,"x_min":0,"x_max":0,"o":"m 342 342 b 275 261 304 342 290 285 b 121 97 235 200 182 139 b 54 65 104 86 76 65 b 47 67 53 65 49 67 b 28 99 31 69 28 83 b 31 125 28 108 29 118 b 75 264 39 175 61 217 b 60 299 79 278 72 293 b 46 301 56 301 50 301 b 4 256 24 301 11 274 b -33 106 -12 214 -33 157 b -26 61 -33 90 -31 75 b 50 7 -14 22 17 7 b 106 19 68 7 88 11 b 276 164 175 50 229 106 b 326 233 293 185 317 207 l 329 233 b 342 158 332 217 342 183 b 338 138 342 150 340 143 b 290 106 329 124 304 114 b 183 33 254 83 217 60 b -37 -290 86 -40 -37 -157 b -36 -314 -37 -297 -37 -307 b 74 -410 -29 -385 19 -410 b 193 -372 115 -410 160 -394 b 385 -60 297 -301 361 -181 b 399 43 392 -26 399 8 b 404 100 399 60 404 100 b 574 167 450 131 528 147 b 631 193 592 175 618 178 b 638 211 636 199 638 206 b 604 240 638 226 621 240 b 594 239 601 240 597 240 b 399 167 528 219 456 193 b 386 249 393 193 390 221 b 342 342 382 275 381 342 z m 342 68 b 196 -294 342 -62 293 -204 b 79 -356 171 -318 121 -356 b 44 -344 67 -356 54 -351 b 19 -292 26 -332 19 -312 b 53 -193 19 -257 38 -218 b 342 68 118 -83 229 8 z "},"z":{"ha":703,"x_min":0,"x_max":0,"o":"m 254 369 l 251 369 b 232 367 246 369 239 368 b 24 263 158 351 85 306 b -29 200 11 253 -29 222 b -4 181 -29 190 -22 183 l 1 181 b 72 222 26 181 54 210 b 250 310 124 257 189 300 b 193 215 238 275 215 244 b 138 143 176 193 146 169 b 136 133 136 140 136 136 b 167 104 136 117 150 104 b 178 107 171 104 174 106 b 235 144 199 115 217 132 b 358 207 272 169 314 196 b 393 213 369 210 382 213 b 447 179 415 213 436 204 b 446 149 451 169 456 157 b 389 121 431 135 407 129 b 286 65 354 104 319 85 b -7 -156 182 6 72 -62 b -76 -312 -43 -199 -76 -254 l -76 -322 b 54 -428 -71 -401 -11 -428 b 178 -401 97 -428 143 -417 b 471 -57 317 -339 415 -194 b 506 56 485 -21 497 17 b 518 111 508 71 507 99 b 681 168 561 133 639 151 b 740 196 699 175 728 179 b 747 214 746 203 747 208 b 711 240 747 229 729 240 b 699 239 707 240 703 240 b 510 176 626 217 582 201 b 390 269 496 243 446 269 b 286 243 356 269 318 260 b 308 294 293 260 304 276 b 311 317 310 303 311 310 b 254 369 311 350 288 369 z m 450 82 b 411 -47 449 38 428 -7 b 193 -325 365 -156 293 -260 b 57 -374 161 -346 104 -374 b 0 -353 35 -374 15 -368 b -18 -308 -12 -340 -18 -325 b 47 -183 -18 -264 21 -211 b 311 11 122 -103 217 -43 b 450 82 354 36 401 68 z "},"{":{"ha":535,"x_min":0,"x_max":0,"o":"m 358 958 l 340 958 b 161 856 269 958 192 922 b 149 797 153 836 149 817 b 210 554 149 717 210 636 b 136 378 210 486 178 426 b 71 315 119 360 76 339 b 69 306 69 313 69 308 b 125 271 69 278 107 282 b 151 226 140 263 147 243 b 158 165 156 208 158 188 b 153 42 158 126 153 83 b 235 -119 153 -26 167 -89 b 279 -132 249 -126 264 -131 b 307 -133 289 -133 297 -133 b 436 -104 351 -133 397 -124 b 465 -67 450 -97 465 -82 b 451 -46 465 -58 461 -51 b 438 -42 447 -43 443 -42 b 389 -60 421 -42 403 -54 b 307 -75 365 -68 335 -75 b 229 -36 275 -75 246 -65 b 208 61 213 -8 208 25 b 215 188 208 103 215 147 b 213 218 215 197 214 208 b 161 318 208 253 196 301 b 268 554 225 382 268 465 b 261 614 268 574 265 593 b 208 794 247 672 208 733 b 343 901 208 864 283 899 l 344 901 b 394 896 358 901 378 896 b 426 926 413 896 426 904 b 358 958 426 956 388 958 z "},"|":{"ha":211,"x_min":0,"x_max":0,"o":"m 111 958 b 101 957 108 958 104 958 b 82 915 83 951 82 932 l 82 908 b 79 765 81 861 81 813 b 71 151 72 561 78 356 b 69 85 69 129 69 107 b 74 -8 69 53 71 22 b 104 -44 75 -25 86 -44 b 113 -43 107 -44 110 -44 b 133 -8 129 -37 133 -24 b 132 11 133 -1 132 6 b 128 119 129 47 128 83 b 129 171 128 136 129 154 b 136 554 133 299 136 426 b 140 758 136 624 140 690 l 140 776 l 140 792 b 142 882 140 821 142 851 b 139 933 142 899 142 917 b 111 958 136 947 125 958 z "},"}":{"ha":535,"x_min":0,"x_max":0,"o":"m 176 960 b 108 926 147 960 108 956 b 140 896 108 904 122 896 b 190 901 157 896 176 901 l 192 901 b 326 794 251 899 326 864 b 274 614 326 733 288 672 b 267 554 269 593 267 574 b 374 318 267 465 310 382 b 322 218 339 301 326 253 b 321 188 321 208 321 197 b 326 61 321 147 326 103 b 306 -36 326 25 322 -8 b 228 -75 289 -65 260 -75 b 147 -60 200 -75 171 -68 b 99 -42 133 -54 115 -42 b 83 -46 93 -42 88 -43 b 69 -67 74 -51 69 -58 b 99 -104 69 -82 85 -97 b 228 -133 138 -124 183 -133 b 256 -132 238 -133 246 -133 b 301 -119 271 -131 288 -126 b 382 42 369 -89 382 -26 b 378 165 382 83 378 126 b 383 226 378 188 379 208 b 410 271 388 243 394 263 b 465 306 428 282 465 278 b 464 315 465 308 465 313 b 399 378 458 339 415 360 b 325 554 357 426 325 486 b 386 797 325 636 386 717 b 374 856 386 817 382 836 b 194 958 343 922 265 958 b 176 960 189 958 183 960 z "},"~":{"ha":635,"x_min":0,"x_max":0,"o":"m 215 483 b 89 407 161 483 119 446 b 69 365 81 396 69 379 b 86 342 69 356 74 347 b 97 339 90 340 93 339 b 132 364 113 339 122 353 b 210 424 150 386 179 419 b 313 376 251 424 279 397 b 429 340 347 354 388 340 l 446 340 b 551 386 482 344 526 358 b 565 419 560 394 565 407 b 551 443 565 428 561 438 b 538 446 546 446 542 446 b 494 418 521 446 508 428 b 431 400 476 406 453 400 b 215 483 349 400 297 483 z "},"":{"ha":485,"x_min":0,"x_max":0,"o":"m 303 679 b 272 718 303 703 297 718 b 243 685 246 718 244 700 b 233 585 239 651 238 618 l 225 514 b 76 361 154 490 96 433 b 69 314 72 346 69 329 b 119 218 69 276 83 239 b 196 200 143 204 168 200 b 190 149 194 183 193 165 b 185 61 186 121 185 90 b 185 33 185 51 183 43 b 217 4 186 21 196 4 l 222 4 b 244 33 243 7 244 21 b 243 42 244 36 243 39 l 243 60 b 250 156 243 92 246 124 b 256 206 251 172 254 189 b 286 211 265 207 276 208 b 383 240 322 219 353 231 b 415 276 404 247 415 263 b 389 299 415 289 407 299 b 374 297 385 299 379 299 b 263 265 339 283 301 272 b 281 464 269 331 276 397 b 315 453 293 464 306 461 b 346 414 329 442 332 424 b 363 410 351 411 357 410 b 388 424 372 410 382 414 b 390 438 390 428 390 433 b 379 472 390 450 385 463 b 286 524 361 504 322 522 b 294 586 289 544 294 565 b 303 679 296 617 303 649 z m 219 446 l 203 258 b 174 261 193 258 183 260 b 126 310 139 268 126 286 b 210 440 126 357 178 421 b 219 446 213 442 217 444 z "},"":{"ha":315,"x_min":0,"x_max":0,"o":"m 190 338 b 181 338 186 338 185 339 b 157 300 164 332 157 317 b 196 251 157 276 172 251 b 207 254 200 251 203 253 b 232 290 224 260 232 275 b 192 339 232 314 215 339 z m 103 338 b 93 338 99 338 97 339 b 69 300 76 332 69 317 b 108 251 69 276 85 251 b 119 254 113 251 115 253 b 144 290 136 260 144 275 b 104 339 144 314 128 339 z "},"":{"ha":250,"x_min":0,"x_max":0,"o":"m 154 879 l 153 879 b 133 872 146 879 139 876 b 71 771 111 853 79 799 b 69 761 69 768 69 764 b 88 733 69 750 76 738 b 96 732 90 732 93 732 b 181 840 132 732 172 814 b 182 850 182 843 182 846 b 165 878 182 861 176 874 b 154 879 163 879 158 879 z "},"":{"ha":276,"x_min":0,"x_max":0,"o":"m 115 315 b 97 307 110 315 103 313 b 86 271 88 297 88 283 b 78 211 85 254 78 232 b 90 179 78 199 82 188 b 108 172 96 174 101 172 b 144 178 121 172 132 178 b 151 176 147 178 150 176 b 113 121 143 154 132 135 b 74 94 100 111 82 110 b 69 79 71 89 69 83 b 104 57 69 63 86 57 b 133 63 115 57 126 58 b 207 179 172 81 207 136 b 146 238 207 210 190 233 b 147 276 147 254 147 260 b 115 315 147 294 132 315 z "},"":{"ha":794,"x_min":0,"x_max":0,"o":"m 578 901 b 540 883 564 901 550 893 b 468 781 511 854 489 815 b 282 457 403 675 343 565 b 200 313 257 414 236 347 b 154 303 189 303 168 304 b 51 293 119 300 86 297 b 0 263 31 290 0 294 b 36 233 0 243 18 233 l 44 233 b 165 244 85 233 126 239 b 33 -12 113 164 76 74 b 17 -67 28 -24 17 -47 b 38 -90 17 -79 22 -90 b 47 -89 40 -90 43 -90 b 104 -3 78 -83 92 -26 b 188 161 131 51 158 107 b 235 244 201 188 215 221 b 319 261 250 263 297 258 b 553 285 396 268 475 285 b 550 110 553 228 550 168 b 557 -21 550 65 551 22 b 590 -111 560 -44 556 -111 b 599 -110 593 -111 596 -111 b 621 -68 617 -106 621 -87 b 615 -15 621 -49 617 -28 b 610 150 610 39 610 94 l 610 290 b 646 294 622 290 635 289 b 664 322 657 300 664 311 b 651 344 664 331 660 339 b 613 351 640 353 625 351 b 622 758 613 488 622 622 b 624 814 622 772 624 793 b 594 896 624 847 619 882 b 581 901 589 899 586 901 z m 565 817 l 558 553 l 557 454 l 556 378 l 551 347 l 481 338 l 271 315 b 439 617 314 419 383 518 b 565 817 476 682 514 763 z m 510 1138 b 499 1136 506 1138 501 1138 b 482 1108 488 1132 482 1119 b 483 1099 482 1104 482 1101 b 568 990 492 1072 532 990 b 576 992 571 990 574 990 b 594 1019 588 996 594 1008 b 593 1029 594 1022 594 1026 b 531 1131 585 1057 553 1111 b 511 1138 525 1135 518 1138 z "},"":{"ha":794,"x_min":0,"x_max":0,"o":"m 578 901 b 540 883 564 901 550 893 b 468 781 511 854 489 815 b 282 457 403 675 343 565 b 200 313 257 414 236 347 b 154 303 189 303 168 304 b 51 293 119 300 86 297 b 0 263 31 290 0 294 b 36 233 0 243 18 233 l 44 233 b 165 244 85 233 126 239 b 33 -12 113 164 76 74 b 17 -67 28 -24 17 -47 b 38 -90 17 -79 22 -90 b 47 -89 40 -90 43 -90 b 104 -3 78 -83 92 -26 b 188 161 131 51 158 107 b 235 244 201 188 215 221 b 319 261 250 263 297 258 b 553 285 396 268 475 285 b 550 110 553 228 550 168 b 557 -21 550 65 551 22 b 590 -111 560 -44 556 -111 b 599 -110 593 -111 596 -111 b 621 -68 617 -106 621 -87 b 615 -15 621 -49 617 -28 b 610 150 610 39 610 94 l 610 290 b 646 294 622 290 635 289 b 664 322 657 300 664 311 b 651 344 664 331 660 339 b 613 351 640 353 625 351 b 622 758 613 488 622 622 b 624 814 622 772 624 793 b 594 896 624 847 619 882 b 581 901 589 899 586 901 z m 565 817 l 558 553 l 557 454 l 556 378 l 551 347 l 481 338 l 271 315 b 439 617 314 419 383 518 b 565 817 476 682 514 763 z m 642 1136 l 640 1136 b 621 1129 633 1136 626 1133 b 558 1028 599 1110 567 1056 b 557 1018 557 1025 557 1021 b 575 990 557 1007 564 994 b 583 989 578 989 581 989 b 668 1097 619 989 660 1071 b 669 1107 669 1100 669 1103 b 653 1135 669 1118 664 1131 b 642 1136 650 1136 646 1136 z "},"":{"ha":794,"x_min":0,"x_max":0,"o":"m 578 901 b 540 883 564 901 550 893 b 468 781 511 854 489 815 b 282 457 403 675 343 565 b 200 313 257 414 236 347 b 154 303 189 303 168 304 b 51 293 119 300 86 297 b 0 263 31 290 0 294 b 36 233 0 243 18 233 l 44 233 b 165 244 85 233 126 239 b 33 -12 113 164 76 74 b 17 -67 28 -24 17 -47 b 38 -90 17 -79 22 -90 b 47 -89 40 -90 43 -90 b 104 -3 78 -83 92 -26 b 188 161 131 51 158 107 b 235 244 201 188 215 221 b 319 261 250 263 297 258 b 553 285 396 268 475 285 b 550 110 553 228 550 168 b 557 -21 550 65 551 22 b 590 -111 560 -44 556 -111 b 599 -110 593 -111 596 -111 b 621 -68 617 -106 621 -87 b 615 -15 621 -49 617 -28 b 610 150 610 39 610 94 l 610 290 b 646 294 622 290 635 289 b 664 322 657 300 664 311 b 651 344 664 331 660 339 b 613 351 640 353 625 351 b 622 758 613 488 622 622 b 624 814 622 772 624 793 b 594 896 624 847 619 882 b 581 901 589 899 586 901 z m 565 817 l 558 553 l 557 454 l 556 378 l 551 347 l 481 338 l 271 315 b 439 617 314 419 383 518 b 565 817 476 682 514 763 z m 597 1169 b 578 1165 592 1169 585 1168 b 501 1068 542 1150 521 1100 b 478 1032 494 1056 482 1044 b 476 1022 476 1028 476 1025 b 506 994 476 1006 490 994 b 519 997 510 994 515 994 b 596 1101 554 1015 571 1074 b 638 990 601 1071 618 1015 b 663 979 643 982 653 979 b 681 985 669 979 675 981 b 690 1007 688 992 690 999 b 678 1047 690 1021 682 1035 b 597 1169 665 1083 646 1169 z "},"":{"ha":794,"x_min":0,"x_max":0,"o":"m 578 901 b 540 883 564 901 550 893 b 468 781 511 854 489 815 b 282 457 403 675 343 565 b 200 313 257 414 236 347 b 154 303 189 303 168 304 b 51 293 119 300 86 297 b 0 263 31 290 0 294 b 36 233 0 243 18 233 l 44 233 b 165 244 85 233 126 239 b 33 -12 113 164 76 74 b 17 -67 28 -24 17 -47 b 38 -90 17 -79 22 -90 b 47 -89 40 -90 43 -90 b 104 -3 78 -83 92 -26 b 188 161 131 51 158 107 b 235 244 201 188 215 221 b 319 261 250 263 297 258 b 553 285 396 268 475 285 b 550 110 553 228 550 168 b 557 -21 550 65 551 22 b 590 -111 560 -44 556 -111 b 599 -110 593 -111 596 -111 b 621 -68 617 -106 621 -87 b 615 -15 621 -49 617 -28 b 610 150 610 39 610 94 l 610 290 b 646 294 622 290 635 289 b 664 322 657 300 664 311 b 651 344 664 331 660 339 b 613 351 640 353 625 351 b 622 758 613 488 622 622 b 624 814 622 772 624 793 b 594 896 624 847 619 882 b 581 901 589 899 586 901 z m 565 817 l 558 553 l 557 454 l 556 378 l 551 347 l 481 338 l 271 315 b 439 617 314 419 383 518 b 565 817 476 682 514 763 z m 718 1133 b 649 1054 685 1133 685 1054 b 624 1078 639 1054 629 1071 b 575 1125 610 1096 597 1117 b 554 1129 568 1128 561 1129 b 475 1050 515 1129 488 1085 b 467 1014 471 1040 467 1026 b 472 993 467 1007 468 999 b 496 981 478 985 486 981 b 518 990 504 981 513 983 b 550 1068 532 1006 542 1047 b 647 992 583 1043 601 992 b 663 994 651 992 657 993 b 743 1078 701 1003 731 1042 b 747 1103 746 1086 747 1094 b 735 1128 747 1113 744 1122 b 718 1133 728 1132 722 1133 z "},"":{"ha":794,"x_min":0,"x_max":0,"o":"m 578 901 b 540 883 564 901 550 893 b 468 781 511 854 489 815 b 282 457 403 675 343 565 b 200 313 257 414 236 347 b 154 303 189 303 168 304 b 51 293 119 300 86 297 b 0 263 31 290 0 294 b 36 233 0 243 18 233 l 44 233 b 165 244 85 233 126 239 b 33 -12 113 164 76 74 b 17 -67 28 -24 17 -47 b 38 -90 17 -79 22 -90 b 47 -89 40 -90 43 -90 b 104 -3 78 -83 92 -26 b 188 161 131 51 158 107 b 235 244 201 188 215 221 b 319 261 250 263 297 258 b 553 285 396 268 475 285 b 550 110 553 228 550 168 b 557 -21 550 65 551 22 b 590 -111 560 -44 556 -111 b 599 -110 593 -111 596 -111 b 621 -68 617 -106 621 -87 b 615 -15 621 -49 617 -28 b 610 150 610 39 610 94 l 610 290 b 646 294 622 290 635 289 b 664 322 657 300 664 311 b 651 344 664 331 660 339 b 613 351 640 353 625 351 b 622 758 613 488 622 622 b 624 814 622 772 624 793 b 594 896 624 847 619 882 b 581 901 589 899 586 901 z m 565 817 l 558 553 l 557 454 l 556 378 l 551 347 l 481 338 l 271 315 b 439 617 314 419 383 518 b 565 817 476 682 514 763 z m 618 1074 b 608 1074 614 1074 613 1075 b 585 1036 592 1068 585 1053 b 624 988 585 1013 600 988 b 635 990 628 988 631 989 b 660 1026 651 996 660 1011 b 619 1075 660 1050 643 1075 z m 531 1074 b 521 1074 526 1074 525 1075 b 497 1036 504 1068 497 1053 b 536 988 497 1013 513 988 b 547 990 540 988 543 989 b 572 1026 564 996 572 1011 b 532 1075 572 1050 556 1075 z "},"":{"ha":794,"x_min":0,"x_max":0,"o":"m 578 901 b 540 883 564 901 550 893 b 468 781 511 854 489 815 b 282 457 403 675 343 565 b 200 313 257 414 236 347 b 154 303 189 303 168 304 b 51 293 119 300 86 297 b 0 263 31 290 0 294 b 36 233 0 243 18 233 l 44 233 b 165 244 85 233 126 239 b 33 -12 113 164 76 74 b 17 -67 28 -24 17 -47 b 38 -90 17 -79 22 -90 b 47 -89 40 -90 43 -90 b 104 -3 78 -83 92 -26 b 188 161 131 51 158 107 b 235 244 201 188 215 221 b 319 261 250 263 297 258 b 553 285 396 268 475 285 b 550 110 553 228 550 168 b 557 -21 550 65 551 22 b 590 -111 560 -44 556 -111 b 599 -110 593 -111 596 -111 b 621 -68 617 -106 621 -87 b 615 -15 621 -49 617 -28 b 610 150 610 39 610 94 l 610 290 b 646 294 622 290 635 289 b 664 322 657 300 664 311 b 651 344 664 331 660 339 b 613 351 640 353 625 351 b 622 758 613 488 622 622 b 624 814 622 772 624 793 b 594 896 624 847 619 882 b 581 901 589 899 586 901 z m 565 817 l 558 553 l 557 454 l 556 378 l 551 347 l 481 338 l 271 315 b 439 617 314 419 383 518 b 565 817 476 682 514 763 z m 583 1193 b 565 1190 578 1193 571 1192 b 538 1161 550 1185 547 1172 b 496 1090 518 1139 499 1121 l 496 1079 b 583 993 496 1028 536 993 b 617 999 594 993 606 994 b 689 1097 658 1013 689 1054 b 686 1117 689 1104 688 1110 b 585 1193 678 1154 628 1193 l 583 1194 z m 607 1122 b 631 1096 622 1122 631 1110 b 629 1088 631 1093 631 1090 b 583 1051 624 1068 604 1053 l 582 1051 b 556 1081 564 1051 556 1065 b 560 1099 556 1088 557 1093 b 604 1122 568 1114 588 1121 z "},"":{"ha":1288,"x_min":0,"x_max":0,"o":"m 565 817 b 558 553 564 729 560 640 l 557 454 l 556 378 l 551 347 l 481 338 l 271 315 b 439 617 314 419 383 518 b 565 817 476 682 514 763 z m 578 901 b 540 883 564 901 550 893 b 468 781 511 854 489 815 b 282 457 403 675 343 565 b 200 313 257 414 236 347 b 154 303 189 303 168 304 b 51 292 119 300 86 296 b 0 263 31 289 0 294 b 36 233 0 243 18 233 l 44 233 b 165 244 85 233 126 239 b 33 -12 113 164 76 74 b 17 -67 28 -24 17 -47 b 38 -90 17 -79 22 -90 b 47 -89 40 -90 43 -90 b 104 -3 78 -83 92 -26 b 188 161 131 51 158 107 b 235 244 201 188 215 221 b 319 261 250 263 297 258 b 553 285 396 268 475 285 b 550 76 553 217 550 146 b 557 -21 550 43 553 11 b 590 -111 560 -44 556 -111 b 599 -110 593 -111 596 -111 b 621 -68 617 -106 621 -87 b 729 -96 653 -86 693 -93 b 753 -97 738 -96 744 -97 b 1200 97 913 -97 1076 7 b 1294 168 1232 121 1264 143 b 1326 211 1307 179 1326 190 b 1296 239 1326 228 1311 239 b 1285 238 1292 239 1289 239 b 1185 161 1250 225 1215 183 b 794 -33 1071 78 938 -14 b 742 -37 778 -36 760 -37 b 625 7 697 -37 651 -26 b 613 31 619 15 615 22 b 610 86 611 49 610 68 b 639 154 615 110 626 133 b 892 413 699 258 797 342 b 996 499 921 433 986 463 b 999 511 997 503 999 507 b 957 542 999 533 978 542 b 946 540 953 542 949 540 b 763 532 914 536 832 532 b 669 538 724 532 688 533 b 619 600 635 546 619 569 l 619 607 b 651 665 621 632 642 650 b 813 801 692 724 749 771 b 879 822 832 810 857 822 b 894 821 885 822 890 822 b 915 794 914 815 915 806 l 915 776 b 922 753 915 768 917 760 b 942 744 928 746 935 744 b 971 763 953 744 965 751 b 979 796 976 774 979 785 b 924 874 979 829 956 863 b 883 881 910 878 897 881 l 881 881 b 818 869 860 881 838 876 b 622 729 744 846 674 793 l 622 758 b 624 814 622 772 624 793 b 594 896 624 847 619 882 b 581 901 589 899 586 901 z m 615 494 b 656 479 626 488 640 483 b 871 472 685 472 840 472 b 678 306 803 424 733 368 b 610 219 653 278 631 250 l 610 290 b 646 294 622 290 635 289 b 664 322 657 300 664 311 b 651 344 664 331 660 339 b 613 351 640 353 625 351 b 615 494 613 399 614 447 z "},"":{"ha":713,"x_min":0,"x_max":0,"o":"m 553 885 l 544 885 b 276 738 440 874 349 810 b 10 251 147 608 42 433 b 0 140 4 217 0 178 b 169 -114 0 24 38 -93 b 176 -115 172 -114 174 -115 b 169 -165 174 -131 169 -149 b 182 -197 169 -178 174 -189 b 200 -204 188 -203 193 -204 b 236 -199 213 -204 224 -199 b 243 -200 239 -199 242 -200 b 204 -256 235 -222 224 -242 b 165 -282 192 -265 174 -267 b 161 -297 163 -287 161 -293 b 196 -319 161 -314 178 -319 b 225 -314 207 -319 218 -318 b 299 -197 264 -296 299 -240 b 238 -139 299 -167 282 -143 b 239 -114 239 -128 239 -122 b 264 -111 247 -114 256 -112 b 657 110 404 -89 551 22 b 736 182 685 132 713 156 b 751 213 744 190 751 201 b 750 221 751 215 751 218 b 724 240 746 233 735 240 b 704 235 718 240 710 239 b 601 143 668 210 636 172 b 267 -49 508 67 386 -19 b 208 -57 247 -53 228 -57 b 99 -12 167 -57 126 -46 b 57 133 67 25 57 81 b 64 218 57 163 60 193 b 339 714 96 404 200 588 b 547 825 392 763 471 825 b 599 771 579 825 599 801 b 556 632 599 722 579 672 b 526 593 547 618 535 607 b 522 576 524 588 522 582 b 549 547 522 563 532 549 l 550 547 b 619 626 586 547 607 600 b 657 772 638 663 657 721 b 585 881 657 822 639 867 b 553 885 575 883 564 885 z "},"":{"ha":739,"x_min":0,"x_max":0,"o":"m 457 881 b 394 869 436 881 414 876 b 154 660 296 836 201 753 b 136 589 142 636 136 611 b 232 479 136 538 168 494 b 322 472 261 472 292 472 b 129 306 254 424 185 368 b 33 175 93 264 61 222 b 0 58 14 140 0 99 b 63 -61 0 11 18 -32 b 181 -96 97 -83 140 -93 b 204 -97 189 -96 196 -97 b 651 97 364 -97 528 7 b 746 168 683 121 715 143 b 778 211 758 179 778 190 b 747 239 778 228 763 239 b 736 238 743 239 740 239 b 636 161 701 225 667 183 b 246 -33 522 78 389 -14 b 193 -37 229 -36 211 -37 b 76 7 149 -37 103 -26 b 58 61 63 24 58 43 b 90 154 58 93 74 125 b 343 413 150 258 249 342 b 447 499 372 433 438 463 b 450 511 449 503 450 507 b 408 542 450 533 429 542 b 397 540 404 542 400 540 b 301 532 365 536 333 532 b 246 538 283 532 264 533 b 194 572 226 542 203 551 b 192 586 193 576 192 581 b 228 665 192 614 214 646 b 389 801 268 724 325 771 b 456 822 408 810 433 822 b 471 821 461 822 467 822 b 492 794 490 815 492 806 l 492 776 b 499 753 492 768 493 760 b 518 744 504 746 511 744 b 547 763 529 744 542 751 b 556 796 553 774 556 785 b 500 874 556 829 532 863 b 460 881 486 878 474 881 z m 353 1133 b 342 1132 349 1133 344 1133 b 325 1104 331 1128 325 1115 b 326 1094 325 1100 325 1097 b 411 986 335 1068 375 986 b 419 988 414 986 417 986 b 438 1015 431 992 438 1004 b 436 1025 438 1018 438 1022 b 374 1126 428 1053 396 1107 b 354 1133 368 1131 361 1133 z "},"":{"ha":739,"x_min":0,"x_max":0,"o":"m 457 881 b 394 869 436 881 414 876 b 154 660 296 836 201 753 b 136 589 142 636 136 611 b 232 479 136 538 168 494 b 322 472 261 472 292 472 b 129 306 254 424 185 368 b 33 175 93 264 61 222 b 0 58 14 140 0 99 b 63 -61 0 11 18 -32 b 181 -96 97 -83 140 -93 b 204 -97 189 -96 196 -97 b 651 97 364 -97 528 7 b 746 168 683 121 715 143 b 778 211 758 179 778 190 b 747 239 778 228 763 239 b 736 238 743 239 740 239 b 636 161 701 225 667 183 b 246 -33 522 78 389 -14 b 193 -37 229 -36 211 -37 b 76 7 149 -37 103 -26 b 58 61 63 24 58 43 b 90 154 58 93 74 125 b 343 413 150 258 249 342 b 447 499 372 433 438 463 b 450 511 449 503 450 507 b 408 542 450 533 429 542 b 397 540 404 542 400 540 b 301 532 365 536 333 532 b 246 538 283 532 264 533 b 194 572 226 542 203 551 b 192 586 193 576 192 581 b 228 665 192 614 214 646 b 389 801 268 724 325 771 b 456 822 408 810 433 822 b 471 821 461 822 467 822 b 492 794 490 815 492 806 l 492 776 b 499 753 492 768 493 760 b 518 744 504 746 511 744 b 547 763 529 744 542 751 b 556 796 553 774 556 785 b 500 874 556 829 532 863 b 460 881 486 878 474 881 z m 485 1132 l 483 1132 b 464 1125 476 1132 469 1129 b 401 1024 442 1106 410 1051 b 400 1014 400 1021 400 1017 b 418 986 400 1003 407 990 b 426 985 421 985 424 985 b 511 1093 463 985 503 1067 b 513 1103 513 1096 513 1099 b 496 1131 513 1114 507 1126 b 485 1132 493 1132 489 1132 z "},"":{"ha":739,"x_min":0,"x_max":0,"o":"m 457 881 b 394 869 436 881 414 876 b 154 660 296 836 201 753 b 136 589 142 636 136 611 b 232 479 136 538 168 494 b 322 472 261 472 292 472 b 129 306 254 424 185 368 b 33 175 93 264 61 222 b 0 58 14 140 0 99 b 63 -61 0 11 18 -32 b 181 -96 97 -83 140 -93 b 204 -97 189 -96 196 -97 b 651 97 364 -97 528 7 b 746 168 683 121 715 143 b 778 211 758 179 778 190 b 747 239 778 228 763 239 b 736 238 743 239 740 239 b 636 161 701 225 667 183 b 246 -33 522 78 389 -14 b 193 -37 229 -36 211 -37 b 76 7 149 -37 103 -26 b 58 61 63 24 58 43 b 90 154 58 93 74 125 b 343 413 150 258 249 342 b 447 499 372 433 438 463 b 450 511 449 503 450 507 b 408 542 450 533 429 542 b 397 540 404 542 400 540 b 301 532 365 536 333 532 b 246 538 283 532 264 533 b 194 572 226 542 203 551 b 192 586 193 576 192 581 b 228 665 192 614 214 646 b 389 801 268 724 325 771 b 456 822 408 810 433 822 b 471 821 461 822 467 822 b 492 794 490 815 492 806 l 492 776 b 499 753 492 768 493 760 b 518 744 504 746 511 744 b 547 763 529 744 542 751 b 556 796 553 774 556 785 b 500 874 556 829 532 863 b 460 881 486 878 474 881 z m 440 1165 b 421 1161 435 1165 428 1164 b 344 1064 385 1146 364 1096 b 321 1028 338 1051 325 1040 b 319 1018 319 1024 319 1021 b 349 990 319 1001 333 990 b 363 993 353 990 358 990 b 439 1097 397 1011 414 1069 b 481 986 444 1067 461 1011 b 506 975 486 978 496 975 b 524 981 513 975 518 976 b 533 1003 531 988 533 994 b 521 1043 533 1017 525 1031 b 440 1165 508 1079 489 1165 z "},"":{"ha":739,"x_min":0,"x_max":0,"o":"m 457 881 b 394 869 436 881 414 876 b 154 660 296 836 201 753 b 136 589 142 636 136 611 b 232 479 136 538 168 494 b 322 472 261 472 292 472 b 129 306 254 424 185 368 b 33 175 93 264 61 222 b 0 58 14 140 0 99 b 63 -61 0 11 18 -32 b 181 -96 97 -83 140 -93 b 204 -97 189 -96 196 -97 b 651 97 364 -97 528 7 b 746 168 683 121 715 143 b 778 211 758 179 778 190 b 747 239 778 228 763 239 b 736 238 743 239 740 239 b 636 161 701 225 667 183 b 246 -33 522 78 389 -14 b 193 -37 229 -36 211 -37 b 76 7 149 -37 103 -26 b 58 61 63 24 58 43 b 90 154 58 93 74 125 b 343 413 150 258 249 342 b 447 499 372 433 438 463 b 450 511 449 503 450 507 b 408 542 450 533 429 542 b 397 540 404 542 400 540 b 301 532 365 536 333 532 b 246 538 283 532 264 533 b 194 572 226 542 203 551 b 192 586 193 576 192 581 b 228 665 192 614 214 646 b 389 801 268 724 325 771 b 456 822 408 810 433 822 b 471 821 461 822 467 822 b 492 794 490 815 492 806 l 492 776 b 499 753 492 768 493 760 b 518 744 504 746 511 744 b 547 763 529 744 542 751 b 556 796 553 774 556 785 b 500 874 556 829 532 863 b 460 881 486 878 474 881 z m 461 1069 b 451 1069 457 1069 456 1071 b 428 1032 435 1064 428 1049 b 467 983 428 1008 443 983 b 478 986 471 983 474 985 b 503 1022 494 992 503 1007 b 463 1071 503 1046 486 1071 z m 374 1069 b 364 1069 369 1069 368 1071 b 340 1032 347 1064 340 1049 b 379 983 340 1008 356 983 b 390 986 383 983 386 985 b 415 1022 407 992 415 1007 b 375 1071 415 1046 399 1071 z "},"":{"ha":574,"x_min":0,"x_max":0,"o":"m 388 947 b 288 888 350 947 311 911 b 53 575 197 796 117 686 b 3 472 33 542 15 508 b 0 456 1 467 0 461 b 17 429 0 444 4 435 b 51 436 28 425 43 426 b 106 544 75 464 88 513 b 282 792 156 632 218 714 b 389 889 311 828 344 869 b 392 832 392 869 392 851 b 363 608 392 757 376 682 b 267 133 333 450 299 292 b 240 -42 256 75 247 17 b 239 -65 239 -49 239 -57 b 264 -99 239 -82 243 -97 l 267 -99 b 299 -49 293 -99 296 -69 b 326 133 307 13 314 74 b 442 726 365 331 413 526 b 456 842 446 756 456 800 b 421 936 456 881 447 917 b 388 947 410 944 399 947 z m 342 1200 b 331 1199 338 1200 333 1200 b 314 1171 319 1194 314 1182 b 315 1161 314 1167 314 1164 b 400 1053 324 1135 364 1053 b 408 1054 403 1053 406 1053 b 426 1082 419 1058 426 1071 b 425 1092 426 1085 426 1089 b 363 1193 417 1119 385 1174 b 343 1200 357 1197 350 1200 z "},"":{"ha":574,"x_min":0,"x_max":0,"o":"m 388 947 b 288 888 350 947 311 911 b 53 575 197 796 117 686 b 3 472 33 542 15 508 b 0 456 1 467 0 461 b 17 429 0 444 4 435 b 51 436 28 425 43 426 b 106 544 75 464 88 513 b 282 792 156 632 218 714 b 389 889 311 828 344 869 b 392 832 392 869 392 851 b 363 608 392 757 376 682 b 267 133 333 450 299 292 b 240 -42 256 75 247 17 b 239 -65 239 -49 239 -57 b 264 -99 239 -82 243 -97 l 267 -99 b 299 -49 293 -99 296 -69 b 326 133 307 13 314 74 b 442 726 365 331 413 526 b 456 842 446 756 456 800 b 421 936 456 881 447 917 b 388 947 410 944 399 947 z m 474 1199 l 472 1199 b 453 1192 465 1199 458 1196 b 390 1090 431 1172 399 1118 b 389 1081 389 1088 389 1083 b 407 1053 389 1069 396 1057 b 415 1051 410 1051 413 1051 b 500 1160 451 1051 492 1133 b 501 1169 501 1163 501 1165 b 485 1197 501 1181 496 1193 b 474 1199 482 1199 478 1199 z "},"":{"ha":574,"x_min":0,"x_max":0,"o":"m 388 947 b 288 888 350 947 311 911 b 53 575 197 796 117 686 b 3 472 33 542 15 508 b 0 456 1 467 0 461 b 17 429 0 444 4 435 b 51 436 28 425 43 426 b 106 544 75 464 88 513 b 282 792 156 632 218 714 b 389 889 311 828 344 869 b 392 832 392 869 392 851 b 363 608 392 757 376 682 b 267 133 333 450 299 292 b 240 -42 256 75 247 17 b 239 -65 239 -49 239 -57 b 264 -99 239 -82 243 -97 l 267 -99 b 299 -49 293 -99 296 -69 b 326 133 307 13 314 74 b 442 726 365 331 413 526 b 456 842 446 756 456 800 b 421 936 456 881 447 917 b 388 947 410 944 399 947 z m 429 1232 b 410 1228 424 1232 417 1231 b 333 1131 374 1213 353 1163 b 310 1094 326 1118 314 1107 b 308 1085 308 1090 308 1088 b 338 1057 308 1068 322 1057 b 351 1060 342 1057 347 1057 b 428 1164 386 1078 403 1136 b 469 1053 433 1133 450 1078 b 494 1042 475 1044 485 1042 b 513 1047 501 1042 507 1043 b 522 1069 519 1054 522 1061 b 510 1110 522 1083 514 1097 b 429 1232 497 1146 478 1232 z "},"":{"ha":574,"x_min":0,"x_max":0,"o":"m 388 947 b 288 888 350 947 311 911 b 53 575 197 796 117 686 b 3 472 33 542 15 508 b 0 456 1 467 0 461 b 17 429 0 444 4 435 b 51 436 28 425 43 426 b 106 544 75 464 88 513 b 282 792 156 632 218 714 b 389 889 311 828 344 869 b 392 832 392 869 392 851 b 363 608 392 757 376 682 b 267 133 333 450 299 292 b 240 -42 256 75 247 17 b 239 -65 239 -49 239 -57 b 264 -99 239 -82 243 -97 l 267 -99 b 299 -49 293 -99 296 -69 b 326 133 307 13 314 74 b 442 726 365 331 413 526 b 456 842 446 756 456 800 b 421 936 456 881 447 917 b 388 947 410 944 399 947 z m 450 1136 b 440 1136 446 1136 444 1138 b 417 1099 424 1131 417 1115 b 456 1050 417 1075 432 1050 b 467 1053 460 1050 463 1051 b 492 1089 483 1058 492 1074 b 451 1138 492 1113 475 1138 z m 363 1136 b 353 1136 358 1136 357 1138 b 329 1099 336 1131 329 1115 b 368 1050 329 1075 344 1050 b 379 1053 372 1050 375 1051 b 404 1089 396 1058 404 1074 b 364 1138 404 1113 388 1138 z "},"":{"ha":807,"x_min":0,"x_max":0,"o":"m 463 858 l 471 858 b 643 765 540 857 607 833 b 671 633 664 725 671 679 b 665 553 671 606 669 579 b 381 78 640 375 526 183 b 206 -15 332 43 267 -6 b 244 354 206 107 231 232 b 251 413 247 374 249 393 b 306 415 269 414 288 414 l 311 415 l 343 415 b 385 424 358 415 374 417 b 396 447 393 429 396 439 b 382 472 396 457 392 467 b 361 476 376 475 368 476 b 339 475 354 476 346 476 b 260 471 313 472 286 471 l 281 608 l 306 763 b 319 828 308 781 307 813 b 401 853 333 846 379 849 b 463 858 421 856 442 858 z m 301 919 b 288 915 297 919 292 918 b 260 871 269 906 275 883 b 129 778 218 838 163 825 b 121 751 124 769 121 760 b 146 722 121 736 129 722 b 157 724 149 722 153 722 b 196 760 174 728 183 749 b 251 799 213 774 233 786 l 215 572 l 203 469 b 138 467 181 469 160 469 b 72 446 117 464 82 471 b 69 431 69 440 69 435 b 119 407 69 408 97 407 l 126 407 l 128 407 b 194 408 150 407 172 407 l 165 193 l 144 -33 b 110 -35 133 -33 122 -35 b 72 -28 97 -35 83 -33 b 33 1 57 -21 51 -1 b 28 3 32 1 29 3 b 0 -28 13 3 0 -10 b 49 -82 0 -54 26 -74 b 113 -94 69 -90 90 -94 b 218 -75 149 -94 185 -86 b 622 269 393 -17 531 111 b 672 369 640 301 657 335 b 729 633 704 443 729 542 b 556 906 729 754 685 865 b 476 917 531 914 503 917 l 453 917 b 329 894 411 914 369 910 b 301 919 325 907 314 919 z "},"":{"ha":983,"x_min":0,"x_max":0,"o":"m 374 958 b 274 901 336 958 299 925 b 58 635 193 822 121 728 b 0 521 43 613 0 558 b 7 500 0 513 3 506 b 28 486 14 490 21 486 b 78 550 51 486 68 533 b 274 814 132 644 201 732 b 343 881 294 838 318 861 b 375 889 350 886 368 903 b 378 865 378 883 378 874 b 374 822 378 850 375 833 b 347 675 367 772 358 724 b 219 131 306 493 258 313 b 188 -49 207 71 196 11 b 185 -69 186 -56 185 -61 b 207 -107 185 -86 189 -103 b 215 -108 210 -108 213 -108 b 251 -75 233 -108 244 -92 b 303 72 271 -26 285 24 b 593 671 381 279 478 482 b 708 822 626 725 663 779 b 756 856 717 831 740 856 b 763 853 758 856 761 854 b 775 804 775 844 775 818 l 775 776 b 769 668 775 740 774 704 b 682 115 747 482 703 301 b 664 -51 676 60 671 4 l 664 -64 b 690 -103 664 -82 668 -101 l 693 -103 b 724 -54 719 -103 722 -76 b 743 128 726 7 735 68 b 807 501 761 253 788 376 b 832 714 818 571 832 643 b 836 799 832 738 836 768 b 796 907 836 842 829 885 b 760 918 785 915 772 918 b 611 804 701 918 640 842 b 378 399 515 685 442 538 b 310 244 356 349 322 297 b 347 418 310 304 335 365 b 426 771 376 535 407 651 b 438 867 431 794 438 832 b 394 956 438 906 429 943 b 374 958 388 958 381 958 z m 726 1183 b 657 1104 693 1183 693 1104 b 632 1128 647 1104 638 1121 b 583 1175 618 1146 606 1167 b 563 1179 576 1178 569 1179 b 483 1100 524 1179 496 1135 b 475 1064 479 1090 475 1076 b 481 1043 475 1057 476 1049 b 504 1031 486 1035 494 1031 b 526 1040 513 1031 521 1033 b 558 1118 540 1056 550 1097 b 656 1042 592 1093 610 1042 b 671 1044 660 1042 665 1043 b 751 1128 710 1053 739 1092 b 756 1153 754 1136 756 1144 b 743 1178 756 1163 753 1172 b 726 1183 736 1182 731 1183 z "},"":{"ha":840,"x_min":0,"x_max":0,"o":"m 399 906 b 363 903 388 906 375 904 b 0 360 121 868 0 578 b 11 267 0 329 3 296 b 26 228 15 253 25 242 b 193 -97 36 104 35 -68 b 239 -103 208 -100 224 -103 b 260 -101 246 -103 253 -103 b 493 28 351 -90 429 -36 b 690 526 622 157 690 344 b 689 575 690 543 690 558 b 401 906 678 738 572 906 b 399 907 400 906 400 907 z m 401 847 l 408 847 b 435 844 418 847 425 846 b 535 797 472 839 508 825 b 635 524 607 724 635 625 b 485 107 635 372 571 213 b 238 -47 433 44 332 -47 b 169 -28 214 -47 192 -40 b 90 122 117 3 100 65 b 83 201 86 149 83 175 b 150 514 83 308 114 417 b 231 647 169 567 197 603 b 229 683 239 658 239 674 b 208 692 222 690 215 692 b 160 657 189 692 171 671 b 75 475 121 606 90 538 b 74 492 74 479 74 486 b 113 611 74 529 100 583 b 401 847 161 729 268 846 z m 10 521 b 13 524 10 521 13 524 b 10 521 13 524 10 521 z m 338 1181 b 326 1179 333 1181 329 1181 b 310 1151 315 1175 310 1163 b 311 1142 310 1147 310 1144 b 396 1033 319 1115 360 1033 b 404 1035 399 1033 401 1033 b 422 1063 415 1039 422 1051 b 421 1072 422 1065 422 1069 b 358 1174 413 1100 381 1154 b 339 1181 353 1178 346 1181 z "},"":{"ha":840,"x_min":0,"x_max":0,"o":"m 399 906 b 363 903 388 906 375 904 b 0 360 121 868 0 578 b 11 267 0 329 3 296 b 26 228 15 253 25 242 b 193 -97 36 104 35 -68 b 239 -103 208 -100 224 -103 b 260 -101 246 -103 253 -103 b 493 28 351 -90 429 -36 b 690 526 622 157 690 344 b 689 575 690 543 690 558 b 401 906 678 738 572 906 b 399 907 400 906 400 907 z m 401 847 l 408 847 b 435 844 418 847 425 846 b 535 797 472 839 508 825 b 635 524 607 724 635 625 b 485 107 635 372 571 213 b 238 -47 433 44 332 -47 b 169 -28 214 -47 192 -40 b 90 122 117 3 100 65 b 83 201 86 149 83 175 b 150 514 83 308 114 417 b 231 647 169 567 197 603 b 229 683 239 658 239 674 b 208 692 222 690 215 692 b 160 657 189 692 171 671 b 75 475 121 606 90 538 b 74 492 74 479 74 486 b 113 611 74 529 100 583 b 401 847 161 729 268 846 z m 10 521 b 13 524 10 521 13 524 b 10 521 13 524 10 521 z m 469 1179 l 468 1179 b 449 1172 461 1179 454 1176 b 386 1071 426 1153 394 1099 b 385 1061 385 1068 385 1064 b 403 1033 385 1050 392 1038 b 411 1032 406 1032 408 1032 b 496 1140 447 1032 488 1114 b 497 1150 497 1143 497 1146 b 481 1178 497 1161 492 1174 b 469 1179 478 1179 474 1179 z "},"":{"ha":840,"x_min":0,"x_max":0,"o":"m 399 906 b 363 903 388 906 375 904 b 0 360 121 868 0 578 b 11 267 0 329 3 296 b 26 228 15 253 25 242 b 193 -97 36 104 35 -68 b 239 -103 208 -100 224 -103 b 260 -101 246 -103 253 -103 b 493 28 351 -90 429 -36 b 690 526 622 157 690 344 b 689 575 690 543 690 558 b 401 906 678 738 572 906 b 399 907 400 906 400 907 z m 401 847 l 408 847 b 435 844 418 847 425 846 b 535 797 472 839 508 825 b 635 524 607 724 635 625 b 485 107 635 372 571 213 b 238 -47 433 44 332 -47 b 169 -28 214 -47 192 -40 b 90 122 117 3 100 65 b 83 201 86 149 83 175 b 150 514 83 308 114 417 b 231 647 169 567 197 603 b 229 683 239 658 239 674 b 208 692 222 690 215 692 b 160 657 189 692 171 671 b 75 475 121 606 90 538 b 74 492 74 479 74 486 b 113 611 74 529 100 583 b 401 847 161 729 268 846 z m 10 521 b 13 524 10 521 13 524 b 10 521 13 524 10 521 z m 425 1213 b 406 1208 419 1213 413 1211 b 329 1111 369 1193 349 1143 b 306 1075 322 1099 310 1088 b 304 1065 304 1071 304 1068 b 333 1038 304 1049 318 1038 b 347 1040 338 1038 343 1038 b 424 1144 382 1058 399 1117 b 465 1033 429 1114 446 1058 b 490 1022 471 1025 481 1022 b 508 1028 497 1022 503 1024 b 518 1050 515 1035 518 1042 b 506 1090 518 1064 510 1078 b 425 1213 493 1126 474 1213 z "},"":{"ha":840,"x_min":0,"x_max":0,"o":"m 399 906 b 363 903 388 906 375 904 b 0 360 121 868 0 578 b 11 267 0 329 3 296 b 26 228 15 253 25 242 b 193 -97 36 104 35 -68 b 239 -103 208 -100 224 -103 b 260 -101 246 -103 253 -103 b 493 28 351 -90 429 -36 b 690 526 622 157 690 344 b 689 575 690 543 690 558 b 401 906 678 738 572 906 b 399 907 400 906 400 907 z m 401 847 l 408 847 b 435 844 418 847 425 846 b 535 797 472 839 508 825 b 635 524 607 724 635 625 b 485 107 635 372 571 213 b 238 -47 433 44 332 -47 b 169 -28 214 -47 192 -40 b 90 122 117 3 100 65 b 83 201 86 149 83 175 b 150 514 83 308 114 417 b 231 647 169 567 197 603 b 229 683 239 658 239 674 b 208 692 222 690 215 692 b 160 657 189 692 171 671 b 75 475 121 606 90 538 b 74 492 74 479 74 486 b 113 611 74 529 100 583 b 401 847 161 729 268 846 z m 10 521 b 13 524 10 521 13 524 b 10 521 13 524 10 521 z m 546 1176 b 476 1097 513 1176 513 1097 b 451 1121 467 1097 457 1114 b 403 1168 438 1139 425 1160 b 382 1172 396 1171 389 1172 b 303 1093 343 1172 315 1128 b 294 1057 299 1083 294 1069 b 300 1036 294 1050 296 1042 b 324 1024 306 1028 314 1024 b 346 1033 332 1024 340 1026 b 378 1111 360 1049 369 1090 b 475 1035 411 1086 429 1035 b 490 1038 479 1035 485 1036 b 571 1121 529 1046 558 1085 b 575 1146 574 1129 575 1138 b 563 1171 575 1156 572 1165 b 546 1176 556 1175 550 1176 z "},"":{"ha":840,"x_min":0,"x_max":0,"o":"m 399 906 b 363 903 388 906 375 904 b 0 360 121 868 0 578 b 11 267 0 329 3 296 b 26 228 15 253 25 242 b 193 -97 36 104 35 -68 b 239 -103 208 -100 224 -103 b 260 -101 246 -103 253 -103 b 493 28 351 -90 429 -36 b 690 526 622 157 690 344 b 689 575 690 543 690 558 b 401 906 678 738 572 906 b 399 907 400 906 400 907 z m 401 847 l 408 847 b 435 844 418 847 425 846 b 535 797 472 839 508 825 b 635 524 607 724 635 625 b 485 107 635 372 571 213 b 238 -47 433 44 332 -47 b 169 -28 214 -47 192 -40 b 90 122 117 3 100 65 b 83 201 86 149 83 175 b 150 514 83 308 114 417 b 231 647 169 567 197 603 b 229 683 239 658 239 674 b 208 692 222 690 215 692 b 160 657 189 692 171 671 b 75 475 121 606 90 538 b 74 492 74 479 74 486 b 113 611 74 529 100 583 b 401 847 161 729 268 846 z m 10 521 b 13 524 10 521 13 524 b 10 521 13 524 10 521 z m 446 1117 b 436 1117 442 1117 440 1118 b 413 1079 419 1111 413 1096 b 451 1031 413 1056 428 1031 b 463 1033 456 1031 458 1032 b 488 1069 479 1039 488 1054 b 447 1118 488 1093 471 1118 z m 358 1117 b 349 1117 354 1117 353 1118 b 325 1079 332 1111 325 1096 b 364 1031 325 1056 340 1031 b 375 1033 368 1031 371 1032 b 400 1069 392 1039 400 1054 b 360 1118 400 1093 383 1118 z "},"":{"ha":840,"x_min":0,"x_max":0,"o":"m 401 847 l 408 847 b 435 844 418 847 425 846 b 535 797 472 839 508 825 l 538 794 b 497 725 525 771 511 747 l 124 103 b 101 68 117 92 108 79 b 90 122 96 86 93 104 b 83 201 86 149 83 175 b 150 514 83 308 114 417 b 231 647 169 567 197 603 b 229 683 239 658 239 674 b 208 692 222 690 215 692 b 160 657 189 692 171 671 b 75 475 121 606 90 538 b 74 492 74 479 74 486 b 113 611 74 529 100 583 b 401 847 161 729 268 846 z m 399 907 b 363 903 388 907 375 904 b 0 360 121 868 0 578 b 11 267 0 329 3 296 b 26 228 15 253 25 242 b 64 6 32 158 35 72 b 18 -64 49 -18 33 -42 b -1 -107 10 -76 -1 -92 b 13 -131 -1 -115 3 -124 b 29 -136 18 -135 24 -136 b 72 -103 47 -136 63 -118 b 103 -53 82 -86 93 -69 b 193 -97 125 -75 154 -90 b 239 -103 208 -100 224 -103 b 260 -101 246 -103 253 -103 b 493 28 351 -90 429 -36 b 690 526 622 157 690 344 b 689 575 690 543 690 558 b 613 792 683 651 657 731 b 638 832 621 806 629 818 b 651 869 644 843 651 857 b 646 886 651 875 650 881 b 640 893 644 889 643 890 b 622 900 635 899 628 900 b 585 874 608 900 593 886 b 565 843 578 864 572 853 b 401 906 521 882 467 906 b 399 907 400 906 400 907 z m 136 0 b 176 64 150 21 163 43 b 551 686 304 269 426 479 l 581 736 b 635 524 618 674 635 599 b 485 107 635 372 571 213 b 238 -47 433 44 332 -47 b 169 -28 214 -47 192 -40 b 136 0 157 -21 146 -11 z "},"":{"ha":1038,"x_min":0,"x_max":0,"o":"m 925 908 b 888 867 906 908 894 883 b 810 675 864 803 839 736 b 518 138 724 490 638 304 b 344 -18 479 83 418 -10 l 339 -18 b 286 29 313 -18 294 7 b 271 140 272 64 271 101 l 271 194 b 357 706 275 365 325 539 b 375 825 363 735 375 782 b 353 894 375 854 369 879 b 322 907 343 903 333 907 b 215 826 281 907 236 851 b 44 572 153 747 93 661 b 0 471 29 546 0 503 b 31 440 0 451 15 440 b 51 450 39 440 46 443 b 71 494 61 461 65 481 b 113 569 82 521 97 544 b 182 679 135 607 158 643 b 314 842 221 736 261 796 b 282 624 314 769 296 694 b 217 240 257 497 226 369 b 211 135 214 206 211 169 b 233 1 211 89 217 44 b 258 -40 239 -14 249 -28 b 333 -78 281 -67 307 -78 b 479 -4 386 -78 442 -37 b 717 346 582 88 653 226 b 797 510 744 397 781 454 l 797 501 b 781 418 797 475 786 444 b 743 225 768 354 754 290 b 710 -44 728 136 710 46 b 736 -121 710 -64 710 -121 b 757 -111 742 -121 749 -118 b 769 -83 767 -104 769 -94 b 767 -51 769 -72 767 -62 b 781 86 767 -6 774 42 b 896 649 808 276 850 463 b 947 839 911 713 929 775 b 954 876 950 850 954 864 b 939 904 954 888 950 899 b 925 908 933 907 929 908 z m 558 1156 b 547 1154 554 1156 550 1156 b 531 1126 536 1150 531 1138 b 532 1117 531 1122 531 1119 b 617 1008 540 1090 581 1008 b 625 1010 619 1008 622 1008 b 643 1038 636 1014 643 1026 b 642 1047 643 1040 643 1044 b 579 1149 633 1075 601 1129 b 560 1156 574 1153 567 1156 z "},"":{"ha":1038,"x_min":0,"x_max":0,"o":"m 925 908 b 888 867 906 908 894 883 b 810 675 864 803 839 736 b 518 138 724 490 638 304 b 344 -18 479 83 418 -10 l 339 -18 b 286 29 313 -18 294 7 b 271 140 272 64 271 101 l 271 194 b 357 706 275 365 325 539 b 375 825 363 735 375 782 b 353 894 375 854 369 879 b 322 907 343 903 333 907 b 215 826 281 907 236 851 b 44 572 153 747 93 661 b 0 471 29 546 0 503 b 31 440 0 451 15 440 b 51 450 39 440 46 443 b 71 494 61 461 65 481 b 113 569 82 521 97 544 b 182 679 135 607 158 643 b 314 842 221 736 261 796 b 282 624 314 769 296 694 b 217 240 257 497 226 369 b 211 135 214 206 211 169 b 233 1 211 89 217 44 b 258 -40 239 -14 249 -28 b 333 -78 281 -67 307 -78 b 479 -4 386 -78 442 -37 b 717 346 582 88 653 226 b 797 510 744 397 781 454 l 797 501 b 781 418 797 475 786 444 b 743 225 768 354 754 290 b 710 -44 728 136 710 46 b 736 -121 710 -64 710 -121 b 757 -111 742 -121 749 -118 b 769 -83 767 -104 769 -94 b 767 -51 769 -72 767 -62 b 781 86 767 -6 774 42 b 896 649 808 276 850 463 b 947 839 911 713 929 775 b 954 876 950 850 954 864 b 939 904 954 888 950 899 b 925 908 933 907 929 908 z m 690 1154 l 689 1154 b 669 1147 682 1154 675 1151 b 607 1046 647 1128 615 1074 b 606 1036 606 1043 606 1039 b 624 1008 606 1025 613 1013 b 632 1007 626 1007 629 1007 b 717 1115 668 1007 708 1089 b 718 1125 718 1118 718 1121 b 701 1153 718 1136 713 1149 b 690 1154 699 1154 694 1154 z "},"":{"ha":1038,"x_min":0,"x_max":0,"o":"m 925 908 b 888 867 906 908 894 883 b 810 675 864 803 839 736 b 518 138 724 490 638 304 b 344 -18 479 83 418 -10 l 339 -18 b 286 29 313 -18 294 7 b 271 140 272 64 271 101 l 271 194 b 357 706 275 365 325 539 b 375 825 363 735 375 782 b 353 894 375 854 369 879 b 322 907 343 903 333 907 b 215 826 281 907 236 851 b 44 572 153 747 93 661 b 0 471 29 546 0 503 b 31 440 0 451 15 440 b 51 450 39 440 46 443 b 71 494 61 461 65 481 b 113 569 82 521 97 544 b 182 679 135 607 158 643 b 314 842 221 736 261 796 b 282 624 314 769 296 694 b 217 240 257 497 226 369 b 211 135 214 206 211 169 b 233 1 211 89 217 44 b 258 -40 239 -14 249 -28 b 333 -78 281 -67 307 -78 b 479 -4 386 -78 442 -37 b 717 346 582 88 653 226 b 797 510 744 397 781 454 l 797 501 b 781 418 797 475 786 444 b 743 225 768 354 754 290 b 710 -44 728 136 710 46 b 736 -121 710 -64 710 -121 b 757 -111 742 -121 749 -118 b 769 -83 767 -104 769 -94 b 767 -51 769 -72 767 -62 b 781 86 767 -6 774 42 b 896 649 808 276 850 463 b 947 839 911 713 929 775 b 954 876 950 850 954 864 b 939 904 954 888 950 899 b 925 908 933 907 929 908 z m 646 1188 b 626 1183 640 1188 633 1186 b 550 1086 590 1168 569 1118 b 526 1050 543 1074 531 1063 b 525 1040 525 1046 525 1043 b 554 1013 525 1024 539 1013 b 568 1015 558 1013 564 1013 b 644 1119 603 1033 619 1092 b 686 1008 650 1089 667 1033 b 711 997 692 1000 701 997 b 729 1003 718 997 724 999 b 739 1025 736 1010 739 1017 b 726 1065 739 1039 731 1053 b 646 1188 714 1101 694 1188 z "},"":{"ha":1038,"x_min":0,"x_max":0,"o":"m 925 908 b 888 867 906 908 894 883 b 810 675 864 803 839 736 b 518 138 724 490 638 304 b 344 -18 479 83 418 -10 l 339 -18 b 286 29 313 -18 294 7 b 271 140 272 64 271 101 l 271 194 b 357 706 275 365 325 539 b 375 825 363 735 375 782 b 353 894 375 854 369 879 b 322 907 343 903 333 907 b 215 826 281 907 236 851 b 44 572 153 747 93 661 b 0 471 29 546 0 503 b 31 440 0 451 15 440 b 51 450 39 440 46 443 b 71 494 61 461 65 481 b 113 569 82 521 97 544 b 182 679 135 607 158 643 b 314 842 221 736 261 796 b 282 624 314 769 296 694 b 217 240 257 497 226 369 b 211 135 214 206 211 169 b 233 1 211 89 217 44 b 258 -40 239 -14 249 -28 b 333 -78 281 -67 307 -78 b 479 -4 386 -78 442 -37 b 717 346 582 88 653 226 b 797 510 744 397 781 454 l 797 501 b 781 418 797 475 786 444 b 743 225 768 354 754 290 b 710 -44 728 136 710 46 b 736 -121 710 -64 710 -121 b 757 -111 742 -121 749 -118 b 769 -83 767 -104 769 -94 b 767 -51 769 -72 767 -62 b 781 86 767 -6 774 42 b 896 649 808 276 850 463 b 947 839 911 713 929 775 b 954 876 950 850 954 864 b 939 904 954 888 950 899 b 925 908 933 907 929 908 z m 667 1092 b 657 1092 663 1092 661 1093 b 633 1054 640 1086 633 1071 b 672 1006 633 1031 649 1006 b 683 1008 676 1006 679 1007 b 708 1044 700 1014 708 1029 b 668 1093 708 1068 692 1093 z m 579 1092 b 569 1092 575 1092 574 1093 b 546 1054 553 1086 546 1071 b 585 1006 546 1031 561 1006 b 596 1008 589 1006 592 1007 b 621 1044 613 1014 621 1029 b 581 1093 621 1068 604 1093 z "},"":{"ha":969,"x_min":0,"x_max":0,"o":"m 363 917 b 247 842 321 917 271 863 b 43 582 168 767 99 675 b 0 485 29 557 0 517 b 1 474 0 481 0 478 b 29 453 6 460 17 453 b 50 461 38 453 44 454 b 71 506 61 472 64 492 b 114 582 83 532 99 557 b 194 690 139 619 167 656 b 351 851 239 746 289 815 b 313 661 351 786 331 722 b 225 346 283 557 249 451 b 204 218 217 311 204 263 b 226 142 204 189 210 163 b 271 118 240 125 254 118 b 403 204 319 118 375 176 b 432 235 413 214 422 225 b 889 782 597 404 721 614 b 789 385 872 650 826 513 b 700 138 765 296 743 215 b 603 81 700 138 631 97 b 275 -304 499 18 275 -158 l 275 -321 b 360 -390 281 -372 318 -390 b 460 -358 396 -390 435 -376 b 706 -33 543 -300 665 -125 b 758 96 722 4 758 96 b 983 188 797 129 901 151 b 1006 222 997 193 1006 210 b 1003 233 1006 226 1004 231 b 986 240 1000 238 993 240 b 949 233 974 240 960 238 b 785 174 924 224 814 185 l 817 268 b 882 497 842 343 863 419 b 918 642 894 546 907 593 b 950 797 929 692 950 746 b 907 856 950 825 939 854 l 904 856 b 763 726 847 856 793 765 b 419 310 650 586 538 446 b 269 179 383 268 326 189 b 267 217 268 192 267 204 b 294 376 267 271 281 324 b 379 679 319 478 350 579 b 414 835 390 719 414 782 b 400 893 414 857 410 878 b 363 917 390 908 376 917 z m 678 54 b 450 -290 646 -40 528 -225 b 368 -335 432 -306 397 -335 b 342 -325 358 -335 349 -332 b 332 -299 333 -318 332 -310 b 367 -214 332 -269 354 -232 b 600 10 408 -153 539 -29 b 678 54 625 25 650 46 z m 690 1161 l 689 1161 b 669 1154 682 1161 675 1158 b 607 1053 647 1135 615 1081 b 606 1043 606 1050 606 1046 b 624 1015 606 1032 613 1019 b 632 1014 626 1014 629 1014 b 717 1122 668 1014 708 1096 b 718 1132 718 1125 718 1128 b 701 1160 718 1143 713 1156 b 690 1161 699 1161 694 1161 z "},"":{"ha":660,"x_min":0,"x_max":0,"o":"m 147 321 l 146 321 b 99 311 129 321 114 317 b -68 121 24 283 -49 199 b -72 93 -71 111 -72 101 b -8 28 -72 51 -44 28 b 50 44 10 28 31 33 b 119 93 75 58 97 75 b 235 190 158 124 193 161 b 225 121 228 168 225 144 b 361 1 225 39 253 1 l 363 1 b 688 188 483 1 583 106 b 699 213 696 196 699 204 b 672 242 699 228 688 242 b 651 232 665 242 658 238 b 425 74 571 165 525 115 b 346 57 406 65 374 57 b 299 72 328 57 311 61 b 285 119 289 83 285 100 b 311 276 285 172 311 246 l 311 279 b 286 299 306 294 296 299 b 231 272 268 299 243 281 b 154 321 217 303 186 319 z m 146 263 l 149 263 b 178 249 160 263 169 258 b 183 236 181 244 183 240 b 146 194 183 219 157 204 b -14 85 106 157 44 88 b 94 244 -12 146 46 214 b 146 263 108 253 128 263 z m 85 565 b 74 564 81 565 76 565 b 57 536 63 560 57 547 b 58 526 57 532 57 529 b 143 418 67 500 107 418 b 151 419 146 418 149 418 b 169 447 163 424 169 436 b 168 457 169 450 169 454 b 106 558 160 485 128 539 b 86 565 100 563 93 565 z "},"":{"ha":660,"x_min":0,"x_max":0,"o":"m 147 321 l 146 321 b 99 311 129 321 114 317 b -68 121 24 283 -49 199 b -72 93 -71 111 -72 101 b -8 28 -72 51 -44 28 b 50 44 10 28 31 33 b 119 93 75 58 97 75 b 235 190 158 124 193 161 b 225 121 228 168 225 144 b 361 1 225 39 253 1 l 363 1 b 688 188 483 1 583 106 b 699 213 696 196 699 204 b 672 242 699 228 688 242 b 651 232 665 242 658 238 b 425 74 571 165 525 115 b 346 57 406 65 374 57 b 299 72 328 57 311 61 b 285 119 289 83 285 100 b 311 276 285 172 311 246 l 311 279 b 286 299 306 294 296 299 b 231 272 268 299 243 281 b 154 321 217 303 186 319 z m 146 263 l 149 263 b 178 249 160 263 169 258 b 183 236 181 244 183 240 b 146 194 183 219 157 204 b -14 85 106 157 44 88 b 94 244 -12 146 46 214 b 146 263 108 253 128 263 z m 217 564 l 215 564 b 196 557 208 564 201 561 b 133 456 174 538 142 483 b 132 446 132 453 132 449 b 150 418 132 435 139 422 b 158 417 153 417 156 417 b 243 525 194 417 235 499 b 244 535 244 528 244 531 b 228 563 244 546 239 558 b 217 564 225 564 221 564 z "},"":{"ha":660,"x_min":0,"x_max":0,"o":"m 147 321 l 146 321 b 99 311 129 321 114 317 b -68 121 24 283 -49 199 b -72 93 -71 111 -72 101 b -8 28 -72 51 -44 28 b 50 44 10 28 31 33 b 119 93 75 58 97 75 b 235 190 158 124 193 161 b 225 121 228 168 225 144 b 361 1 225 39 253 1 l 363 1 b 688 188 483 1 583 106 b 699 213 696 196 699 204 b 672 242 699 228 688 242 b 651 232 665 242 658 238 b 425 74 571 165 525 115 b 346 57 406 65 374 57 b 299 72 328 57 311 61 b 285 119 289 83 285 100 b 311 276 285 172 311 246 l 311 279 b 286 299 306 294 296 299 b 231 272 268 299 243 281 b 154 321 217 303 186 319 z m 146 263 l 149 263 b 178 249 160 263 169 258 b 183 236 181 244 183 240 b 146 194 183 219 157 204 b -14 85 106 157 44 88 b 94 244 -12 146 46 214 b 146 263 108 253 128 263 z m 172 597 b 153 593 167 597 160 596 b 76 496 117 578 96 528 b 53 460 69 483 57 472 b 51 450 51 456 51 453 b 81 422 51 433 65 422 b 94 425 85 422 90 422 b 171 529 129 443 146 501 b 213 418 176 499 193 443 b 238 407 218 410 228 407 b 256 413 244 407 250 408 b 265 435 263 419 265 426 b 253 475 265 449 257 463 b 172 597 240 511 221 597 z "},"":{"ha":660,"x_min":0,"x_max":0,"o":"m 147 321 l 146 321 b 99 311 129 321 114 317 b -68 121 24 283 -49 199 b -72 93 -71 111 -72 101 b -8 28 -72 51 -44 28 b 50 44 10 28 31 33 b 119 93 75 58 97 75 b 235 190 158 124 193 161 b 225 121 228 168 225 144 b 361 1 225 39 253 1 l 363 1 b 688 188 483 1 583 106 b 699 213 696 196 699 204 b 672 242 699 228 688 242 b 651 232 665 242 658 238 b 425 74 571 165 525 115 b 346 57 406 65 374 57 b 299 72 328 57 311 61 b 285 119 289 83 285 100 b 311 276 285 172 311 246 l 311 279 b 286 299 306 294 296 299 b 231 272 268 299 243 281 b 154 321 217 303 186 319 z m 146 263 l 149 263 b 178 249 160 263 169 258 b 183 236 181 244 183 240 b 146 194 183 219 157 204 b -14 85 106 157 44 88 b 94 244 -12 146 46 214 b 146 263 108 253 128 263 z m 293 561 b 224 482 260 561 260 482 b 199 506 214 482 204 499 b 150 553 185 524 172 544 b 129 557 143 556 136 557 b 50 478 90 557 63 513 b 42 442 46 468 42 454 b 47 421 42 435 43 426 b 71 408 53 413 61 408 b 93 418 79 408 88 411 b 125 496 107 433 117 475 b 222 419 158 471 176 419 b 238 422 226 419 232 421 b 318 506 276 431 306 469 b 322 531 321 514 322 522 b 310 556 322 540 319 550 b 293 561 303 560 297 561 z "},"":{"ha":660,"x_min":0,"x_max":0,"o":"m 147 321 l 146 321 b 99 311 129 321 114 317 b -68 121 24 283 -49 199 b -72 93 -71 111 -72 101 b -8 28 -72 51 -44 28 b 50 44 10 28 31 33 b 119 93 75 58 97 75 b 235 190 158 124 193 161 b 225 121 228 168 225 144 b 361 1 225 39 253 1 l 363 1 b 688 188 483 1 583 106 b 699 213 696 196 699 204 b 672 242 699 228 688 242 b 651 232 665 242 658 238 b 425 74 571 165 525 115 b 346 57 406 65 374 57 b 299 72 328 57 311 61 b 285 119 289 83 285 100 b 311 276 285 172 311 246 l 311 279 b 286 299 306 294 296 299 b 231 272 268 299 243 281 b 154 321 217 303 186 319 z m 146 263 l 149 263 b 178 249 160 263 169 258 b 183 236 181 244 183 240 b 146 194 183 219 157 204 b -14 85 106 157 44 88 b 94 244 -12 146 46 214 b 146 263 108 253 128 263 z m 193 501 b 183 501 189 501 188 503 b 160 464 167 496 160 481 b 199 415 160 440 175 415 b 210 418 203 415 206 417 b 235 454 226 424 235 439 b 194 503 235 478 218 503 z m 106 501 b 96 501 101 501 100 503 b 72 464 79 496 72 481 b 111 415 72 440 88 415 b 122 418 115 415 118 417 b 147 454 139 424 147 439 b 107 503 147 478 131 503 z "},"":{"ha":660,"x_min":0,"x_max":0,"o":"m 147 321 l 146 321 b 99 311 129 321 114 317 b -68 121 24 283 -49 199 b -72 93 -71 111 -72 101 b -8 28 -72 51 -44 28 b 50 44 10 28 31 33 b 119 93 75 58 97 75 b 235 190 158 124 193 161 b 225 121 228 168 225 144 b 361 1 225 39 253 1 l 363 1 b 688 188 483 1 583 106 b 699 213 696 196 699 204 b 672 242 699 228 688 242 b 651 232 665 242 658 238 b 425 74 571 165 525 115 b 346 57 406 65 374 57 b 299 72 328 57 311 61 b 285 119 289 83 285 100 b 311 276 285 172 311 246 l 311 279 b 286 299 306 294 296 299 b 231 272 268 299 243 281 b 154 321 217 303 186 319 z m 146 263 l 149 263 b 178 249 160 263 169 258 b 183 236 181 244 183 240 b 146 194 183 219 157 204 b -14 85 106 157 44 88 b 94 244 -12 146 46 214 b 146 263 108 253 128 263 z m 158 621 b 140 618 153 621 146 619 b 113 589 125 613 122 600 b 71 518 93 567 74 549 l 71 507 b 158 421 71 456 111 421 b 192 426 169 421 181 422 b 264 525 233 440 264 482 b 261 544 264 532 263 538 b 160 621 253 582 203 621 l 158 622 z m 182 550 b 206 524 197 550 206 538 b 204 515 206 521 206 518 b 158 479 199 496 179 481 l 157 479 b 131 508 139 479 131 493 b 135 526 131 515 132 521 b 179 550 143 542 163 549 z "},"":{"ha":793,"x_min":0,"x_max":0,"o":"m 538 253 b 425 328 538 304 475 328 b 401 325 417 328 408 326 b 308 279 369 319 336 303 b 285 299 303 294 294 299 b 229 272 267 299 242 281 b 153 321 215 303 185 319 l 139 321 b 97 311 125 321 110 317 b -69 121 22 283 -50 199 b -74 93 -72 111 -74 101 b -10 28 -74 51 -46 28 b 49 44 8 28 29 33 b 118 93 74 58 96 75 b 233 192 157 124 192 163 b 224 142 228 176 225 158 b 222 118 222 133 222 126 b 275 15 222 81 238 43 b 335 -14 293 1 314 -7 b 419 -26 364 -22 392 -26 b 724 103 532 -26 636 36 b 822 186 757 128 793 156 b 835 213 829 193 835 203 b 825 232 835 219 832 226 b 807 239 819 236 814 239 b 717 176 776 239 735 192 b 411 35 626 101 533 42 l 403 35 b 283 124 349 35 283 65 b 285 136 283 128 285 132 b 297 172 286 150 293 163 b 311 175 300 175 304 175 b 371 165 329 175 360 167 b 397 164 379 164 388 164 b 533 231 450 164 517 181 b 538 253 536 239 538 246 z m 425 269 b 474 251 442 269 472 268 b 443 229 475 238 453 232 b 396 224 428 225 413 224 b 340 228 378 224 358 226 b 425 269 354 254 394 268 z m 144 263 l 147 263 b 176 249 158 263 168 258 b 182 236 179 244 182 240 b 144 194 182 219 156 204 b -15 85 104 157 43 88 b 93 244 -14 146 44 214 b 144 263 107 253 126 263 z "},"":{"ha":540,"x_min":0,"x_max":0,"o":"m 150 311 b 133 311 144 311 139 313 b -54 149 47 299 -31 233 b -61 101 -58 133 -61 117 b -11 6 -61 64 -47 26 b 39 -11 4 -3 21 -8 b 32 -62 36 -26 32 -44 b 44 -94 32 -75 36 -86 b 63 -101 50 -100 56 -101 b 99 -96 75 -101 86 -96 b 106 -97 101 -96 104 -97 b 67 -153 97 -119 86 -139 b 28 -179 54 -162 36 -164 b 24 -194 25 -185 24 -190 b 58 -217 24 -211 40 -217 b 88 -211 69 -217 81 -215 b 161 -94 126 -193 161 -137 b 100 -36 161 -64 144 -40 b 101 -11 101 -25 101 -19 b 156 0 121 -8 139 -4 b 443 115 269 28 342 58 b 564 182 483 138 526 157 b 583 213 575 189 583 200 b 579 228 583 217 582 222 b 554 239 574 236 564 239 b 536 236 549 239 542 239 b 439 183 503 222 471 200 b 74 46 315 117 218 56 b 43 50 64 44 53 49 b -4 99 8 57 -4 75 b 79 229 -4 146 47 210 b 150 253 99 240 125 253 b 185 242 163 253 175 250 b 215 203 199 231 201 213 b 232 197 221 200 226 197 b 257 213 242 197 251 203 b 261 226 260 217 261 222 b 249 261 261 239 254 251 b 151 311 229 294 190 311 z "},"":{"ha":522,"x_min":0,"x_max":0,"o":"m 153 328 b 129 325 144 328 136 326 b -50 118 42 310 -50 210 b 3 15 -50 81 -35 43 b 63 -14 21 1 42 -7 b 147 -26 92 -22 119 -26 b 451 103 260 -26 364 36 b 550 186 485 128 521 156 b 563 213 557 193 563 203 b 553 232 563 219 560 226 b 535 239 547 236 542 239 b 444 176 504 239 463 192 b 139 35 354 101 261 42 l 131 35 b 11 124 76 35 11 65 b 13 136 11 128 11 132 b 25 172 14 147 17 164 b 39 175 28 175 32 175 b 99 165 57 175 88 167 b 126 164 107 164 117 164 b 261 231 179 164 244 181 b 265 253 264 239 265 246 b 153 328 265 304 203 328 z m 153 269 b 201 251 169 269 200 268 b 172 229 203 238 182 232 b 124 224 157 225 140 224 b 69 228 106 224 88 226 b 153 269 83 254 122 268 z m 93 546 b 82 544 89 546 85 546 b 65 517 71 540 65 528 b 67 507 65 513 65 510 b 151 399 75 481 115 399 b 160 400 154 399 157 399 b 178 428 171 404 178 417 b 176 438 178 431 178 435 b 114 539 168 465 136 519 b 94 546 108 543 101 546 z "},"":{"ha":522,"x_min":0,"x_max":0,"o":"m 153 328 b 129 325 144 328 136 326 b -50 118 42 310 -50 210 b 3 15 -50 81 -35 43 b 63 -14 21 1 42 -7 b 147 -26 92 -22 119 -26 b 451 103 260 -26 364 36 b 550 186 485 128 521 156 b 563 213 557 193 563 203 b 553 232 563 219 560 226 b 535 239 547 236 542 239 b 444 176 504 239 463 192 b 139 35 354 101 261 42 l 131 35 b 11 124 76 35 11 65 b 13 136 11 128 11 132 b 25 172 14 147 17 164 b 39 175 28 175 32 175 b 99 165 57 175 88 167 b 126 164 107 164 117 164 b 261 231 179 164 244 181 b 265 253 264 239 265 246 b 153 328 265 304 203 328 z m 153 269 b 201 251 169 269 200 268 b 172 229 203 238 182 232 b 124 224 157 225 140 224 b 69 228 106 224 88 226 b 153 269 83 254 122 268 z m 225 544 l 224 544 b 204 538 217 544 210 542 b 142 436 182 518 150 464 b 140 426 140 433 140 429 b 158 399 140 415 147 403 b 167 397 161 397 164 397 b 251 506 203 397 243 479 b 253 515 253 508 253 511 b 236 543 253 526 247 539 b 225 544 233 544 229 544 z "},"":{"ha":522,"x_min":0,"x_max":0,"o":"m 153 328 b 129 325 144 328 136 326 b -50 118 42 310 -50 210 b 3 15 -50 81 -35 43 b 63 -14 21 1 42 -7 b 147 -26 92 -22 119 -26 b 451 103 260 -26 364 36 b 550 186 485 128 521 156 b 563 213 557 193 563 203 b 553 232 563 219 560 226 b 535 239 547 236 542 239 b 444 176 504 239 463 192 b 139 35 354 101 261 42 l 131 35 b 11 124 76 35 11 65 b 13 136 11 128 11 132 b 25 172 14 147 17 164 b 39 175 28 175 32 175 b 99 165 57 175 88 167 b 126 164 107 164 117 164 b 261 231 179 164 244 181 b 265 253 264 239 265 246 b 153 328 265 304 203 328 z m 153 269 b 201 251 169 269 200 268 b 172 229 203 238 182 232 b 124 224 157 225 140 224 b 69 228 106 224 88 226 b 153 269 83 254 122 268 z m 181 578 b 161 574 175 578 168 576 b 85 476 125 558 104 508 b 61 440 78 464 65 453 b 60 431 60 436 60 433 b 89 403 60 414 74 403 b 103 406 93 403 99 403 b 179 510 138 424 154 482 b 221 399 185 479 201 424 b 246 388 226 390 236 388 b 264 393 253 388 258 389 b 274 415 271 400 274 407 b 261 456 274 429 265 443 b 181 578 249 492 229 578 z "},"":{"ha":522,"x_min":0,"x_max":0,"o":"m 153 328 b 129 325 144 328 136 326 b -50 118 42 310 -50 210 b 3 15 -50 81 -35 43 b 63 -14 21 1 42 -7 b 147 -26 92 -22 119 -26 b 451 103 260 -26 364 36 b 550 186 485 128 521 156 b 563 213 557 193 563 203 b 553 232 563 219 560 226 b 535 239 547 236 542 239 b 444 176 504 239 463 192 b 139 35 354 101 261 42 l 131 35 b 11 124 76 35 11 65 b 13 136 11 128 11 132 b 25 172 14 147 17 164 b 39 175 28 175 32 175 b 99 165 57 175 88 167 b 126 164 107 164 117 164 b 261 231 179 164 244 181 b 265 253 264 239 265 246 b 153 328 265 304 203 328 z m 153 269 b 201 251 169 269 200 268 b 172 229 203 238 182 232 b 124 224 157 225 140 224 b 69 228 106 224 88 226 b 153 269 83 254 122 268 z m 201 482 b 192 482 197 482 196 483 b 168 444 175 476 168 461 b 207 396 168 421 183 396 b 218 399 211 396 214 397 b 243 435 235 404 243 419 b 203 483 243 458 226 483 z m 114 482 b 104 482 110 482 108 483 b 81 444 88 476 81 461 b 119 396 81 421 96 396 b 131 399 124 396 126 397 b 156 435 147 404 156 419 b 115 483 156 458 139 483 z "},"":{"ha":328,"x_min":0,"x_max":0,"o":"m 33 286 l 26 286 b -8 200 -7 278 -6 226 b -11 158 -10 188 -11 174 b 89 6 -11 89 10 6 l 93 6 b 324 146 182 8 265 85 b 372 221 333 157 372 196 b 350 242 372 231 367 239 l 344 242 b 283 190 318 242 300 207 b 144 82 242 149 197 108 b 94 64 131 75 113 64 b 81 67 90 64 85 65 b 51 118 61 75 54 99 b 49 156 50 131 49 143 b 58 246 49 185 53 215 b 60 254 58 249 60 251 b 33 286 60 271 50 286 z m -7 522 b -18 521 -11 522 -15 522 b -35 493 -29 517 -35 504 b -33 483 -35 489 -35 486 b 51 375 -25 457 15 375 b 60 376 54 375 57 375 b 78 404 71 381 78 393 b 76 414 78 407 78 411 b 14 515 68 442 36 496 b -6 522 8 519 1 522 z "},"":{"ha":328,"x_min":0,"x_max":0,"o":"m 33 286 l 26 286 b -8 200 -7 278 -6 226 b -11 158 -10 188 -11 174 b 89 6 -11 89 10 6 l 93 6 b 324 146 182 8 265 85 b 372 221 333 157 372 196 b 350 242 372 231 367 239 l 344 242 b 283 190 318 242 300 207 b 144 82 242 149 197 108 b 94 64 131 75 113 64 b 81 67 90 64 85 65 b 51 118 61 75 54 99 b 49 156 50 131 49 143 b 58 246 49 185 53 215 b 60 254 58 249 60 251 b 33 286 60 271 50 286 z m 125 521 l 124 521 b 104 514 117 521 110 518 b 42 413 82 494 50 440 b 40 403 40 410 40 406 b 58 375 40 392 47 379 b 67 374 61 374 64 374 b 151 482 103 374 143 456 b 153 492 153 485 153 488 b 136 519 153 503 147 515 b 125 521 133 521 129 521 z "},"":{"ha":328,"x_min":0,"x_max":0,"o":"m 33 286 l 26 286 b -8 200 -7 278 -6 226 b -11 158 -10 188 -11 174 b 89 6 -11 89 10 6 l 93 6 b 324 146 182 8 265 85 b 372 221 333 157 372 196 b 350 242 372 231 367 239 l 344 242 b 283 190 318 242 300 207 b 144 82 242 149 197 108 b 94 64 131 75 113 64 b 81 67 90 64 85 65 b 51 118 61 75 54 99 b 49 156 50 131 49 143 b 58 246 49 185 53 215 b 60 254 58 249 60 251 b 33 286 60 271 50 286 z m 81 554 b 61 550 75 554 68 553 b -15 453 25 535 4 485 b -39 417 -22 440 -35 429 b -40 407 -40 413 -40 410 b -11 379 -40 390 -26 379 b 3 382 -7 379 -1 379 b 79 486 38 400 54 458 b 121 375 85 456 101 400 b 146 364 126 367 136 364 b 164 369 153 364 158 365 b 174 392 171 376 174 383 b 161 432 174 406 165 419 b 81 554 149 468 129 554 z "},"":{"ha":328,"x_min":0,"x_max":0,"o":"m 33 286 l 26 286 b -8 200 -7 278 -6 226 b -11 158 -10 188 -11 174 b 89 6 -11 89 10 6 l 93 6 b 324 146 182 8 265 85 b 372 221 333 157 372 196 b 350 242 372 231 367 239 l 344 242 b 283 190 318 242 300 207 b 144 82 242 149 197 108 b 94 64 131 75 113 64 b 81 67 90 64 85 65 b 51 118 61 75 54 99 b 49 156 50 131 49 143 b 58 246 49 185 53 215 b 60 254 58 249 60 251 b 33 286 60 271 50 286 z m 101 458 b 92 458 97 458 96 460 b 68 421 75 453 68 438 b 107 372 68 397 83 372 b 118 375 111 372 114 374 b 143 411 135 381 143 396 b 103 460 143 435 126 460 z m 14 458 b 4 458 10 458 8 460 b -19 421 -12 453 -19 438 b 19 372 -19 397 -4 372 b 31 375 24 372 26 374 b 56 411 47 381 56 396 b 15 460 56 435 39 460 z "},"":{"ha":600,"x_min":0,"x_max":0,"o":"m 265 317 b 214 297 247 317 229 310 b 86 128 168 263 122 172 b 29 51 68 104 47 71 b 26 74 28 58 26 67 b 32 118 26 89 31 104 b 54 218 35 139 44 175 b 68 275 57 233 68 256 b 60 299 68 283 65 293 b 40 308 53 306 46 308 b 1 251 19 308 6 269 b -32 69 -15 182 -26 140 b -33 39 -32 60 -33 50 b -12 -12 -33 19 -29 0 b 11 -21 -4 -18 3 -21 b 76 18 36 -21 61 1 b 210 208 119 67 168 160 b 261 253 221 221 243 253 b 279 200 276 253 278 211 b 281 181 279 194 281 188 b 278 99 281 157 278 128 b 303 -11 278 56 283 13 b 368 -39 319 -31 343 -39 b 417 -31 385 -39 401 -36 b 586 118 493 -3 539 56 b 635 199 603 140 626 174 b 636 208 636 201 636 206 b 608 239 636 224 624 239 b 583 222 600 239 590 233 b 440 53 539 154 504 106 b 372 19 425 40 396 19 b 356 25 367 19 361 22 b 331 97 333 39 331 74 b 332 106 331 100 332 103 b 333 188 332 128 333 157 b 317 288 333 226 331 265 b 265 317 304 308 285 317 z m 299 540 b 229 461 265 540 265 461 b 204 485 219 461 210 478 b 156 532 190 503 178 524 b 135 536 149 535 142 536 b 56 457 96 536 68 492 b 47 421 51 447 47 433 b 53 400 47 414 49 406 b 76 388 58 392 67 388 b 99 397 85 388 93 390 b 131 475 113 413 122 454 b 228 399 164 450 182 399 b 243 401 232 399 238 400 b 324 485 282 410 311 449 b 328 510 326 493 328 501 b 315 535 328 519 325 529 b 299 540 308 539 303 540 z "},"":{"ha":561,"x_min":0,"x_max":0,"o":"m 138 358 l 118 358 b 50 300 106 357 85 329 b -51 104 15 269 -51 188 b -39 46 -51 85 -47 65 b 46 -6 -22 10 11 -6 b 114 13 69 -6 93 1 b 222 197 182 47 222 121 b 418 133 288 157 349 133 b 492 142 442 133 465 136 b 589 186 522 149 565 164 b 601 213 596 193 601 203 b 592 235 601 221 599 229 b 575 240 586 239 581 240 b 524 218 557 240 539 224 b 401 192 486 204 443 192 b 368 194 390 192 379 192 b 199 297 301 207 246 253 b 138 358 179 315 165 351 z m 125 272 b 163 193 160 272 163 217 b 54 51 163 138 117 51 b 38 54 49 51 43 53 b 8 101 15 60 8 81 b 11 121 8 108 10 114 b 83 247 19 171 44 214 b 125 272 93 256 110 271 z m 61 600 b 50 599 57 600 53 600 b 33 571 39 594 33 582 b 35 561 33 567 33 564 b 119 453 43 535 83 453 b 128 454 122 453 125 453 b 146 482 139 458 146 471 b 144 492 146 485 146 489 b 82 593 136 519 104 574 b 63 600 76 597 69 600 z "},"":{"ha":561,"x_min":0,"x_max":0,"o":"m 138 358 l 118 358 b 50 300 106 357 85 329 b -51 104 15 269 -51 188 b -39 46 -51 85 -47 65 b 46 -6 -22 10 11 -6 b 114 13 69 -6 93 1 b 222 197 182 47 222 121 b 418 133 288 157 349 133 b 492 142 442 133 465 136 b 589 186 522 149 565 164 b 601 213 596 193 601 203 b 592 235 601 221 599 229 b 575 240 586 239 581 240 b 524 218 557 240 539 224 b 401 192 486 204 443 192 b 368 194 390 192 379 192 b 199 297 301 207 246 253 b 138 358 179 315 165 351 z m 125 272 b 163 193 160 272 163 217 b 54 51 163 138 117 51 b 38 54 49 51 43 53 b 8 101 15 60 8 81 b 11 121 8 108 10 114 b 83 247 19 171 44 214 b 125 272 93 256 110 271 z m 193 599 l 192 599 b 172 592 185 599 178 596 b 110 490 150 572 118 518 b 108 481 108 488 108 483 b 126 453 108 469 115 457 b 135 451 129 451 132 451 b 219 560 171 451 211 533 b 221 569 221 563 221 565 b 204 597 221 581 215 593 b 193 599 201 599 197 599 z "},"":{"ha":561,"x_min":0,"x_max":0,"o":"m 138 358 l 118 358 b 50 300 106 357 85 329 b -51 104 15 269 -51 188 b -39 46 -51 85 -47 65 b 46 -6 -22 10 11 -6 b 114 13 69 -6 93 1 b 222 197 182 47 222 121 b 418 133 288 157 349 133 b 492 142 442 133 465 136 b 589 186 522 149 565 164 b 601 213 596 193 601 203 b 592 235 601 221 599 229 b 575 240 586 239 581 240 b 524 218 557 240 539 224 b 401 192 486 204 443 192 b 368 194 390 192 379 192 b 199 297 301 207 246 253 b 138 358 179 315 165 351 z m 125 272 b 163 193 160 272 163 217 b 54 51 163 138 117 51 b 38 54 49 51 43 53 b 8 101 15 60 8 81 b 11 121 8 108 10 114 b 83 247 19 171 44 214 b 125 272 93 256 110 271 z m 149 632 b 129 628 143 632 136 631 b 53 531 93 613 72 563 b 29 494 46 518 33 507 b 28 485 28 490 28 488 b 57 457 28 468 42 457 b 71 460 61 457 67 457 b 147 564 106 478 122 536 b 189 453 153 533 169 478 b 214 442 194 444 204 442 b 232 447 221 442 226 443 b 242 469 239 454 242 461 b 229 510 242 483 233 497 b 149 632 217 546 197 632 z "},"":{"ha":561,"x_min":0,"x_max":0,"o":"m 138 358 l 118 358 b 50 300 106 357 85 329 b -51 104 15 269 -51 188 b -39 46 -51 85 -47 65 b 46 -6 -22 10 11 -6 b 114 13 69 -6 93 1 b 222 197 182 47 222 121 b 418 133 288 157 349 133 b 492 142 442 133 465 136 b 589 186 522 149 565 164 b 601 213 596 193 601 203 b 592 235 601 221 599 229 b 575 240 586 239 581 240 b 524 218 557 240 539 224 b 401 192 486 204 443 192 b 368 194 390 192 379 192 b 199 297 301 207 246 253 b 138 358 179 315 165 351 z m 125 272 b 163 193 160 272 163 217 b 54 51 163 138 117 51 b 38 54 49 51 43 53 b 8 101 15 60 8 81 b 11 121 8 108 10 114 b 83 247 19 171 44 214 b 125 272 93 256 110 271 z m 269 596 b 200 517 236 596 236 517 b 175 540 190 517 181 533 b 126 588 161 558 149 579 b 106 592 119 590 113 592 b 26 513 67 592 39 547 b 18 476 22 503 18 489 b 24 456 18 469 19 461 b 47 443 29 447 38 443 b 69 453 56 443 64 446 b 101 531 83 468 93 510 b 199 454 135 506 153 454 b 214 457 203 454 208 456 b 294 540 253 465 282 504 b 299 565 297 549 299 557 b 286 590 299 575 296 585 b 269 596 279 594 274 596 z "},"":{"ha":561,"x_min":0,"x_max":0,"o":"m 138 358 l 118 358 b 50 300 106 357 85 329 b -51 104 15 269 -51 188 b -39 46 -51 85 -47 65 b 46 -6 -22 10 11 -6 b 114 13 69 -6 93 1 b 222 197 182 47 222 121 b 418 133 288 157 349 133 b 492 142 442 133 465 136 b 589 186 522 149 565 164 b 601 213 596 193 601 203 b 592 235 601 221 599 229 b 575 240 586 239 581 240 b 524 218 557 240 539 224 b 401 192 486 204 443 192 b 368 194 390 192 379 192 b 199 297 301 207 246 253 b 138 358 179 315 165 351 z m 125 272 b 163 193 160 272 163 217 b 54 51 163 138 117 51 b 38 54 49 51 43 53 b 8 101 15 60 8 81 b 11 121 8 108 10 114 b 83 247 19 171 44 214 b 125 272 93 256 110 271 z m 169 536 b 160 536 165 536 164 538 b 136 499 143 531 136 515 b 175 450 136 475 151 450 b 186 453 179 450 182 451 b 211 489 203 458 211 474 b 171 538 211 513 194 538 z m 82 536 b 72 536 78 536 76 538 b 49 499 56 531 49 515 b 88 450 49 475 64 450 b 99 453 92 450 94 451 b 124 489 115 458 124 474 b 83 538 124 513 107 538 z "},"":{"ha":561,"x_min":0,"x_max":0,"o":"m 126 272 l 132 272 b 147 260 139 271 143 265 b 122 235 138 251 129 242 b 15 140 89 201 51 171 b 83 247 26 182 50 218 b 125 272 93 256 110 271 z m 129 360 b 118 358 126 360 122 358 b 50 300 106 357 85 329 b -51 104 15 269 -51 188 b -50 82 -51 97 -51 89 b -94 24 -67 65 -94 46 b -93 18 -94 22 -93 19 b -72 -1 -90 4 -82 -1 b -28 21 -58 -1 -40 10 l -25 24 b 46 -6 -7 3 19 -6 b 114 13 69 -6 93 1 b 222 197 182 47 222 121 b 418 133 288 157 349 133 b 492 142 442 133 465 136 b 589 186 522 149 565 164 b 601 213 596 193 601 203 b 592 235 601 221 599 229 b 575 240 586 239 581 240 b 524 218 557 240 539 224 b 401 192 486 204 443 192 b 368 194 390 192 379 192 b 244 258 322 203 281 229 b 279 293 260 269 272 281 b 283 308 282 299 283 304 b 256 333 283 324 271 333 b 239 329 250 333 244 332 b 194 301 225 322 210 314 b 138 358 176 321 164 351 b 129 360 135 358 133 360 z m 19 65 b 163 192 67 108 115 149 b 54 51 163 136 117 51 b 38 54 49 51 43 53 b 19 65 29 56 24 60 z "},"":{"ha":633,"x_min":0,"x_max":0,"o":"m 339 329 b 283 264 311 329 296 283 b 85 60 233 189 169 99 b 58 53 74 54 65 53 b 28 100 36 53 28 74 b 53 210 28 138 43 189 b 72 249 58 222 69 235 l 72 257 b 44 288 72 274 61 288 l 40 288 b -14 204 10 283 -6 229 b -32 97 -24 175 -32 135 b 53 -8 -32 42 -12 -8 l 56 -8 b 97 0 71 -8 83 -6 b 169 42 124 10 147 25 b 261 131 203 68 233 99 b 275 68 264 108 265 88 b 379 0 299 19 338 0 b 593 104 456 0 546 60 b 676 215 615 125 676 186 b 649 239 676 232 660 239 b 621 228 639 239 628 235 b 399 60 568 172 489 60 b 367 65 388 60 378 63 b 319 140 332 76 319 106 b 349 251 319 181 336 224 b 369 303 356 265 369 286 b 354 326 369 313 365 321 b 339 329 349 329 343 329 z m 111 539 b 100 538 107 539 103 539 b 83 510 89 533 83 521 b 85 500 83 506 83 503 b 169 392 93 474 133 392 b 178 393 172 392 175 392 b 196 421 189 397 196 410 b 194 431 196 424 196 428 b 132 532 186 458 154 513 b 113 539 126 536 119 539 z "},"":{"ha":633,"x_min":0,"x_max":0,"o":"m 339 329 b 283 264 311 329 296 283 b 85 60 233 189 169 99 b 58 53 74 54 65 53 b 28 100 36 53 28 74 b 53 210 28 138 43 189 b 72 249 58 222 69 235 l 72 257 b 44 288 72 274 61 288 l 40 288 b -14 204 10 283 -6 229 b -32 97 -24 175 -32 135 b 53 -8 -32 42 -12 -8 l 56 -8 b 97 0 71 -8 83 -6 b 169 42 124 10 147 25 b 261 131 203 68 233 99 b 275 68 264 108 265 88 b 379 0 299 19 338 0 b 593 104 456 0 546 60 b 676 215 615 125 676 186 b 649 239 676 232 660 239 b 621 228 639 239 628 235 b 399 60 568 172 489 60 b 367 65 388 60 378 63 b 319 140 332 76 319 106 b 349 251 319 181 336 224 b 369 303 356 265 369 286 b 354 326 369 313 365 321 b 339 329 349 329 343 329 z m 243 538 l 242 538 b 222 531 235 538 228 535 b 160 429 200 511 168 457 b 158 419 158 426 158 422 b 176 392 158 408 165 396 b 185 390 179 390 182 390 b 269 499 221 390 261 472 b 271 508 271 501 271 504 b 254 536 271 519 265 532 b 243 538 251 538 247 538 z "},"":{"ha":633,"x_min":0,"x_max":0,"o":"m 339 329 b 283 264 311 329 296 283 b 85 60 233 189 169 99 b 58 53 74 54 65 53 b 28 100 36 53 28 74 b 53 210 28 138 43 189 b 72 249 58 222 69 235 l 72 257 b 44 288 72 274 61 288 l 40 288 b -14 204 10 283 -6 229 b -32 97 -24 175 -32 135 b 53 -8 -32 42 -12 -8 l 56 -8 b 97 0 71 -8 83 -6 b 169 42 124 10 147 25 b 261 131 203 68 233 99 b 275 68 264 108 265 88 b 379 0 299 19 338 0 b 593 104 456 0 546 60 b 676 215 615 125 676 186 b 649 239 676 232 660 239 b 621 228 639 239 628 235 b 399 60 568 172 489 60 b 367 65 388 60 378 63 b 319 140 332 76 319 106 b 349 251 319 181 336 224 b 369 303 356 265 369 286 b 354 326 369 313 365 321 b 339 329 349 329 343 329 z m 199 571 b 179 567 193 571 186 569 b 103 469 143 551 122 501 b 79 433 96 457 83 446 b 78 424 78 429 78 426 b 107 396 78 407 92 396 b 121 399 111 396 117 396 b 197 503 156 417 172 475 b 239 392 203 472 219 417 b 264 381 244 383 254 381 b 282 386 271 381 276 382 b 292 408 289 393 292 400 b 279 449 292 422 283 436 b 199 571 267 485 247 571 z "},"":{"ha":633,"x_min":0,"x_max":0,"o":"m 339 329 b 283 264 311 329 296 283 b 85 60 233 189 169 99 b 58 53 74 54 65 53 b 28 100 36 53 28 74 b 53 210 28 138 43 189 b 72 249 58 222 69 235 l 72 257 b 44 288 72 274 61 288 l 40 288 b -14 204 10 283 -6 229 b -32 97 -24 175 -32 135 b 53 -8 -32 42 -12 -8 l 56 -8 b 97 0 71 -8 83 -6 b 169 42 124 10 147 25 b 261 131 203 68 233 99 b 275 68 264 108 265 88 b 379 0 299 19 338 0 b 593 104 456 0 546 60 b 676 215 615 125 676 186 b 649 239 676 232 660 239 b 621 228 639 239 628 235 b 399 60 568 172 489 60 b 367 65 388 60 378 63 b 319 140 332 76 319 106 b 349 251 319 181 336 224 b 369 303 356 265 369 286 b 354 326 369 313 365 321 b 339 329 349 329 343 329 z m 219 475 b 210 475 215 475 214 476 b 186 438 193 469 186 454 b 225 389 186 414 201 389 b 236 392 229 389 232 390 b 261 428 253 397 261 413 b 221 476 261 451 244 476 z m 132 475 b 122 475 128 475 126 476 b 99 438 106 469 99 454 b 138 389 99 414 114 389 b 149 392 142 389 144 390 b 174 428 165 397 174 413 b 133 476 174 451 157 476 z "},"":{"ha":596,"x_min":0,"x_max":0,"o":"m 342 342 b 275 261 304 342 290 285 b 121 97 235 200 182 139 b 54 65 104 86 76 65 b 47 67 53 65 49 67 b 28 99 31 69 28 83 b 31 125 28 108 29 118 b 75 264 39 175 61 217 b 60 299 79 278 72 293 b 46 301 56 301 50 301 b 4 256 24 301 11 274 b -33 106 -12 214 -33 157 b -26 61 -33 90 -31 75 b 50 7 -14 22 17 7 b 106 19 68 7 88 11 b 276 164 175 50 229 106 b 326 233 293 185 317 207 l 329 233 b 342 158 332 217 342 183 b 338 138 342 150 340 143 b 290 106 329 124 304 114 b 183 33 254 83 217 60 b -37 -290 86 -40 -37 -157 b -36 -314 -37 -297 -37 -307 b 74 -410 -29 -385 19 -410 b 193 -372 115 -410 160 -394 b 385 -60 297 -301 361 -181 b 399 43 392 -26 399 8 b 404 100 399 60 404 100 b 574 167 450 131 528 147 b 631 193 592 175 618 178 b 638 211 636 199 638 206 b 604 240 638 226 621 240 b 594 239 601 240 597 240 b 399 167 528 219 456 193 b 386 249 393 193 390 221 b 342 342 382 275 381 342 z m 342 68 b 196 -294 342 -62 293 -204 b 79 -356 171 -318 121 -356 b 44 -344 67 -356 54 -351 b 19 -292 26 -332 19 -312 b 53 -193 19 -257 38 -218 b 342 68 118 -83 229 8 z m 243 547 l 242 547 b 222 540 235 547 228 544 b 160 439 200 521 168 467 b 158 429 158 436 158 432 b 176 401 158 418 165 406 b 185 400 179 400 182 400 b 269 508 221 400 261 482 b 271 518 271 511 271 514 b 254 546 271 529 265 542 b 243 547 251 547 247 547 z "},"":{"ha":328,"x_min":0,"x_max":0,"o":"m 33 286 l 26 286 b -8 200 -7 278 -6 226 b -11 158 -10 188 -11 174 b 89 6 -11 89 10 6 l 93 6 b 324 146 182 8 265 85 b 372 221 333 157 372 196 b 350 242 372 231 367 239 l 344 242 b 283 190 318 242 300 207 b 144 82 242 149 197 108 b 94 64 131 75 113 64 b 81 67 90 64 85 65 b 51 118 61 75 54 99 b 49 156 50 131 49 143 b 58 246 49 185 53 215 b 60 254 58 249 60 251 b 33 286 60 271 50 286 z "},"":{"ha":1235,"x_min":0,"x_max":0,"o":"m 401 847 l 408 847 b 435 844 418 847 425 846 b 535 797 472 839 508 825 b 635 524 607 724 635 625 b 554 213 635 417 603 306 b 485 107 531 178 511 139 b 238 -47 433 44 332 -47 b 169 -28 214 -47 192 -40 b 90 122 117 3 100 65 b 83 201 86 149 83 175 b 150 514 83 308 114 417 b 231 647 169 567 197 603 b 229 683 239 658 239 674 b 208 692 222 690 215 692 b 160 657 189 692 171 671 b 75 475 121 606 90 538 b 74 492 74 479 74 486 b 113 611 74 529 100 583 b 401 847 161 729 268 846 z m 399 907 b 363 903 388 907 375 904 b 0 360 121 868 0 578 b 11 267 0 329 3 296 b 26 228 15 253 25 242 b 193 -97 36 104 35 -68 b 239 -103 208 -100 224 -103 b 260 -101 246 -103 253 -103 b 493 28 351 -90 429 -36 b 499 35 494 29 497 32 b 560 -61 504 -3 524 -37 b 678 -96 594 -83 638 -93 b 701 -97 686 -96 693 -97 b 1149 97 861 -97 1025 7 b 1243 168 1181 121 1213 143 b 1275 211 1256 179 1275 190 b 1244 239 1275 228 1260 239 b 1233 238 1240 239 1238 239 b 1133 161 1199 225 1164 183 b 743 -33 1019 78 886 -14 b 690 -37 726 -36 708 -37 b 574 7 646 -37 600 -26 b 556 61 560 24 556 43 b 575 129 556 85 564 107 b 840 413 650 244 732 332 b 944 499 869 433 935 463 b 947 511 946 503 947 507 b 906 542 947 533 926 542 b 894 540 901 542 897 540 b 799 532 863 536 831 532 b 743 538 781 532 761 533 b 692 572 724 542 700 551 b 689 586 690 576 689 581 b 725 665 689 614 711 646 b 886 801 765 724 822 771 b 953 822 906 810 931 822 b 968 821 958 822 964 822 b 989 794 988 815 989 806 l 989 776 b 996 753 989 768 990 760 b 1015 744 1001 746 1008 744 b 1044 763 1026 744 1039 751 b 1053 796 1050 774 1053 785 b 997 874 1053 829 1029 863 b 957 881 983 878 971 881 l 954 881 b 892 869 933 881 911 876 b 667 688 803 840 717 769 b 401 906 626 807 533 906 b 399 907 400 906 400 907 z m 690 494 b 729 479 701 489 715 482 b 819 472 758 472 789 472 b 669 350 768 435 715 394 b 690 494 681 397 688 446 z "},"":{"ha":725,"x_min":0,"x_max":0,"o":"m 136 358 b 117 360 131 358 124 360 b 49 300 104 358 83 329 b -53 104 14 269 -53 188 b -40 46 -53 85 -49 65 b 44 -6 -24 10 10 -6 b 113 13 68 -6 92 1 b 169 58 135 24 154 40 b 207 15 178 43 190 28 b 268 -14 225 1 247 -7 b 351 -26 297 -22 324 -26 b 656 103 464 -26 568 36 b 756 186 689 128 726 156 b 767 213 763 193 767 203 b 758 232 767 219 765 226 b 740 239 753 236 747 239 b 650 176 710 239 668 192 b 343 35 560 101 465 42 l 336 35 b 217 124 282 35 217 65 b 218 136 217 128 217 132 b 231 172 219 147 222 164 b 244 175 233 175 238 175 b 304 165 263 175 293 167 b 331 164 313 164 321 164 b 467 231 383 164 450 181 b 471 253 469 239 471 246 b 357 328 471 304 407 328 b 333 325 349 328 340 326 b 229 268 297 318 260 297 b 197 297 218 278 208 288 b 136 358 178 315 164 351 z m 124 272 b 161 193 158 272 161 217 b 53 51 161 138 115 51 b 36 54 47 51 42 53 b 7 101 14 60 7 81 b 10 121 7 108 8 114 b 82 247 18 171 43 214 b 124 272 92 256 108 271 z m 364 269 b 407 251 378 269 406 267 b 376 229 408 238 386 232 b 328 224 361 225 344 224 b 274 228 310 224 292 226 b 364 269 288 256 331 269 z "},"":{"ha":351,"x_min":0,"x_max":0,"o":"m 190 607 b 171 603 185 607 178 606 b 94 506 135 588 114 538 b 71 469 88 493 75 482 b 69 460 69 465 69 463 b 99 432 69 443 83 432 b 113 435 103 432 108 432 b 189 539 147 453 164 511 b 231 428 194 508 211 453 b 256 417 236 419 246 417 b 274 422 263 417 268 418 b 283 444 281 429 283 436 b 271 485 283 458 275 472 b 190 607 258 521 239 607 z "},"":{"ha":332,"x_min":0,"x_max":0,"o":"m 157 615 b 139 613 151 615 144 614 b 111 583 124 607 121 594 b 69 513 92 561 72 543 l 69 501 b 157 415 69 450 110 415 b 190 421 168 415 179 417 b 263 519 232 435 263 476 b 260 539 263 526 261 532 b 158 615 251 576 201 615 l 157 617 z m 181 544 b 204 518 196 544 204 532 b 203 510 204 515 204 513 b 157 474 197 490 178 475 l 156 474 b 129 503 138 474 129 488 b 133 521 129 510 131 515 b 178 544 142 536 161 543 z "},"":{"ha":419,"x_min":0,"x_max":0,"o":"m 321 565 b 251 486 288 565 288 486 b 226 510 242 486 232 503 b 178 557 213 528 200 549 b 157 561 171 560 164 561 b 78 482 118 561 90 517 b 69 446 74 472 69 458 b 75 425 69 439 71 431 b 99 413 81 417 89 413 b 121 422 107 413 115 415 b 153 500 135 438 144 479 b 250 424 186 475 204 424 b 265 426 254 424 260 425 b 346 510 304 435 333 474 b 350 535 349 518 350 526 b 338 560 350 544 347 554 b 321 565 331 564 325 565 z "}}}
